<svg xmlns="http://www.w3.org/2000/svg" xmlns:xlink="http://www.w3.org/1999/xlink" width="1366" zoomAndPan="magnify" viewBox="0 0 1024.5 576" height="768" preserveAspectRatio="xMidYMid meet" version="1.0"><defs><clipPath id="42048b5a21"><path d="M 331.039062 47.425781 L 741.289062 47.425781 L 741.289062 457.675781 L 331.039062 457.675781 Z M 331.039062 47.425781 " clip-rule="nonzero"/></clipPath></defs><g clip-path="url(#42048b5a21)"><path fill="#ffdb79" d="M 741.289062 252.550781 C 741.289062 255.910156 741.207031 259.265625 741.042969 262.617188 C 740.878906 265.96875 740.632812 269.316406 740.300781 272.65625 C 739.972656 276 739.5625 279.328125 739.070312 282.652344 C 738.578125 285.972656 738.003906 289.277344 737.347656 292.570312 C 736.695312 295.863281 735.957031 299.136719 735.144531 302.394531 C 734.328125 305.648438 733.433594 308.882812 732.457031 312.097656 C 731.484375 315.308594 730.429688 318.496094 729.300781 321.65625 C 728.167969 324.816406 726.960938 327.949219 725.675781 331.050781 C 724.390625 334.152344 723.03125 337.21875 721.597656 340.253906 C 720.160156 343.289062 718.652344 346.285156 717.070312 349.246094 C 715.488281 352.207031 713.832031 355.128906 712.105469 358.007812 C 710.378906 360.886719 708.585938 363.722656 706.71875 366.511719 C 704.855469 369.304688 702.921875 372.046875 700.921875 374.746094 C 698.921875 377.441406 696.859375 380.085938 694.730469 382.683594 C 692.597656 385.277344 690.40625 387.820312 688.152344 390.304688 C 685.898438 392.792969 683.582031 395.222656 681.210938 397.597656 C 678.835938 399.972656 676.40625 402.285156 673.917969 404.539062 C 671.429688 406.792969 668.890625 408.988281 666.292969 411.117188 C 663.699219 413.246094 661.054688 415.308594 658.359375 417.308594 C 655.660156 419.308594 652.917969 421.242188 650.125 423.109375 C 647.335938 424.972656 644.5 426.769531 641.621094 428.492188 C 638.742188 430.21875 635.820312 431.875 632.859375 433.457031 C 629.898438 435.039062 626.902344 436.546875 623.867188 437.984375 C 620.832031 439.417969 617.765625 440.777344 614.664062 442.0625 C 611.5625 443.347656 608.429688 444.554688 605.269531 445.6875 C 602.109375 446.816406 598.921875 447.871094 595.710938 448.84375 C 592.496094 449.820312 589.261719 450.714844 586.007812 451.53125 C 582.75 452.34375 579.476562 453.082031 576.183594 453.734375 C 572.890625 454.390625 569.582031 454.964844 566.261719 455.457031 C 562.941406 455.949219 559.613281 456.359375 556.269531 456.691406 C 552.929688 457.019531 549.582031 457.265625 546.230469 457.429688 C 542.875 457.59375 539.523438 457.675781 536.164062 457.675781 C 532.808594 457.675781 529.453125 457.59375 526.101562 457.429688 C 522.746094 457.265625 519.398438 457.019531 516.058594 456.691406 C 512.71875 456.359375 509.386719 455.949219 506.066406 455.457031 C 502.746094 454.964844 499.441406 454.390625 496.148438 453.734375 C 492.855469 453.082031 489.578125 452.34375 486.324219 451.53125 C 483.066406 450.714844 479.832031 449.820312 476.621094 448.84375 C 473.40625 447.871094 470.222656 446.816406 467.058594 445.6875 C 463.898438 444.554688 460.769531 443.347656 457.667969 442.0625 C 454.566406 440.777344 451.496094 439.417969 448.460938 437.984375 C 445.429688 436.546875 442.429688 435.039062 439.46875 433.457031 C 436.507812 431.875 433.589844 430.21875 430.710938 428.492188 C 427.832031 426.769531 424.996094 424.972656 422.203125 423.109375 C 419.414062 421.242188 416.667969 419.308594 413.972656 417.308594 C 411.277344 415.308594 408.628906 413.246094 406.035156 411.117188 C 403.441406 408.988281 400.898438 406.792969 398.410156 404.539062 C 395.925781 402.285156 393.492188 399.972656 391.121094 397.597656 C 388.746094 395.222656 386.433594 392.792969 384.175781 390.304688 C 381.921875 387.820312 379.730469 385.277344 377.601562 382.683594 C 375.472656 380.085938 373.40625 377.441406 371.40625 374.746094 C 369.40625 372.046875 367.476562 369.304688 365.609375 366.511719 C 363.746094 363.722656 361.949219 360.886719 360.222656 358.007812 C 358.496094 355.128906 356.84375 352.207031 355.261719 349.246094 C 353.679688 346.285156 352.167969 343.289062 350.734375 340.253906 C 349.300781 337.21875 347.9375 334.152344 346.652344 331.050781 C 345.371094 327.949219 344.160156 324.816406 343.03125 321.65625 C 341.898438 318.496094 340.847656 315.308594 339.871094 312.097656 C 338.898438 308.882812 338.003906 305.648438 337.1875 302.394531 C 336.371094 299.136719 335.636719 295.863281 334.980469 292.570312 C 334.328125 289.277344 333.753906 285.972656 333.261719 282.652344 C 332.765625 279.328125 332.355469 276 332.027344 272.65625 C 331.699219 269.316406 331.453125 265.96875 331.285156 262.617188 C 331.121094 259.265625 331.039062 255.910156 331.039062 252.550781 C 331.039062 249.195312 331.121094 245.839844 331.285156 242.488281 C 331.453125 239.132812 331.699219 235.789062 332.027344 232.445312 C 332.355469 229.105469 332.765625 225.773438 333.261719 222.453125 C 333.753906 219.132812 334.328125 215.828125 334.980469 212.535156 C 335.636719 209.242188 336.371094 205.96875 337.1875 202.710938 C 338.003906 199.453125 338.898438 196.21875 339.871094 193.007812 C 340.847656 189.796875 341.898438 186.609375 343.03125 183.449219 C 344.160156 180.285156 345.371094 177.15625 346.652344 174.054688 C 347.9375 170.953125 349.300781 167.886719 350.734375 164.851562 C 352.167969 161.816406 353.679688 158.816406 355.261719 155.855469 C 356.84375 152.894531 358.496094 149.976562 360.222656 147.097656 C 361.949219 144.21875 363.746094 141.382812 365.609375 138.589844 C 367.476562 135.800781 369.40625 133.054688 371.40625 130.359375 C 373.40625 127.664062 375.472656 125.015625 377.601562 122.421875 C 379.730469 119.828125 381.921875 117.285156 384.175781 114.796875 C 386.433594 112.3125 388.746094 109.878906 391.121094 107.507812 C 393.492188 105.132812 395.925781 102.820312 398.410156 100.566406 C 400.898438 98.308594 403.441406 96.117188 406.035156 93.988281 C 408.628906 91.859375 411.277344 89.792969 413.972656 87.792969 C 416.667969 85.792969 419.414062 83.863281 422.203125 81.996094 C 424.996094 80.132812 427.832031 78.335938 430.710938 76.609375 C 433.589844 74.886719 436.507812 73.230469 439.46875 71.648438 C 442.429688 70.066406 445.429688 68.558594 448.460938 67.121094 C 451.496094 65.6875 454.566406 64.328125 457.667969 63.042969 C 460.769531 61.757812 463.898438 60.550781 467.058594 59.417969 C 470.222656 58.289062 473.40625 57.234375 476.621094 56.261719 C 479.832031 55.285156 483.066406 54.390625 486.324219 53.574219 C 489.578125 52.757812 492.855469 52.023438 496.148438 51.367188 C 499.441406 50.714844 502.746094 50.140625 506.066406 49.648438 C 509.386719 49.15625 512.71875 48.742188 516.058594 48.414062 C 519.398438 48.085938 522.746094 47.839844 526.101562 47.675781 C 529.453125 47.507812 532.808594 47.425781 536.164062 47.425781 C 539.523438 47.425781 542.875 47.507812 546.230469 47.675781 C 549.582031 47.839844 552.929688 48.085938 556.269531 48.414062 C 559.613281 48.742188 562.941406 49.15625 566.261719 49.648438 C 569.582031 50.140625 572.890625 50.714844 576.183594 51.367188 C 579.476562 52.023438 582.75 52.757812 586.007812 53.574219 C 589.261719 54.390625 592.496094 55.285156 595.710938 56.261719 C 598.921875 57.234375 602.109375 58.289062 605.269531 59.417969 C 608.429688 60.550781 611.5625 61.757812 614.664062 63.042969 C 617.765625 64.328125 620.832031 65.6875 623.867188 67.121094 C 626.902344 68.558594 629.898438 70.066406 632.859375 71.648438 C 635.820312 73.230469 638.742188 74.886719 641.621094 76.609375 C 644.5 78.335938 647.335938 80.132812 650.125 81.996094 C 652.917969 83.863281 655.660156 85.792969 658.359375 87.792969 C 661.054688 89.792969 663.699219 91.859375 666.292969 93.988281 C 668.890625 96.117188 671.429688 98.308594 673.917969 100.566406 C 676.40625 102.820312 678.835938 105.132812 681.210938 107.507812 C 683.582031 109.878906 685.898438 112.3125 688.152344 114.796875 C 690.40625 117.285156 692.597656 119.828125 694.730469 122.421875 C 696.859375 125.015625 698.921875 127.664062 700.921875 130.359375 C 702.921875 133.054688 704.855469 135.800781 706.71875 138.589844 C 708.585938 141.382812 710.378906 144.21875 712.105469 147.097656 C 713.832031 149.976562 715.488281 152.894531 717.070312 155.855469 C 718.652344 158.816406 720.160156 161.816406 721.597656 164.851562 C 723.03125 167.886719 724.390625 170.953125 725.675781 174.054688 C 726.960938 177.15625 728.167969 180.285156 729.300781 183.449219 C 730.429688 186.609375 731.484375 189.796875 732.457031 193.007812 C 733.433594 196.21875 734.328125 199.453125 735.144531 202.710938 C 735.957031 205.96875 736.695312 209.242188 737.347656 212.535156 C 738.003906 215.828125 738.578125 219.132812 739.070312 222.453125 C 739.5625 225.773438 739.972656 229.105469 740.300781 232.445312 C 740.632812 235.789062 740.878906 239.132812 741.042969 242.488281 C 741.207031 245.839844 741.289062 249.195312 741.289062 252.550781 Z M 741.289062 252.550781 " fill-opacity="1" fill-rule="nonzero"/></g><path fill="#cccbca" d="M 581.023438 392.890625 L 491.304688 392.890625 L 496.1875 349.839844 L 576.148438 349.839844 Z M 581.023438 392.890625 " fill-opacity="1" fill-rule="nonzero"/><path fill="#ffffff" d="M 598.953125 397.914062 L 473.367188 397.914062 L 473.367188 395.773438 C 473.367188 395.039062 473.648438 394.296875 474.210938 393.730469 C 474.753906 393.171875 475.5 392.890625 476.238281 392.890625 L 596.089844 392.890625 C 596.8125 392.890625 597.558594 393.171875 598.113281 393.730469 C 598.675781 394.296875 598.949219 395.035156 598.949219 395.773438 L 598.949219 397.914062 Z M 598.953125 397.914062 " fill-opacity="1" fill-rule="nonzero"/><path fill="#ffffff" d="M 697.632812 342.667969 C 697.632812 344.5 696.929688 346.347656 695.515625 347.730469 C 694.125 349.136719 692.292969 349.839844 690.449219 349.839844 L 381.867188 349.839844 C 380.035156 349.839844 378.207031 349.136719 376.800781 347.730469 C 375.402344 346.347656 374.699219 344.5 374.699219 342.667969 L 374.699219 321.128906 L 697.632812 321.128906 Z M 697.632812 342.667969 " fill-opacity="1" fill-rule="nonzero"/><path fill="#353f49" d="M 697.632812 114.367188 C 697.632812 112.519531 696.929688 110.6875 695.515625 109.28125 C 694.125 107.890625 692.292969 107.191406 690.449219 107.191406 L 381.867188 107.191406 C 380.035156 107.191406 378.207031 107.890625 376.800781 109.28125 C 375.402344 110.6875 374.699219 112.519531 374.699219 114.367188 L 374.699219 321.128906 L 697.632812 321.128906 Z M 697.632812 114.367188 " fill-opacity="1" fill-rule="nonzero"/><path fill="#ffffff" d="M 390.855469 123.335938 L 681.492188 123.335938 L 681.492188 304.964844 L 390.855469 304.964844 Z M 390.855469 123.335938 " fill-opacity="1" fill-rule="nonzero"/><path fill="#ff916e" d="M 411.484375 257.929688 L 432.269531 257.929688 L 432.269531 287.945312 L 411.484375 287.945312 Z M 411.484375 257.929688 " fill-opacity="1" fill-rule="nonzero"/><path fill="#f77b55" d="M 432.269531 206.085938 L 453.039062 206.085938 L 453.039062 287.945312 L 432.269531 287.945312 Z M 432.269531 206.085938 " fill-opacity="1" fill-rule="nonzero"/><path fill="#ee643c" d="M 453.039062 233.375 L 473.828125 233.375 L 473.828125 287.945312 L 453.039062 287.945312 Z M 453.039062 233.375 " fill-opacity="1" fill-rule="nonzero"/><path fill="#ff916e" d="M 473.824219 221.550781 L 494.609375 221.550781 L 494.609375 287.945312 L 473.824219 287.945312 Z M 473.824219 221.550781 " fill-opacity="1" fill-rule="nonzero"/><path fill="#f77b55" d="M 494.609375 242.921875 L 515.390625 242.921875 L 515.390625 287.945312 L 494.609375 287.945312 Z M 494.609375 242.921875 " fill-opacity="1" fill-rule="nonzero"/><path fill="#ee643c" d="M 515.386719 188.804688 L 536.171875 188.804688 L 536.171875 287.945312 L 515.386719 287.945312 Z M 515.386719 188.804688 " fill-opacity="1" fill-rule="nonzero"/><path fill="#ff916e" d="M 536.171875 223.363281 L 556.949219 223.363281 L 556.949219 287.945312 L 536.171875 287.945312 Z M 536.171875 223.363281 " fill-opacity="1" fill-rule="nonzero"/><path fill="#f77b55" d="M 556.949219 229.730469 L 577.742188 229.730469 L 577.742188 287.945312 L 556.949219 287.945312 Z M 556.949219 229.730469 " fill-opacity="1" fill-rule="nonzero"/><path fill="#ee643c" d="M 577.742188 206.085938 L 598.519531 206.085938 L 598.519531 287.945312 L 577.742188 287.945312 Z M 577.742188 206.085938 " fill-opacity="1" fill-rule="nonzero"/><path fill="#ff916e" d="M 598.519531 179.710938 L 619.292969 179.710938 L 619.292969 287.949219 L 598.519531 287.949219 Z M 598.519531 179.710938 " fill-opacity="1" fill-rule="nonzero"/><path fill="#f77b55" d="M 619.289062 167.886719 L 640.078125 167.886719 L 640.078125 287.945312 L 619.289062 287.945312 Z M 619.289062 167.886719 " fill-opacity="1" fill-rule="nonzero"/><path fill="#ee643c" d="M 640.082031 195.628906 L 660.863281 195.628906 L 660.863281 287.945312 L 640.082031 287.945312 Z M 640.082031 195.628906 " fill-opacity="1" fill-rule="nonzero"/><path fill="#ee643c" d="M 515.386719 144.609375 L 526.707031 144.609375 L 526.707031 155.933594 L 515.386719 155.933594 Z M 515.386719 144.609375 " fill-opacity="1" fill-rule="nonzero"/><path fill="#e6e5e5" d="M 532.367188 150.265625 L 557.863281 150.265625 L 557.863281 155.933594 L 532.367188 155.933594 Z M 532.367188 150.265625 " fill-opacity="1" fill-rule="nonzero"/><path fill="#ff916e" d="M 566.878906 144.609375 L 578.199219 144.609375 L 578.199219 155.933594 L 566.878906 155.933594 Z M 566.878906 144.609375 " fill-opacity="1" fill-rule="nonzero"/><path fill="#e6e5e5" d="M 583.863281 150.265625 L 609.355469 150.265625 L 609.355469 155.933594 L 583.863281 155.933594 Z M 583.863281 150.265625 " fill-opacity="1" fill-rule="nonzero"/><path fill="#f77b55" d="M 618.382812 144.609375 L 629.703125 144.609375 L 629.703125 155.933594 L 618.382812 155.933594 Z M 618.382812 144.609375 " fill-opacity="1" fill-rule="nonzero"/><path fill="#e6e5e5" d="M 635.363281 150.265625 L 660.863281 150.265625 L 660.863281 155.933594 L 635.363281 155.933594 Z M 635.363281 150.265625 " fill-opacity="1" fill-rule="nonzero"/><path fill="#353f49" d="M 411.484375 135.15625 L 494.609375 135.15625 L 494.609375 155.933594 L 411.484375 155.933594 Z M 411.484375 135.15625 " fill-opacity="1" fill-rule="nonzero"/><path fill="#ffffff" d="M 420.984375 143.042969 L 453.039062 143.042969 L 453.039062 148.707031 L 420.984375 148.707031 Z M 420.984375 143.042969 " fill-opacity="1" fill-rule="nonzero"/><path fill="#e6e5e5" d="M 411.484375 161.59375 L 494.609375 161.59375 L 494.609375 167.253906 L 411.484375 167.253906 Z M 411.484375 161.59375 " fill-opacity="1" fill-rule="nonzero"/><path fill="#e6e5e5" d="M 411.484375 172.910156 L 453.046875 172.910156 L 453.046875 178.578125 L 411.484375 178.578125 Z M 411.484375 172.910156 " fill-opacity="1" fill-rule="nonzero"/><path fill="#474f59" d="M 601.980469 321.421875 L 615.832031 321.421875 L 615.832031 338.320312 L 601.980469 338.320312 Z M 601.980469 321.421875 " fill-opacity="1" fill-rule="nonzero"/><path fill="#353f49" d="M 666.5 265.09375 C 666.5 296.90625 640.714844 322.6875 608.898438 322.6875 C 577.101562 322.6875 551.316406 296.90625 551.316406 265.09375 C 551.316406 233.285156 577.101562 207.496094 608.898438 207.496094 C 640.714844 207.5 666.5 233.285156 666.5 265.09375 Z M 666.5 265.09375 " fill-opacity="1" fill-rule="nonzero"/><path fill="#ffffff" d="M 654.988281 265.09375 C 654.988281 290.542969 634.359375 311.164062 608.910156 311.164062 C 583.460938 311.164062 562.832031 290.542969 562.832031 265.09375 C 562.832031 239.640625 583.460938 219.019531 608.910156 219.019531 C 634.359375 219.019531 654.988281 239.640625 654.988281 265.09375 Z M 654.988281 265.09375 " fill-opacity="1" fill-rule="nonzero"/><path fill="#474f59" d="M 597.992188 349.839844 L 619.804688 349.839844 L 619.804688 397.914062 L 597.992188 397.914062 Z M 597.992188 349.839844 " fill-opacity="1" fill-rule="nonzero"/><path fill="#353f49" d="M 596.1875 338.3125 L 621.628906 338.3125 L 621.628906 349.835938 L 596.1875 349.835938 Z M 596.1875 338.3125 " fill-opacity="1" fill-rule="nonzero"/><path fill="#ee643c" d="M 593.546875 288.890625 L 593.546875 308.503906 C 583.410156 304.957031 574.941406 297.945312 569.460938 288.890625 Z M 593.546875 288.890625 " fill-opacity="1" fill-rule="nonzero"/><path fill="#ff916e" d="M 624.25 249.90625 L 624.25 308.53125 C 619.457031 310.226562 614.269531 311.148438 608.898438 311.148438 C 603.523438 311.148438 598.335938 310.222656 593.542969 308.503906 L 593.542969 249.90625 Z M 624.25 249.90625 " fill-opacity="1" fill-rule="nonzero"/><path fill="#f77b55" d="M 654.980469 265.097656 C 654.980469 285.160156 642.167969 302.207031 624.253906 308.53125 L 624.253906 232.4375 L 641.402344 232.4375 C 649.789062 240.773438 654.980469 252.3125 654.980469 265.097656 Z M 654.980469 265.097656 " fill-opacity="1" fill-rule="nonzero"/><path fill="#353f49" d="M 339.65625 239.542969 C 339.65625 236.148438 342.421875 233.375 345.824219 233.375 L 446.886719 233.375 C 450.273438 233.375 453.046875 236.148438 453.046875 239.542969 L 453.046875 391.75 C 453.046875 395.144531 450.273438 397.914062 446.886719 397.914062 L 345.824219 397.914062 C 342.421875 397.914062 339.65625 395.144531 339.65625 391.75 Z M 339.65625 239.542969 " fill-opacity="1" fill-rule="nonzero"/><path fill="#474f59" d="M 390.101562 391.035156 C 388.589844 391.035156 387.355469 389.804688 387.355469 388.296875 L 387.355469 387.613281 C 387.355469 386.101562 388.589844 384.867188 390.101562 384.867188 L 402.609375 384.867188 C 404.113281 384.867188 405.351562 386.101562 405.351562 387.613281 L 405.351562 388.296875 C 405.351562 389.804688 404.113281 391.035156 402.609375 391.035156 Z M 390.101562 391.035156 " fill-opacity="1" fill-rule="nonzero"/><path fill="#474f59" d="M 396.339844 244.234375 C 394.78125 244.234375 393.535156 242.972656 393.535156 241.40625 C 393.535156 239.863281 394.78125 238.578125 396.339844 238.578125 C 397.894531 238.578125 399.171875 239.863281 399.171875 241.40625 C 399.171875 242.972656 397.894531 244.234375 396.339844 244.234375 Z M 396.339844 244.234375 " fill-opacity="1" fill-rule="nonzero"/><path fill="#353f49" d="M 397.53125 241.414062 C 397.53125 241.570312 397.5 241.722656 397.441406 241.867188 C 397.378906 242.007812 397.296875 242.136719 397.183594 242.246094 C 397.074219 242.359375 396.945312 242.441406 396.800781 242.503906 C 396.65625 242.5625 396.507812 242.59375 396.351562 242.59375 C 396.195312 242.59375 396.046875 242.5625 395.902344 242.503906 C 395.757812 242.441406 395.628906 242.359375 395.519531 242.246094 C 395.410156 242.136719 395.324219 242.007812 395.261719 241.867188 C 395.203125 241.722656 395.175781 241.570312 395.175781 241.414062 C 395.175781 241.257812 395.203125 241.109375 395.261719 240.964844 C 395.324219 240.820312 395.410156 240.691406 395.519531 240.582031 C 395.628906 240.472656 395.757812 240.386719 395.902344 240.328125 C 396.046875 240.265625 396.195312 240.238281 396.351562 240.238281 C 396.507812 240.238281 396.65625 240.265625 396.800781 240.328125 C 396.945312 240.386719 397.074219 240.472656 397.183594 240.582031 C 397.296875 240.691406 397.378906 240.820312 397.441406 240.964844 C 397.5 241.109375 397.53125 241.257812 397.53125 241.414062 Z M 397.53125 241.414062 " fill-opacity="1" fill-rule="nonzero"/><path fill="#ffffff" d="M 346.085938 249.449219 L 446.605469 249.449219 L 446.605469 377.988281 L 346.085938 377.988281 Z M 346.085938 249.449219 " fill-opacity="1" fill-rule="nonzero"/><path fill="#e6e5e5" d="M 359.683594 355.117188 L 433 355.117188 L 433 357.640625 L 359.683594 357.640625 Z M 359.683594 355.117188 " fill-opacity="1" fill-rule="nonzero"/><path fill="#cccbca" d="M 359.683594 343.679688 L 433 343.679688 L 433 352.585938 L 359.683594 352.585938 Z M 359.683594 343.679688 " fill-opacity="1" fill-rule="nonzero"/><path fill="#e6e5e5" d="M 359.683594 360.175781 L 433 360.175781 L 433 362.699219 L 359.683594 362.699219 Z M 359.683594 360.175781 " fill-opacity="1" fill-rule="nonzero"/><path fill="#e6e5e5" d="M 359.683594 365.226562 L 396.34375 365.226562 L 396.34375 367.753906 L 359.683594 367.753906 Z M 359.683594 365.226562 " fill-opacity="1" fill-rule="nonzero"/><path fill="#e6e5e5" d="M 415.515625 300.578125 C 415.515625 305.875 413.367188 310.664062 409.894531 314.132812 L 419.582031 323.820312 C 425.539062 317.871094 429.214844 309.648438 429.214844 300.578125 Z M 415.515625 300.578125 " fill-opacity="1" fill-rule="nonzero"/><path fill="#f77b55" d="M 409.894531 314.144531 C 406.421875 317.605469 401.632812 319.75 396.34375 319.75 C 385.753906 319.75 377.175781 311.164062 377.175781 300.578125 C 377.175781 292.585938 382.0625 285.746094 389.003906 282.875 L 383.765625 270.21875 C 371.859375 275.144531 363.480469 286.890625 363.480469 300.585938 C 363.480469 318.734375 378.199219 333.449219 396.339844 333.449219 C 405.410156 333.449219 413.636719 329.773438 419.582031 323.832031 Z M 409.894531 314.144531 " fill-opacity="1" fill-rule="nonzero"/><path fill="#656a73" d="M 396.339844 281.398438 L 396.339844 267.703125 C 391.890625 267.703125 387.644531 268.59375 383.765625 270.207031 L 389.003906 282.863281 C 391.269531 281.929688 393.738281 281.398438 396.339844 281.398438 Z M 396.339844 281.398438 " fill-opacity="1" fill-rule="nonzero"/><path fill="#353f49" d="M 396.34375 281.398438 C 406.9375 281.398438 415.515625 289.976562 415.515625 300.570312 L 429.214844 300.570312 C 429.214844 282.417969 414.496094 267.703125 396.339844 267.703125 Z M 396.34375 281.398438 " fill-opacity="1" fill-rule="nonzero"/></svg>