<svg xmlns="http://www.w3.org/2000/svg" xmlns:xlink="http://www.w3.org/1999/xlink" width="1366" zoomAndPan="magnify" viewBox="0 0 1024.5 576" height="768" preserveAspectRatio="xMidYMid meet" version="1.0"><defs><clipPath id="fd3936daee"><path d="M 325.269531 108.226562 L 666.519531 108.226562 L 666.519531 449.476562 L 325.269531 449.476562 Z M 325.269531 108.226562 " clip-rule="nonzero"/></clipPath></defs><g clip-path="url(#fd3936daee)"><path fill="#F1C232" d="M 495.894531 108.230469 C 401.8125 108.230469 325.269531 184.773438 325.269531 278.855469 C 325.269531 343.683594 361.242188 402.042969 419.144531 431.226562 C 419.152344 431.234375 419.164062 431.238281 419.175781 431.246094 C 419.238281 431.277344 419.296875 431.3125 419.355469 431.34375 C 428.742188 436.101562 438.734375 440.007812 449.054688 442.953125 C 464.167969 447.28125 479.921875 449.476562 496.183594 449.480469 L 496.191406 449.480469 C 496.191406 449.480469 496.195312 449.480469 496.199219 449.480469 C 512.296875 449.4375 528.144531 447.183594 543.273438 442.785156 C 553.132812 439.972656 562.84375 436.183594 572.125 431.519531 C 572.195312 431.484375 572.257812 431.445312 572.328125 431.410156 C 572.332031 431.40625 572.339844 431.40625 572.34375 431.402344 C 630.4375 402.25 666.519531 343.828125 666.519531 278.855469 C 666.519531 184.773438 589.976562 108.230469 495.894531 108.230469 Z M 446.039062 433.300781 C 439.058594 431.050781 432.28125 428.332031 425.777344 425.1875 C 426.621094 419.515625 427.761719 414.683594 429.167969 410.859375 C 438.5 411.074219 446.039062 418.683594 446.039062 428.046875 Z M 492.027344 441.023438 C 479.214844 440.722656 466.582031 438.945312 454.359375 435.703125 L 454.359375 428.046875 C 454.359375 415.558594 445.335938 405.152344 433.457031 402.945312 C 440.152344 393.644531 445.765625 387.027344 457.386719 381.566406 C 455.617188 385.445312 454.277344 388.542969 454.242188 388.621094 C 452.5625 392.792969 453.617188 401.816406 453.980469 404.484375 C 454.171875 405.898438 455.074219 407.113281 456.371094 407.707031 C 457.675781 408.304688 459.1875 408.191406 460.378906 407.40625 C 465.40625 404.125 471.03125 401.074219 473.433594 400.273438 C 476.851562 403.378906 487.554688 414.75 492.027344 420.050781 Z M 496.078125 412.058594 C 490.257812 405.515625 479.195312 393.5625 476.617188 392.3125 C 475.277344 391.652344 472.707031 390.386719 461.675781 396.8125 C 461.59375 394.398438 461.683594 392.4375 461.960938 391.738281 C 463.214844 388.644531 468.816406 376.6875 470.835938 372.824219 C 471.523438 372.707031 472.382812 372.585938 473.160156 372.5 C 475.476562 376.171875 480.523438 383.085938 491.09375 397.5 C 491.539062 398.105469 492.125 398.523438 492.765625 398.804688 C 492.957031 399.035156 493.101562 399.289062 493.347656 399.476562 C 494.105469 400.0625 495 400.347656 495.890625 400.347656 C 497.136719 400.347656 498.367188 399.792969 499.1875 398.730469 C 511.007812 383.453125 516.570312 376.269531 519.078125 372.488281 C 519.882812 372.574219 520.789062 372.699219 521.507812 372.824219 C 523.53125 376.683594 529.132812 388.644531 530.382812 391.726562 C 530.667969 392.445312 530.761719 394.394531 530.679688 396.8125 C 519.636719 390.378906 517.066406 391.652344 515.753906 392.304688 C 515.578125 392.386719 502.808594 404.074219 496.078125 412.058594 Z M 489.660156 349.90625 C 488.996094 348.507812 487.601562 347.601562 486.050781 347.546875 C 485.886719 347.539062 469.351562 346.871094 455.332031 338.796875 C 448.027344 334.589844 441.265625 330.074219 432.414062 317.328125 C 430.382812 314.429688 426.972656 314.816406 424.214844 315.136719 C 421.257812 315.476562 417.898438 315.859375 414.75 313.851562 C 408.242188 309.757812 404.996094 304.167969 406.464844 299.621094 C 407.898438 295.210938 413.515625 292.660156 420.84375 293.140625 C 422.09375 293.222656 423.195312 292.75 424 291.964844 C 427.800781 290.878906 428.78125 286.371094 429.097656 284.84375 C 429.816406 281.410156 430.183594 278.035156 430.539062 274.769531 C 431.417969 266.621094 432.179688 259.582031 438.125 254.296875 C 449.507812 244.179688 456.167969 228.179688 455.753906 213.242188 C 473.230469 220.496094 492.980469 219.164062 493.773438 219.101562 C 504.863281 218.769531 523.625 217.160156 537.945312 210.597656 C 536.402344 227.730469 544.777344 244.792969 555.46875 254.300781 C 561.414062 259.582031 562.175781 266.621094 563.058594 274.769531 C 563.410156 278.035156 563.777344 281.410156 564.496094 284.84375 C 564.714844 285.886719 565.246094 288.316406 566.757812 290.109375 C 567.292969 291.949219 569 293.285156 570.945312 293.140625 C 578.285156 292.660156 583.902344 295.210938 585.324219 299.621094 C 586.796875 304.167969 583.542969 309.757812 577.027344 313.863281 C 573.878906 315.855469 570.53125 315.472656 567.578125 315.136719 C 564.828125 314.824219 561.398438 314.4375 559.378906 317.339844 C 550.15625 330.605469 544.972656 335.09375 538.640625 338.738281 C 524.601562 346.820312 505.925781 347.539062 505.738281 347.546875 C 504.1875 347.597656 502.792969 348.511719 502.121094 349.910156 C 501.746094 350.695312 500.605469 353.085938 501.6875 368.789062 C 501.78125 370.125 502.535156 371.21875 503.574219 371.910156 C 504.175781 372.683594 505.027344 373.273438 506.066406 373.464844 C 506.636719 373.570312 507.207031 373.714844 507.777344 373.835938 C 505.015625 377.503906 501.03125 382.722656 495.675781 389.664062 C 490.578125 382.691406 486.789062 377.449219 484.191406 373.792969 C 484.914062 373.640625 485.632812 373.472656 486.355469 373.351562 C 487.945312 373.078125 489.125 371.917969 489.578125 370.484375 C 489.859375 369.96875 490.0625 369.410156 490.109375 368.785156 C 491.183594 353.082031 490.039062 350.691406 489.660156 349.90625 Z M 437.761719 187.347656 C 432.953125 180.929688 429.5625 175.5625 427.472656 171.78125 C 437.433594 173.386719 450.117188 171.015625 464.308594 168.355469 C 493.195312 162.945312 525.921875 156.8125 542.128906 184.789062 C 543.585938 187.3125 544.867188 189.210938 548.101562 190.671875 C 550.382812 191.6875 552.757812 192.351562 555.054688 192.988281 C 557.207031 193.589844 559.234375 194.152344 561.070312 194.96875 C 568.355469 198.199219 573.953125 201.613281 577.574219 207.78125 C 582.136719 215.558594 581.933594 224.921875 581.714844 234.835938 C 581.660156 237.542969 581.601562 240.238281 581.636719 242.894531 C 581.707031 248.179688 579.160156 272.757812 574.703125 278.222656 C 574.160156 278.890625 573.566406 279.710938 572.953125 280.570312 C 572.769531 280.824219 572.554688 281.125 572.320312 281.449219 C 571.878906 278.945312 571.605469 276.375 571.332031 273.875 C 570.355469 264.839844 569.347656 255.492188 561 248.078125 C 548.78125 237.214844 543.101562 218.128906 547.792969 203.683594 C 548.351562 201.960938 547.730469 200.078125 546.265625 199.019531 C 545.539062 198.496094 544.6875 198.238281 543.835938 198.238281 C 542.964844 198.238281 542.09375 198.507812 541.359375 199.054688 C 528.289062 208.730469 503.550781 210.480469 493.34375 210.792969 C 493.117188 210.8125 469.371094 212.421875 452.878906 202.519531 C 451.460938 201.671875 449.671875 201.742188 448.3125 202.703125 C 446.964844 203.667969 446.316406 205.339844 446.667969 206.960938 C 449.65625 220.878906 443.738281 238.167969 432.597656 248.078125 C 424.246094 255.492188 423.238281 264.839844 422.261719 273.875 C 421.992188 276.375 421.714844 278.945312 421.273438 281.449219 C 421.039062 281.125 420.824219 280.824219 420.640625 280.570312 C 420.027344 279.710938 419.433594 278.890625 418.886719 278.210938 C 414.433594 272.757812 411.886719 248.179688 411.957031 242.902344 C 411.992188 240.238281 411.9375 237.542969 411.878906 234.835938 C 411.660156 224.921875 411.457031 215.558594 416.019531 207.78125 C 419.640625 201.613281 425.238281 198.199219 432.527344 194.96875 C 433.554688 194.511719 434.613281 194.152344 435.6875 193.816406 C 436.96875 193.410156 437.984375 192.40625 438.398438 191.121094 C 438.8125 189.835938 438.570312 188.429688 437.761719 187.347656 Z M 520.054688 370.925781 C 520.097656 370.855469 520.132812 370.792969 520.167969 370.726562 L 520.195312 370.742188 C 520.148438 370.804688 520.101562 370.867188 520.054688 370.925781 Z M 537.96875 428.046875 L 537.96875 435.542969 C 525.867188 438.804688 513.296875 440.625 500.347656 440.992188 L 500.347656 419.78125 C 503.375 415.992188 515.441406 403.140625 518.820312 400.242188 C 521.160156 400.992188 526.871094 404.082031 531.96875 407.40625 C 533.167969 408.1875 534.675781 408.300781 535.976562 407.707031 C 537.269531 407.113281 538.171875 405.898438 538.367188 404.484375 C 538.730469 401.816406 539.78125 392.792969 538.101562 388.613281 C 538.070312 388.539062 536.851562 385.722656 535.207031 382.105469 C 546.144531 387.5 551.597656 394.035156 558.105469 403.09375 C 546.609375 405.597656 537.96875 415.828125 537.96875 428.046875 Z M 546.292969 433.132812 L 546.292969 428.046875 C 546.292969 418.972656 553.386719 411.59375 562.320312 410.945312 C 563.738281 414.8125 564.886719 419.667969 565.722656 425.34375 C 559.402344 428.371094 552.90625 430.984375 546.292969 433.132812 Z M 573.496094 421.304688 C 571.878906 411.941406 569.394531 404.734375 566.035156 399.875 C 556.796875 386.878906 549.269531 377.832031 529.796875 370.808594 C 529.117188 369.5 528.480469 368.347656 527.949219 367.496094 C 527.808594 367.199219 527.609375 366.945312 527.398438 366.683594 C 527.164062 366.363281 526.953125 366.105469 526.785156 365.972656 C 526.78125 365.972656 526.777344 365.972656 526.773438 365.96875 C 526.769531 365.964844 526.765625 365.957031 526.761719 365.953125 C 526.542969 365.789062 526.164062 365.613281 525.707031 365.4375 C 525.492188 365.355469 525.289062 365.265625 525.066406 365.21875 C 522.09375 364.257812 516.5 363.476562 514.46875 364.875 C 513.847656 365.304688 513.382812 365.90625 513.070312 366.570312 C 512 366.277344 510.925781 366.015625 509.847656 365.777344 C 509.632812 361.980469 509.503906 358.03125 509.527344 355.621094 C 516.109375 355.015625 530.671875 352.929688 542.792969 345.949219 C 549.972656 341.820312 555.761719 336.925781 565.386719 323.273438 C 565.789062 323.308594 566.246094 323.359375 566.632812 323.40625 C 570.09375 323.800781 575.871094 324.460938 581.476562 320.894531 C 593.40625 313.382812 595.378906 303.65625 593.242188 297.058594 C 591.683594 292.242188 587.324219 287.371094 579.636719 285.53125 C 579.664062 285.492188 579.691406 285.453125 579.71875 285.414062 C 580.226562 284.703125 580.714844 284.019531 581.15625 283.476562 C 588.21875 274.828125 590 245.65625 589.960938 242.78125 C 589.925781 240.21875 589.980469 237.621094 590.039062 235.019531 C 590.269531 224.382812 590.511719 213.382812 584.75 203.570312 C 579.726562 195.003906 572.023438 190.71875 564.445312 187.359375 C 562.054688 186.296875 559.632812 185.625 557.285156 184.972656 C 555.195312 184.386719 553.214844 183.835938 551.511719 183.078125 C 550.636719 182.683594 550.484375 182.613281 549.332031 180.625 C 530.175781 147.542969 492.804688 154.546875 462.777344 160.175781 C 446.859375 163.15625 431.828125 165.964844 423.59375 162.015625 C 420.941406 160.738281 418.75 161.808594 417.679688 163.109375 C 416.652344 164.363281 413.664062 168 427.875 187.933594 C 420.71875 191.210938 413.585938 195.488281 408.84375 203.570312 C 403.085938 213.382812 403.324219 224.382812 403.554688 235.019531 C 403.613281 237.621094 403.667969 240.21875 403.632812 242.789062 C 403.597656 245.65625 405.375 274.828125 412.433594 283.464844 C 412.84375 283.976562 413.296875 284.609375 413.761719 285.261719 C 405.09375 286.78125 400.210938 291.925781 398.550781 297.054688 C 396.410156 303.652344 398.378906 313.378906 410.296875 320.886719 C 415.917969 324.457031 421.699219 323.796875 425.15625 323.40625 C 425.546875 323.359375 426.015625 323.308594 426.421875 323.269531 C 435.847656 336.519531 443.519531 341.597656 451.179688 346.011719 C 463.039062 352.839844 476.066406 354.949219 482.210938 355.59375 C 482.273438 358.121094 482.15625 362.023438 481.945312 365.765625 C 481.023438 365.96875 480.109375 366.199219 479.191406 366.445312 C 478.882812 365.835938 478.460938 365.277344 477.878906 364.875 C 475.839844 363.476562 470.25 364.257812 467.277344 365.21875 C 467.058594 365.265625 466.855469 365.355469 466.640625 365.4375 C 466.183594 365.613281 465.800781 365.789062 465.585938 365.953125 C 465.582031 365.957031 465.578125 365.964844 465.574219 365.96875 C 465.570312 365.972656 465.566406 365.972656 465.5625 365.972656 C 465.394531 366.105469 465.183594 366.363281 464.949219 366.683594 C 464.738281 366.945312 464.539062 367.199219 464.398438 367.496094 C 463.886719 368.3125 463.285156 369.40625 462.632812 370.644531 C 462.332031 370.683594 462.03125 370.671875 461.734375 370.78125 C 442.207031 377.808594 434.675781 386.863281 425.390625 399.910156 C 422.097656 404.648438 419.632812 411.792969 418.007812 421.125 C 365.828125 392.589844 333.59375 338.652344 333.59375 278.855469 C 333.59375 189.359375 406.402344 116.554688 495.894531 116.554688 C 585.390625 116.554688 658.195312 189.359375 658.195312 278.855469 C 658.195312 338.789062 625.859375 392.796875 573.496094 421.304688 Z M 573.496094 421.304688 " fill-opacity="1" fill-rule="nonzero"/></g></svg>