<svg xmlns="http://www.w3.org/2000/svg" xmlns:xlink="http://www.w3.org/1999/xlink" width="1366" zoomAndPan="magnify" viewBox="0 0 1024.5 576" height="768" preserveAspectRatio="xMidYMid meet" version="1.0"><defs><clipPath id="e086110e1d"><path d="M 302.195312 79.878906 L 674.945312 79.878906 L 674.945312 452.628906 L 302.195312 452.628906 Z M 302.195312 79.878906 " clip-rule="nonzero"/></clipPath><clipPath id="ffd4896be2"><path d="M 674.945312 266.253906 C 674.945312 269.304688 674.871094 272.355469 674.722656 275.402344 C 674.574219 278.445312 674.347656 281.488281 674.050781 284.523438 C 673.75 287.558594 673.378906 290.585938 672.929688 293.601562 C 672.480469 296.621094 671.960938 299.625 671.367188 302.617188 C 670.769531 305.605469 670.101562 308.582031 669.363281 311.542969 C 668.621094 314.5 667.808594 317.4375 666.921875 320.355469 C 666.035156 323.277344 665.078125 326.171875 664.050781 329.042969 C 663.023438 331.914062 661.925781 334.761719 660.761719 337.578125 C 659.59375 340.394531 658.355469 343.183594 657.054688 345.941406 C 655.75 348.699219 654.378906 351.421875 652.941406 354.113281 C 651.503906 356.800781 650 359.457031 648.429688 362.070312 C 646.863281 364.6875 645.230469 367.265625 643.535156 369.800781 C 641.84375 372.335938 640.085938 374.828125 638.269531 377.277344 C 636.453125 379.730469 634.578125 382.132812 632.640625 384.492188 C 630.707031 386.847656 628.714844 389.15625 626.667969 391.417969 C 624.617188 393.675781 622.515625 395.886719 620.359375 398.042969 C 618.203125 400.199219 615.992188 402.300781 613.734375 404.351562 C 611.472656 406.398438 609.164062 408.390625 606.808594 410.324219 C 604.449219 412.261719 602.046875 414.136719 599.59375 415.953125 C 597.144531 417.769531 594.652344 419.527344 592.117188 421.222656 C 589.582031 422.914062 587.003906 424.546875 584.386719 426.113281 C 581.773438 427.683594 579.117188 429.1875 576.429688 430.625 C 573.738281 432.0625 571.015625 433.433594 568.257812 434.738281 C 565.5 436.039062 562.710938 437.277344 559.894531 438.445312 C 557.078125 439.609375 554.230469 440.707031 551.359375 441.734375 C 548.488281 442.761719 545.59375 443.71875 542.671875 444.605469 C 539.753906 445.492188 536.816406 446.304688 533.855469 447.046875 C 530.898438 447.785156 527.921875 448.453125 524.933594 449.050781 C 521.941406 449.644531 518.9375 450.164062 515.917969 450.613281 C 512.902344 451.0625 509.875 451.433594 506.839844 451.734375 C 503.804688 452.03125 500.761719 452.257812 497.71875 452.40625 C 494.671875 452.554688 491.621094 452.628906 488.570312 452.628906 C 485.523438 452.628906 482.472656 452.554688 479.425781 452.40625 C 476.378906 452.257812 473.339844 452.03125 470.304688 451.734375 C 467.269531 451.433594 464.242188 451.0625 461.226562 450.613281 C 458.207031 450.164062 455.203125 449.644531 452.210938 449.050781 C 449.21875 448.453125 446.246094 447.785156 443.285156 447.046875 C 440.328125 446.304688 437.390625 445.492188 434.46875 444.605469 C 431.550781 443.71875 428.65625 442.761719 425.785156 441.734375 C 422.914062 440.707031 420.066406 439.609375 417.25 438.445312 C 414.429688 437.277344 411.644531 436.039062 408.886719 434.738281 C 406.128906 433.433594 403.40625 432.0625 400.714844 430.625 C 398.023438 429.1875 395.371094 427.683594 392.757812 426.113281 C 390.140625 424.546875 387.5625 422.914062 385.027344 421.222656 C 382.492188 419.527344 380 417.769531 377.546875 415.953125 C 375.097656 414.136719 372.695312 412.261719 370.335938 410.324219 C 367.980469 408.390625 365.671875 406.398438 363.410156 404.351562 C 361.148438 402.300781 358.941406 400.199219 356.785156 398.042969 C 354.628906 395.886719 352.527344 393.675781 350.476562 391.417969 C 348.429688 389.15625 346.4375 386.847656 344.503906 384.492188 C 342.566406 382.132812 340.691406 379.730469 338.875 377.277344 C 337.058594 374.828125 335.300781 372.335938 333.605469 369.800781 C 331.914062 367.265625 330.28125 364.6875 328.710938 362.070312 C 327.144531 359.457031 325.640625 356.800781 324.203125 354.113281 C 322.765625 351.421875 321.394531 348.699219 320.089844 345.941406 C 318.785156 343.183594 317.550781 340.394531 316.382812 337.578125 C 315.214844 334.761719 314.121094 331.914062 313.089844 329.042969 C 312.0625 326.171875 311.109375 323.277344 310.222656 320.355469 C 309.335938 317.4375 308.523438 314.5 307.78125 311.542969 C 307.042969 308.582031 306.375 305.605469 305.777344 302.617188 C 305.183594 299.625 304.660156 296.621094 304.214844 293.601562 C 303.765625 290.585938 303.394531 287.558594 303.09375 284.523438 C 302.796875 281.488281 302.570312 278.445312 302.421875 275.402344 C 302.273438 272.355469 302.195312 269.304688 302.195312 266.253906 C 302.195312 263.207031 302.273438 260.15625 302.421875 257.109375 C 302.570312 254.0625 302.796875 251.023438 303.09375 247.988281 C 303.394531 244.953125 303.765625 241.925781 304.214844 238.910156 C 304.660156 235.890625 305.183594 232.886719 305.777344 229.894531 C 306.375 226.902344 307.042969 223.929688 307.78125 220.96875 C 308.523438 218.011719 309.335938 215.074219 310.222656 212.152344 C 311.109375 209.234375 312.0625 206.339844 313.089844 203.46875 C 314.121094 200.597656 315.214844 197.75 316.382812 194.933594 C 317.550781 192.113281 318.785156 189.328125 320.089844 186.570312 C 321.394531 183.8125 322.765625 181.089844 324.203125 178.398438 C 325.640625 175.710938 327.144531 173.054688 328.710938 170.441406 C 330.28125 167.824219 331.914062 165.246094 333.605469 162.710938 C 335.300781 160.175781 337.058594 157.683594 338.875 155.230469 C 340.691406 152.78125 342.566406 150.378906 344.503906 148.019531 C 346.4375 145.664062 348.429688 143.355469 350.476562 141.09375 C 352.527344 138.832031 354.628906 136.625 356.785156 134.46875 C 358.941406 132.3125 361.148438 130.210938 363.410156 128.160156 C 365.671875 126.113281 367.980469 124.121094 370.335938 122.1875 C 372.695312 120.25 375.097656 118.375 377.546875 116.558594 C 380 114.742188 382.492188 112.984375 385.027344 111.289062 C 387.5625 109.597656 390.140625 107.964844 392.757812 106.394531 C 395.371094 104.828125 398.023438 103.324219 400.714844 101.886719 C 403.40625 100.449219 406.128906 99.078125 408.886719 97.773438 C 411.644531 96.46875 414.429688 95.234375 417.25 94.066406 C 420.066406 92.898438 422.914062 91.804688 425.785156 90.773438 C 428.65625 89.746094 431.550781 88.792969 434.46875 87.90625 C 437.390625 87.019531 440.328125 86.207031 443.285156 85.464844 C 446.246094 84.726562 449.21875 84.058594 452.210938 83.460938 C 455.203125 82.867188 458.207031 82.34375 461.226562 81.898438 C 464.242188 81.449219 467.269531 81.078125 470.304688 80.777344 C 473.339844 80.480469 476.378906 80.253906 479.425781 80.105469 C 482.472656 79.957031 485.523438 79.878906 488.570312 79.878906 C 491.621094 79.878906 494.671875 79.957031 497.71875 80.105469 C 500.761719 80.253906 503.804688 80.480469 506.839844 80.777344 C 509.875 81.078125 512.902344 81.449219 515.917969 81.898438 C 518.9375 82.34375 521.941406 82.867188 524.933594 83.460938 C 527.921875 84.058594 530.898438 84.726562 533.855469 85.464844 C 536.816406 86.207031 539.753906 87.019531 542.671875 87.90625 C 545.59375 88.792969 548.488281 89.746094 551.359375 90.773438 C 554.230469 91.804688 557.078125 92.898438 559.894531 94.066406 C 562.710938 95.234375 565.5 96.46875 568.257812 97.773438 C 571.015625 99.078125 573.738281 100.449219 576.429688 101.886719 C 579.117188 103.324219 581.773438 104.828125 584.386719 106.394531 C 587.003906 107.964844 589.582031 109.597656 592.117188 111.289062 C 594.652344 112.984375 597.144531 114.742188 599.59375 116.558594 C 602.046875 118.375 604.449219 120.25 606.808594 122.1875 C 609.164062 124.121094 611.472656 126.113281 613.734375 128.160156 C 615.992188 130.210938 618.203125 132.3125 620.359375 134.46875 C 622.515625 136.625 624.617188 138.832031 626.667969 141.09375 C 628.714844 143.355469 630.707031 145.664062 632.640625 148.019531 C 634.578125 150.378906 636.453125 152.78125 638.269531 155.230469 C 640.085938 157.683594 641.84375 160.175781 643.535156 162.710938 C 645.230469 165.246094 646.863281 167.824219 648.429688 170.441406 C 650 173.054688 651.503906 175.710938 652.941406 178.398438 C 654.378906 181.089844 655.75 183.8125 657.054688 186.570312 C 658.355469 189.328125 659.59375 192.113281 660.761719 194.933594 C 661.925781 197.75 663.023438 200.597656 664.050781 203.46875 C 665.078125 206.339844 666.035156 209.234375 666.921875 212.152344 C 667.808594 215.074219 668.621094 218.011719 669.363281 220.96875 C 670.101562 223.929688 670.769531 226.902344 671.367188 229.894531 C 671.960938 232.886719 672.480469 235.890625 672.929688 238.910156 C 673.378906 241.925781 673.75 244.953125 674.050781 247.988281 C 674.347656 251.023438 674.574219 254.0625 674.722656 257.109375 C 674.871094 260.15625 674.945312 263.207031 674.945312 266.253906 Z M 674.945312 266.253906 " clip-rule="nonzero"/></clipPath><linearGradient x1="59.999998" gradientTransform="matrix(6.65625, 0, 0, 6.65625, 275.571959, 53.255635)" y1="4.000002" x2="4.000001" gradientUnits="userSpaceOnUse" y2="59.999999" id="22248f46ce"><stop stop-opacity="1" stop-color="rgb(82.699585%, 88.598633%, 93.699646%)" offset="0"/><stop stop-opacity="1" stop-color="rgb(82.699585%, 88.598633%, 93.699646%)" offset="0.125"/><stop stop-opacity="1" stop-color="rgb(82.627869%, 88.549805%, 93.67981%)" offset="0.15625"/><stop stop-opacity="1" stop-color="rgb(82.444763%, 88.424683%, 93.630981%)" offset="0.171875"/><stop stop-opacity="1" stop-color="rgb(82.218933%, 88.269043%, 93.571472%)" offset="0.1875"/><stop stop-opacity="1" stop-color="rgb(81.994629%, 88.114929%, 93.511963%)" offset="0.203125"/><stop stop-opacity="1" stop-color="rgb(81.768799%, 87.960815%, 93.452454%)" offset="0.21875"/><stop stop-opacity="1" stop-color="rgb(81.542969%, 87.805176%, 93.392944%)" offset="0.234375"/><stop stop-opacity="1" stop-color="rgb(81.318665%, 87.651062%, 93.333435%)" offset="0.25"/><stop stop-opacity="1" stop-color="rgb(81.092834%, 87.496948%, 93.273926%)" offset="0.265625"/><stop stop-opacity="1" stop-color="rgb(80.867004%, 87.341309%, 93.212891%)" offset="0.28125"/><stop stop-opacity="1" stop-color="rgb(80.641174%, 87.187195%, 93.153381%)" offset="0.296875"/><stop stop-opacity="1" stop-color="rgb(80.41687%, 87.031555%, 93.093872%)" offset="0.3125"/><stop stop-opacity="1" stop-color="rgb(80.19104%, 86.877441%, 93.034363%)" offset="0.328125"/><stop stop-opacity="1" stop-color="rgb(79.96521%, 86.723328%, 92.974854%)" offset="0.34375"/><stop stop-opacity="1" stop-color="rgb(79.740906%, 86.567688%, 92.915344%)" offset="0.359375"/><stop stop-opacity="1" stop-color="rgb(79.515076%, 86.413574%, 92.855835%)" offset="0.375"/><stop stop-opacity="1" stop-color="rgb(79.289246%, 86.25946%, 92.796326%)" offset="0.390625"/><stop stop-opacity="1" stop-color="rgb(79.063416%, 86.103821%, 92.736816%)" offset="0.40625"/><stop stop-opacity="1" stop-color="rgb(78.839111%, 85.949707%, 92.677307%)" offset="0.421875"/><stop stop-opacity="1" stop-color="rgb(78.613281%, 85.794067%, 92.616272%)" offset="0.4375"/><stop stop-opacity="1" stop-color="rgb(78.387451%, 85.639954%, 92.556763%)" offset="0.453125"/><stop stop-opacity="1" stop-color="rgb(78.163147%, 85.48584%, 92.497253%)" offset="0.46875"/><stop stop-opacity="1" stop-color="rgb(77.937317%, 85.3302%, 92.437744%)" offset="0.484375"/><stop stop-opacity="1" stop-color="rgb(77.711487%, 85.176086%, 92.378235%)" offset="0.5"/><stop stop-opacity="1" stop-color="rgb(77.598572%, 85.099792%, 92.349243%)" offset="0.5"/><stop stop-opacity="1" stop-color="rgb(77.485657%, 85.021973%, 92.318726%)" offset="0.5"/><stop stop-opacity="1" stop-color="rgb(77.374268%, 84.944153%, 92.289734%)" offset="0.515625"/><stop stop-opacity="1" stop-color="rgb(77.261353%, 84.866333%, 92.259216%)" offset="0.53125"/><stop stop-opacity="1" stop-color="rgb(77.035522%, 84.712219%, 92.199707%)" offset="0.546875"/><stop stop-opacity="1" stop-color="rgb(76.809692%, 84.558105%, 92.140198%)" offset="0.5625"/><stop stop-opacity="1" stop-color="rgb(76.585388%, 84.402466%, 92.080688%)" offset="0.578125"/><stop stop-opacity="1" stop-color="rgb(76.359558%, 84.248352%, 92.019653%)" offset="0.59375"/><stop stop-opacity="1" stop-color="rgb(76.133728%, 84.092712%, 91.960144%)" offset="0.609375"/><stop stop-opacity="1" stop-color="rgb(75.907898%, 83.938599%, 91.900635%)" offset="0.625"/><stop stop-opacity="1" stop-color="rgb(75.683594%, 83.784485%, 91.841125%)" offset="0.640625"/><stop stop-opacity="1" stop-color="rgb(75.457764%, 83.628845%, 91.781616%)" offset="0.65625"/><stop stop-opacity="1" stop-color="rgb(75.231934%, 83.474731%, 91.722107%)" offset="0.671875"/><stop stop-opacity="1" stop-color="rgb(75.007629%, 83.320618%, 91.662598%)" offset="0.6875"/><stop stop-opacity="1" stop-color="rgb(74.781799%, 83.164978%, 91.603088%)" offset="0.703125"/><stop stop-opacity="1" stop-color="rgb(74.555969%, 83.010864%, 91.543579%)" offset="0.71875"/><stop stop-opacity="1" stop-color="rgb(74.330139%, 82.855225%, 91.48407%)" offset="0.734375"/><stop stop-opacity="1" stop-color="rgb(74.105835%, 82.701111%, 91.423035%)" offset="0.75"/><stop stop-opacity="1" stop-color="rgb(73.880005%, 82.546997%, 91.363525%)" offset="0.765625"/><stop stop-opacity="1" stop-color="rgb(73.654175%, 82.391357%, 91.304016%)" offset="0.78125"/><stop stop-opacity="1" stop-color="rgb(73.429871%, 82.237244%, 91.244507%)" offset="0.796875"/><stop stop-opacity="1" stop-color="rgb(73.204041%, 82.08313%, 91.184998%)" offset="0.8125"/><stop stop-opacity="1" stop-color="rgb(72.97821%, 81.92749%, 91.125488%)" offset="0.828125"/><stop stop-opacity="1" stop-color="rgb(72.75238%, 81.773376%, 91.065979%)" offset="0.84375"/><stop stop-opacity="1" stop-color="rgb(72.569275%, 81.646729%, 91.017151%)" offset="0.875"/><stop stop-opacity="1" stop-color="rgb(72.499084%, 81.599426%, 90.99884%)" offset="1"/></linearGradient><clipPath id="96ede7f3ae"><path d="M 377 180 L 600 180 L 600 353 L 377 353 Z M 377 180 " clip-rule="nonzero"/></clipPath><clipPath id="0577491cd0"><path d="M 377.578125 339.429688 C 377.578125 346.5625 383.382812 352.375 390.523438 352.375 L 586.617188 352.375 C 593.761719 352.375 599.566406 346.5625 599.566406 339.429688 L 599.566406 222.097656 L 377.578125 222.097656 Z M 523.871094 255.152344 C 522.371094 253.65625 522.371094 251.238281 523.871094 249.742188 C 525.367188 248.242188 527.789062 248.242188 529.28125 249.742188 L 556.347656 276.804688 C 557.84375 278.304688 557.84375 280.726562 556.347656 282.21875 L 529.28125 309.28125 C 528.535156 310.027344 527.558594 310.398438 526.574219 310.398438 C 525.59375 310.398438 524.617188 310.027344 523.863281 309.28125 C 522.367188 307.785156 522.367188 305.359375 523.863281 303.871094 L 548.21875 279.515625 Z M 465.160156 314.3125 L 505.351562 244.710938 C 506.410156 242.871094 508.746094 242.253906 510.585938 243.304688 C 512.414062 244.363281 513.039062 246.699219 511.988281 248.535156 L 471.796875 318.140625 C 471.085938 319.371094 469.800781 320.058594 468.476562 320.058594 C 467.832031 320.058594 467.171875 319.890625 466.566406 319.546875 C 464.734375 318.480469 464.109375 316.144531 465.160156 314.3125 Z M 420.796875 276.804688 L 447.863281 249.742188 C 449.359375 248.242188 451.78125 248.242188 453.273438 249.742188 C 454.773438 251.238281 454.773438 253.65625 453.273438 255.152344 L 428.917969 279.507812 L 453.273438 303.863281 C 454.773438 305.359375 454.773438 307.785156 453.273438 309.273438 C 452.527344 310.019531 451.550781 310.394531 450.566406 310.394531 C 449.585938 310.394531 448.609375 310.019531 447.855469 309.273438 L 420.792969 282.210938 C 419.300781 280.71875 419.300781 278.296875 420.796875 276.804688 Z M 586.617188 180.136719 L 390.523438 180.136719 C 383.382812 180.136719 377.578125 185.949219 377.578125 193.082031 L 377.578125 214.445312 L 599.566406 214.445312 L 599.566406 193.082031 C 599.566406 185.949219 593.761719 180.136719 586.617188 180.136719 Z M 526.851562 204.945312 C 524.742188 204.945312 523.023438 203.226562 523.023438 201.117188 C 523.023438 199.007812 524.742188 197.289062 526.851562 197.289062 C 528.960938 197.289062 530.679688 199.007812 530.679688 201.117188 C 530.679688 203.226562 528.960938 204.945312 526.851562 204.945312 Z M 549.816406 204.945312 C 547.707031 204.945312 545.988281 203.226562 545.988281 201.117188 C 545.988281 199.007812 547.707031 197.289062 549.816406 197.289062 C 551.925781 197.289062 553.644531 199.007812 553.644531 201.117188 C 553.644531 203.226562 551.925781 204.945312 549.816406 204.945312 Z M 572.78125 204.945312 C 570.671875 204.945312 568.953125 203.226562 568.953125 201.117188 C 568.953125 199.007812 570.671875 197.289062 572.78125 197.289062 C 574.890625 197.289062 576.609375 199.007812 576.609375 201.117188 C 576.609375 203.226562 574.890625 204.945312 572.78125 204.945312 Z M 572.78125 204.945312 " clip-rule="nonzero"/></clipPath><linearGradient x1="17.1935" gradientTransform="matrix(6.65625, 0, 0, 6.65625, 275.571959, 53.255635)" y1="46.8065" x2="46.806499" gradientUnits="userSpaceOnUse" y2="17.193501" id="f557e1357b"><stop stop-opacity="1" stop-color="rgb(33.299255%, 73.699951%, 84.698486%)" offset="0"/><stop stop-opacity="1" stop-color="rgb(33.299255%, 73.699951%, 84.698486%)" offset="0.015625"/><stop stop-opacity="1" stop-color="rgb(33.273315%, 73.609924%, 84.703064%)" offset="0.0234375"/><stop stop-opacity="1" stop-color="rgb(33.197021%, 73.350525%, 84.715271%)" offset="0.03125"/><stop stop-opacity="1" stop-color="rgb(33.099365%, 73.013306%, 84.732056%)" offset="0.0390625"/><stop stop-opacity="1" stop-color="rgb(33.000183%, 72.676086%, 84.747314%)" offset="0.046875"/><stop stop-opacity="1" stop-color="rgb(32.902527%, 72.338867%, 84.764099%)" offset="0.0546875"/><stop stop-opacity="1" stop-color="rgb(32.803345%, 72.001648%, 84.780884%)" offset="0.0625"/><stop stop-opacity="1" stop-color="rgb(32.705688%, 71.664429%, 84.796143%)" offset="0.0703125"/><stop stop-opacity="1" stop-color="rgb(32.608032%, 71.327209%, 84.812927%)" offset="0.078125"/><stop stop-opacity="1" stop-color="rgb(32.50885%, 70.98999%, 84.829712%)" offset="0.0859375"/><stop stop-opacity="1" stop-color="rgb(32.411194%, 70.652771%, 84.844971%)" offset="0.09375"/><stop stop-opacity="1" stop-color="rgb(32.312012%, 70.315552%, 84.861755%)" offset="0.101562"/><stop stop-opacity="1" stop-color="rgb(32.214355%, 69.978333%, 84.87854%)" offset="0.109375"/><stop stop-opacity="1" stop-color="rgb(32.115173%, 69.641113%, 84.893799%)" offset="0.117187"/><stop stop-opacity="1" stop-color="rgb(32.017517%, 69.303894%, 84.910583%)" offset="0.125"/><stop stop-opacity="1" stop-color="rgb(31.918335%, 68.966675%, 84.927368%)" offset="0.132812"/><stop stop-opacity="1" stop-color="rgb(31.820679%, 68.629456%, 84.942627%)" offset="0.140625"/><stop stop-opacity="1" stop-color="rgb(31.723022%, 68.292236%, 84.959412%)" offset="0.148438"/><stop stop-opacity="1" stop-color="rgb(31.62384%, 67.955017%, 84.976196%)" offset="0.15625"/><stop stop-opacity="1" stop-color="rgb(31.526184%, 67.617798%, 84.991455%)" offset="0.164063"/><stop stop-opacity="1" stop-color="rgb(31.427002%, 67.280579%, 85.00824%)" offset="0.171875"/><stop stop-opacity="1" stop-color="rgb(31.329346%, 66.943359%, 85.025024%)" offset="0.179687"/><stop stop-opacity="1" stop-color="rgb(31.230164%, 66.60614%, 85.040283%)" offset="0.1875"/><stop stop-opacity="1" stop-color="rgb(31.132507%, 66.268921%, 85.057068%)" offset="0.195312"/><stop stop-opacity="1" stop-color="rgb(31.034851%, 65.931702%, 85.072327%)" offset="0.203125"/><stop stop-opacity="1" stop-color="rgb(30.935669%, 65.594482%, 85.089111%)" offset="0.210938"/><stop stop-opacity="1" stop-color="rgb(30.838013%, 65.257263%, 85.105896%)" offset="0.21875"/><stop stop-opacity="1" stop-color="rgb(30.738831%, 64.920044%, 85.121155%)" offset="0.226562"/><stop stop-opacity="1" stop-color="rgb(30.641174%, 64.582825%, 85.137939%)" offset="0.234375"/><stop stop-opacity="1" stop-color="rgb(30.541992%, 64.245605%, 85.154724%)" offset="0.242188"/><stop stop-opacity="1" stop-color="rgb(30.444336%, 63.908386%, 85.169983%)" offset="0.25"/><stop stop-opacity="1" stop-color="rgb(30.34668%, 63.571167%, 85.186768%)" offset="0.257812"/><stop stop-opacity="1" stop-color="rgb(30.247498%, 63.233948%, 85.203552%)" offset="0.265625"/><stop stop-opacity="1" stop-color="rgb(30.149841%, 62.896729%, 85.218811%)" offset="0.273437"/><stop stop-opacity="1" stop-color="rgb(30.050659%, 62.559509%, 85.235596%)" offset="0.28125"/><stop stop-opacity="1" stop-color="rgb(29.953003%, 62.22229%, 85.25238%)" offset="0.289062"/><stop stop-opacity="1" stop-color="rgb(29.853821%, 61.885071%, 85.267639%)" offset="0.296875"/><stop stop-opacity="1" stop-color="rgb(29.756165%, 61.547852%, 85.284424%)" offset="0.304688"/><stop stop-opacity="1" stop-color="rgb(29.656982%, 61.210632%, 85.301208%)" offset="0.3125"/><stop stop-opacity="1" stop-color="rgb(29.559326%, 60.873413%, 85.316467%)" offset="0.320312"/><stop stop-opacity="1" stop-color="rgb(29.46167%, 60.536194%, 85.333252%)" offset="0.328125"/><stop stop-opacity="1" stop-color="rgb(29.362488%, 60.198975%, 85.350037%)" offset="0.335938"/><stop stop-opacity="1" stop-color="rgb(29.264832%, 59.861755%, 85.365295%)" offset="0.34375"/><stop stop-opacity="1" stop-color="rgb(29.165649%, 59.524536%, 85.38208%)" offset="0.351562"/><stop stop-opacity="1" stop-color="rgb(29.067993%, 59.187317%, 85.397339%)" offset="0.359375"/><stop stop-opacity="1" stop-color="rgb(28.968811%, 58.850098%, 85.414124%)" offset="0.367187"/><stop stop-opacity="1" stop-color="rgb(28.871155%, 58.512878%, 85.430908%)" offset="0.375"/><stop stop-opacity="1" stop-color="rgb(28.773499%, 58.175659%, 85.446167%)" offset="0.382812"/><stop stop-opacity="1" stop-color="rgb(28.674316%, 57.83844%, 85.462952%)" offset="0.390625"/><stop stop-opacity="1" stop-color="rgb(28.57666%, 57.501221%, 85.479736%)" offset="0.398438"/><stop stop-opacity="1" stop-color="rgb(28.477478%, 57.164001%, 85.494995%)" offset="0.40625"/><stop stop-opacity="1" stop-color="rgb(28.379822%, 56.826782%, 85.51178%)" offset="0.414062"/><stop stop-opacity="1" stop-color="rgb(28.28064%, 56.489563%, 85.528564%)" offset="0.421875"/><stop stop-opacity="1" stop-color="rgb(28.182983%, 56.152344%, 85.543823%)" offset="0.429688"/><stop stop-opacity="1" stop-color="rgb(28.085327%, 55.815125%, 85.560608%)" offset="0.436903"/><stop stop-opacity="1" stop-color="rgb(28.036499%, 55.647278%, 85.569763%)" offset="0.4375"/><stop stop-opacity="1" stop-color="rgb(27.986145%, 55.477905%, 85.577393%)" offset="0.445312"/><stop stop-opacity="1" stop-color="rgb(27.888489%, 55.140686%, 85.592651%)" offset="0.453125"/><stop stop-opacity="1" stop-color="rgb(27.789307%, 54.803467%, 85.609436%)" offset="0.460937"/><stop stop-opacity="1" stop-color="rgb(27.69165%, 54.466248%, 85.626221%)" offset="0.46875"/><stop stop-opacity="1" stop-color="rgb(27.592468%, 54.129028%, 85.641479%)" offset="0.476562"/><stop stop-opacity="1" stop-color="rgb(27.494812%, 53.791809%, 85.658264%)" offset="0.484375"/><stop stop-opacity="1" stop-color="rgb(27.39563%, 53.45459%, 85.675049%)" offset="0.492188"/><stop stop-opacity="1" stop-color="rgb(27.297974%, 53.117371%, 85.690308%)" offset="0.5"/><stop stop-opacity="1" stop-color="rgb(27.200317%, 52.780151%, 85.707092%)" offset="0.507812"/><stop stop-opacity="1" stop-color="rgb(27.101135%, 52.442932%, 85.723877%)" offset="0.515625"/><stop stop-opacity="1" stop-color="rgb(27.003479%, 52.105713%, 85.739136%)" offset="0.523437"/><stop stop-opacity="1" stop-color="rgb(26.904297%, 51.768494%, 85.75592%)" offset="0.53125"/><stop stop-opacity="1" stop-color="rgb(26.806641%, 51.431274%, 85.771179%)" offset="0.539062"/><stop stop-opacity="1" stop-color="rgb(26.707458%, 51.094055%, 85.787964%)" offset="0.546875"/><stop stop-opacity="1" stop-color="rgb(26.609802%, 50.756836%, 85.804749%)" offset="0.554688"/><stop stop-opacity="1" stop-color="rgb(26.512146%, 50.419617%, 85.820007%)" offset="0.5625"/><stop stop-opacity="1" stop-color="rgb(26.412964%, 50.082397%, 85.836792%)" offset="0.563097"/><stop stop-opacity="1" stop-color="rgb(26.364136%, 49.914551%, 85.845947%)" offset="0.570312"/><stop stop-opacity="1" stop-color="rgb(26.315308%, 49.745178%, 85.853577%)" offset="0.578125"/><stop stop-opacity="1" stop-color="rgb(26.216125%, 49.407959%, 85.868835%)" offset="0.585938"/><stop stop-opacity="1" stop-color="rgb(26.118469%, 49.07074%, 85.88562%)" offset="0.59375"/><stop stop-opacity="1" stop-color="rgb(26.019287%, 48.733521%, 85.902405%)" offset="0.601562"/><stop stop-opacity="1" stop-color="rgb(25.921631%, 48.396301%, 85.917664%)" offset="0.609375"/><stop stop-opacity="1" stop-color="rgb(25.823975%, 48.059082%, 85.934448%)" offset="0.617188"/><stop stop-opacity="1" stop-color="rgb(25.724792%, 47.721863%, 85.951233%)" offset="0.625"/><stop stop-opacity="1" stop-color="rgb(25.627136%, 47.384644%, 85.966492%)" offset="0.632812"/><stop stop-opacity="1" stop-color="rgb(25.527954%, 47.047424%, 85.983276%)" offset="0.640625"/><stop stop-opacity="1" stop-color="rgb(25.430298%, 46.710205%, 86.000061%)" offset="0.648438"/><stop stop-opacity="1" stop-color="rgb(25.331116%, 46.372986%, 86.01532%)" offset="0.65625"/><stop stop-opacity="1" stop-color="rgb(25.233459%, 46.035767%, 86.032104%)" offset="0.664063"/><stop stop-opacity="1" stop-color="rgb(25.134277%, 45.698547%, 86.048889%)" offset="0.671875"/><stop stop-opacity="1" stop-color="rgb(25.036621%, 45.361328%, 86.064148%)" offset="0.679688"/><stop stop-opacity="1" stop-color="rgb(24.938965%, 45.024109%, 86.080933%)" offset="0.6875"/><stop stop-opacity="1" stop-color="rgb(24.839783%, 44.68689%, 86.096191%)" offset="0.695312"/><stop stop-opacity="1" stop-color="rgb(24.742126%, 44.34967%, 86.112976%)" offset="0.703125"/><stop stop-opacity="1" stop-color="rgb(24.642944%, 44.012451%, 86.129761%)" offset="0.710937"/><stop stop-opacity="1" stop-color="rgb(24.545288%, 43.675232%, 86.14502%)" offset="0.71875"/><stop stop-opacity="1" stop-color="rgb(24.446106%, 43.338013%, 86.161804%)" offset="0.726562"/><stop stop-opacity="1" stop-color="rgb(24.34845%, 43.000793%, 86.178589%)" offset="0.734375"/><stop stop-opacity="1" stop-color="rgb(24.250793%, 42.663574%, 86.193848%)" offset="0.742187"/><stop stop-opacity="1" stop-color="rgb(24.151611%, 42.326355%, 86.210632%)" offset="0.75"/><stop stop-opacity="1" stop-color="rgb(24.053955%, 41.989136%, 86.227417%)" offset="0.757812"/><stop stop-opacity="1" stop-color="rgb(23.954773%, 41.651917%, 86.242676%)" offset="0.765625"/><stop stop-opacity="1" stop-color="rgb(23.857117%, 41.314697%, 86.25946%)" offset="0.773438"/><stop stop-opacity="1" stop-color="rgb(23.757935%, 40.977478%, 86.276245%)" offset="0.78125"/><stop stop-opacity="1" stop-color="rgb(23.660278%, 40.640259%, 86.291504%)" offset="0.789062"/><stop stop-opacity="1" stop-color="rgb(23.562622%, 40.30304%, 86.308289%)" offset="0.796875"/><stop stop-opacity="1" stop-color="rgb(23.46344%, 39.96582%, 86.325073%)" offset="0.804688"/><stop stop-opacity="1" stop-color="rgb(23.365784%, 39.628601%, 86.340332%)" offset="0.8125"/><stop stop-opacity="1" stop-color="rgb(23.266602%, 39.291382%, 86.357117%)" offset="0.820312"/><stop stop-opacity="1" stop-color="rgb(23.168945%, 38.954163%, 86.373901%)" offset="0.828125"/><stop stop-opacity="1" stop-color="rgb(23.069763%, 38.616943%, 86.38916%)" offset="0.835938"/><stop stop-opacity="1" stop-color="rgb(22.972107%, 38.279724%, 86.405945%)" offset="0.84375"/><stop stop-opacity="1" stop-color="rgb(22.872925%, 37.942505%, 86.421204%)" offset="0.851562"/><stop stop-opacity="1" stop-color="rgb(22.775269%, 37.605286%, 86.437988%)" offset="0.859375"/><stop stop-opacity="1" stop-color="rgb(22.677612%, 37.268066%, 86.454773%)" offset="0.867188"/><stop stop-opacity="1" stop-color="rgb(22.57843%, 36.930847%, 86.470032%)" offset="0.875"/><stop stop-opacity="1" stop-color="rgb(22.480774%, 36.593628%, 86.486816%)" offset="0.882812"/><stop stop-opacity="1" stop-color="rgb(22.381592%, 36.256409%, 86.503601%)" offset="0.890625"/><stop stop-opacity="1" stop-color="rgb(22.283936%, 35.919189%, 86.51886%)" offset="0.898437"/><stop stop-opacity="1" stop-color="rgb(22.184753%, 35.58197%, 86.535645%)" offset="0.90625"/><stop stop-opacity="1" stop-color="rgb(22.087097%, 35.244751%, 86.552429%)" offset="0.914062"/><stop stop-opacity="1" stop-color="rgb(21.989441%, 34.907532%, 86.567688%)" offset="0.921875"/><stop stop-opacity="1" stop-color="rgb(21.890259%, 34.570312%, 86.584473%)" offset="0.929687"/><stop stop-opacity="1" stop-color="rgb(21.792603%, 34.233093%, 86.601257%)" offset="0.9375"/><stop stop-opacity="1" stop-color="rgb(21.69342%, 33.895874%, 86.616516%)" offset="0.945312"/><stop stop-opacity="1" stop-color="rgb(21.595764%, 33.558655%, 86.633301%)" offset="0.953125"/><stop stop-opacity="1" stop-color="rgb(21.496582%, 33.221436%, 86.650085%)" offset="0.960938"/><stop stop-opacity="1" stop-color="rgb(21.398926%, 32.884216%, 86.665344%)" offset="0.96875"/><stop stop-opacity="1" stop-color="rgb(21.30127%, 32.546997%, 86.682129%)" offset="0.976562"/><stop stop-opacity="1" stop-color="rgb(21.224976%, 32.289124%, 86.694336%)" offset="0.984375"/><stop stop-opacity="1" stop-color="rgb(21.199036%, 32.199097%, 86.698914%)" offset="1"/></linearGradient></defs><g clip-path="url(#e086110e1d)"><g clip-path="url(#ffd4896be2)"><path fill="url(#22248f46ce)" d="M 302.195312 79.878906 L 302.195312 452.628906 L 674.945312 452.628906 L 674.945312 79.878906 Z M 302.195312 79.878906 " fill-rule="nonzero"/></g></g><g clip-path="url(#96ede7f3ae)"><g clip-path="url(#0577491cd0)"><path fill="url(#f557e1357b)" d="M 377.578125 180.136719 L 377.578125 352.375 L 599.566406 352.375 L 599.566406 180.136719 Z M 377.578125 180.136719 " fill-rule="nonzero"/></g></g></svg>