<svg xmlns="http://www.w3.org/2000/svg" xmlns:xlink="http://www.w3.org/1999/xlink" width="1366" zoomAndPan="magnify" viewBox="0 0 1024.5 576" height="768" preserveAspectRatio="xMidYMid meet" version="1.0"><defs><clipPath id="b4e2d62adf"><path d="M 364.761719 92.703125 L 566 92.703125 L 566 357 L 364.761719 357 Z M 364.761719 92.703125 " clip-rule="nonzero"/></clipPath><clipPath id="eb2fc80e8d"><path d="M 515 312 L 616.011719 312 L 616.011719 375.453125 L 515 375.453125 Z M 515 312 " clip-rule="nonzero"/></clipPath></defs><g clip-path="url(#b4e2d62adf)"><path fill="#0c7238" d="M 565.761719 356.582031 L 364.761719 356.582031 L 364.761719 92.726562 L 502.949219 92.726562 L 565.761719 155.550781 Z M 565.761719 356.582031 " fill-opacity="1" fill-rule="nonzero"/></g><path fill="#dcedc8" d="M 556.339844 161.832031 L 496.667969 161.832031 L 496.667969 102.148438 Z M 556.339844 161.832031 " fill-opacity="1" fill-rule="nonzero"/><path fill="#43a047" d="M 565.761719 356.582031 L 565.761719 256.066406 L 534.355469 256.066406 L 534.355469 300.042969 L 502.949219 300.042969 L 502.949219 317.003906 L 534.605469 356.582031 Z M 565.761719 356.582031 " fill-opacity="1" fill-rule="nonzero"/><g clip-path="url(#eb2fc80e8d)"><path fill="#455a64" d="M 616.011719 312.605469 L 515.511719 312.605469 L 565.761719 375.429688 Z M 616.011719 312.605469 " fill-opacity="1" fill-rule="nonzero"/></g><path fill="#455a64" d="M 546.917969 268.628906 L 584.605469 268.628906 L 584.605469 344.019531 L 546.917969 344.019531 Z M 546.917969 268.628906 " fill-opacity="1" fill-rule="nonzero"/><path fill="#ffffff" d="M 423.121094 180.679688 L 447.101562 180.679688 L 466.5625 218.410156 L 487.121094 180.679688 L 509.519531 180.679688 L 478.652344 230.9375 L 510.222656 281.195312 L 486.59375 281.195312 L 465.386719 241.691406 L 444.277344 281.195312 L 420.292969 281.195312 L 452.382812 230.753906 Z M 423.121094 180.679688 " fill-opacity="1" fill-rule="nonzero"/></svg>