<svg xmlns="http://www.w3.org/2000/svg" xmlns:xlink="http://www.w3.org/1999/xlink" width="1366" zoomAndPan="magnify" viewBox="0 0 1024.5 576" height="768" preserveAspectRatio="xMidYMid meet" version="1.0"><defs><clipPath id="c636b53e4c"><path d="M 468 47.425781 L 551 47.425781 L 551 52 L 468 52 Z M 468 47.425781 " clip-rule="nonzero"/></clipPath><clipPath id="1484262627"><path d="M 288.8125 161 L 317 161 L 317 357 L 288.8125 357 Z M 288.8125 161 " clip-rule="nonzero"/></clipPath><clipPath id="a1ce6cc7bf"><path d="M 630 83 L 729.8125 83 L 729.8125 355 L 630 355 Z M 630 83 " clip-rule="nonzero"/></clipPath><clipPath id="908861d339"><path d="M 458 482 L 550 482 L 550 488.425781 L 458 488.425781 Z M 458 482 " clip-rule="nonzero"/></clipPath><clipPath id="ea2ee7bb4a"><path d="M 307.519531 356.660156 L 549.816406 356.660156 L 549.816406 369.882812 L 307.519531 369.882812 Z M 307.519531 356.660156 " clip-rule="nonzero"/></clipPath><clipPath id="98d0972f67"><path d="M 542.664062 369.6875 L 313.648438 369.6875 C 311.480469 365.53125 309.445312 361.296875 307.542969 356.992188 L 549.453125 356.992188 C 549.453125 360.109375 549.453125 363.230469 549.453125 366.347656 C 547.214844 367.460938 544.953125 368.574219 542.664062 369.6875 " clip-rule="nonzero"/></clipPath></defs><g clip-path="url(#c636b53e4c)"><path fill="#79c2ed" d="M 509.289062 47.417969 C 495.367188 47.417969 481.75 48.707031 468.542969 51.175781 L 550.035156 51.175781 C 536.828125 48.707031 523.210938 47.417969 509.289062 47.417969 " fill-opacity="1" fill-rule="nonzero"/></g><g clip-path="url(#1484262627)"><path fill="#79c2ed" d="M 316.214844 161.347656 C 298.746094 192.933594 288.796875 229.257812 288.796875 267.90625 C 288.796875 278.539062 289.554688 288.996094 291.007812 299.230469 C 291.589844 303.324219 292.289062 307.386719 293.09375 311.40625 C 293.113281 311.511719 293.132812 311.613281 293.152344 311.71875 C 293.292969 312.40625 293.433594 313.09375 293.582031 313.78125 C 293.613281 313.9375 293.648438 314.097656 293.679688 314.253906 C 293.824219 314.917969 293.96875 315.574219 294.113281 316.234375 C 294.15625 316.414062 294.195312 316.59375 294.234375 316.773438 C 294.382812 317.421875 294.53125 318.070312 294.683594 318.710938 C 294.726562 318.898438 294.773438 319.082031 294.816406 319.265625 C 294.96875 319.914062 295.128906 320.558594 295.289062 321.203125 C 295.328125 321.375 295.375 321.546875 295.417969 321.71875 C 295.582031 322.378906 295.75 323.039062 295.921875 323.695312 C 295.957031 323.832031 295.992188 323.96875 296.027344 324.105469 C 296.210938 324.800781 296.394531 325.496094 296.585938 326.1875 C 296.597656 326.234375 296.613281 326.28125 296.625 326.332031 C 297.695312 330.242188 298.875 334.113281 300.152344 337.933594 C 300.171875 337.984375 300.1875 338.039062 300.207031 338.089844 C 300.433594 338.765625 300.664062 339.4375 300.894531 340.105469 C 300.941406 340.242188 300.988281 340.378906 301.035156 340.511719 C 301.257812 341.144531 301.480469 341.777344 301.707031 342.40625 C 301.765625 342.574219 301.828125 342.742188 301.886719 342.914062 C 302.109375 343.523438 302.332031 344.132812 302.558594 344.742188 C 302.628906 344.925781 302.695312 345.109375 302.765625 345.292969 C 302.992188 345.894531 303.21875 346.496094 303.453125 347.097656 C 303.519531 347.277344 303.589844 347.457031 303.660156 347.632812 C 303.894531 348.246094 304.132812 348.851562 304.375 349.460938 C 304.4375 349.617188 304.5 349.773438 304.5625 349.925781 C 304.816406 350.558594 305.070312 351.1875 305.328125 351.8125 C 305.371094 351.921875 305.414062 352.023438 305.460938 352.128906 C 306.132812 353.761719 306.828125 355.382812 307.542969 356.992188 L 316.214844 356.992188 L 316.214844 161.347656 " fill-opacity="1" fill-rule="nonzero"/></g><g clip-path="url(#a1ce6cc7bf)"><path fill="#79c2ed" d="M 630.15625 83.464844 L 630.15625 167.058594 C 631.058594 167.0625 631.964844 167.0625 632.871094 167.066406 C 633.164062 167.070312 633.457031 167.074219 633.746094 167.074219 C 635.003906 167.085938 636.257812 167.09375 637.515625 167.109375 C 637.992188 167.117188 638.464844 167.125 638.945312 167.132812 C 640.015625 167.148438 641.089844 167.160156 642.167969 167.183594 C 642.714844 167.191406 643.261719 167.203125 643.808594 167.214844 C 644.8125 167.234375 645.816406 167.257812 646.816406 167.28125 C 647.402344 167.292969 647.988281 167.3125 648.570312 167.324219 C 649.539062 167.351562 650.507812 167.378906 651.472656 167.40625 C 652.082031 167.425781 652.683594 167.445312 653.289062 167.464844 C 654.234375 167.496094 655.179688 167.527344 656.128906 167.5625 C 656.75 167.585938 657.367188 167.609375 657.988281 167.632812 C 658.921875 167.667969 659.851562 167.707031 660.785156 167.746094 C 661.414062 167.773438 662.042969 167.800781 662.667969 167.828125 C 663.597656 167.871094 664.523438 167.914062 665.449219 167.957031 C 666.078125 167.988281 666.707031 168.019531 667.339844 168.050781 C 668.265625 168.097656 669.195312 168.148438 670.121094 168.199219 C 670.746094 168.234375 671.371094 168.269531 671.996094 168.304688 C 672.933594 168.355469 673.871094 168.414062 674.808594 168.46875 C 675.421875 168.507812 676.03125 168.542969 676.640625 168.582031 C 677.597656 168.640625 678.554688 168.707031 679.511719 168.769531 C 680.105469 168.808594 680.699219 168.847656 681.292969 168.886719 C 682.277344 168.957031 683.261719 169.027344 684.246094 169.097656 C 684.808594 169.140625 685.371094 169.179688 685.933594 169.222656 C 686.972656 169.300781 688.011719 169.382812 689.042969 169.464844 C 689.558594 169.503906 690.066406 169.542969 690.574219 169.585938 C 691.707031 169.679688 692.84375 169.773438 693.980469 169.871094 C 694.390625 169.90625 694.800781 169.941406 695.210938 169.976562 C 696.605469 170.097656 697.992188 170.222656 699.386719 170.351562 C 699.539062 170.367188 699.691406 170.378906 699.84375 170.394531 C 699.914062 170.402344 699.984375 170.40625 700.054688 170.414062 C 701.558594 170.554688 703.070312 170.699219 704.574219 170.851562 C 705.824219 170.972656 706.859375 172.191406 706.878906 173.550781 C 706.878906 190.636719 706.878906 207.722656 706.878906 224.808594 L 710.988281 224.808594 C 712.234375 224.808594 713.277344 225.6875 713.296875 226.761719 L 712.273438 354.152344 C 712.558594 353.484375 712.839844 352.808594 713.117188 352.136719 C 713.160156 352.027344 713.207031 351.921875 713.253906 351.8125 C 713.511719 351.1875 713.765625 350.558594 714.011719 349.933594 C 714.078125 349.773438 714.140625 349.617188 714.203125 349.457031 C 714.449219 348.851562 714.6875 348.242188 714.921875 347.632812 C 714.988281 347.457031 715.058594 347.277344 715.128906 347.101562 C 715.359375 346.5 715.589844 345.894531 715.816406 345.289062 C 715.882812 345.109375 715.949219 344.925781 716.019531 344.746094 C 716.246094 344.136719 716.472656 343.527344 716.6875 342.914062 C 716.753906 342.742188 716.8125 342.574219 716.875 342.402344 C 717.101562 341.773438 717.324219 341.144531 717.546875 340.515625 C 717.589844 340.378906 717.636719 340.238281 717.6875 340.101562 C 717.917969 339.433594 718.148438 338.761719 718.375 338.09375 C 718.394531 338.039062 718.410156 337.980469 718.429688 337.921875 C 719.707031 334.105469 720.882812 330.238281 721.957031 326.332031 C 721.964844 326.28125 721.984375 326.234375 721.992188 326.1875 C 722.183594 325.496094 722.367188 324.796875 722.554688 324.101562 C 722.589844 323.964844 722.625 323.832031 722.660156 323.699219 C 722.832031 323.039062 722.996094 322.378906 723.164062 321.722656 C 723.207031 321.546875 723.25 321.375 723.292969 321.203125 C 723.453125 320.558594 723.613281 319.914062 723.761719 319.265625 C 723.8125 319.082031 723.851562 318.898438 723.894531 318.710938 C 724.046875 318.066406 724.199219 317.421875 724.34375 316.773438 C 724.386719 316.59375 724.425781 316.414062 724.46875 316.230469 C 724.609375 315.574219 724.757812 314.917969 724.898438 314.257812 C 724.929688 314.097656 724.964844 313.9375 725 313.777344 C 725.144531 313.089844 725.289062 312.40625 725.425781 311.71875 C 725.445312 311.613281 725.464844 311.511719 725.488281 311.40625 C 726.292969 307.386719 726.988281 303.324219 727.570312 299.230469 C 729.027344 288.996094 729.785156 278.539062 729.785156 267.90625 C 729.785156 190.757812 690.160156 122.867188 630.15625 83.464844 " fill-opacity="1" fill-rule="nonzero"/></g><path fill="#e9eae9" d="M 339.277344 219.210938 L 430.792969 219.210938 L 430.792969 207.421875 L 333.824219 207.421875 L 333.824219 219.210938 L 339.277344 219.210938 " fill-opacity="1" fill-rule="nonzero"/><path fill="#e9eae9" d="M 339.277344 240.503906 L 430.792969 240.503906 L 430.792969 230.617188 L 333.824219 230.617188 L 333.824219 240.503906 L 339.277344 240.503906 " fill-opacity="1" fill-rule="nonzero"/><path fill="#e9eae9" d="M 556.488281 170.394531 C 556.640625 170.378906 556.792969 170.367188 556.949219 170.351562 C 558.335938 170.222656 559.730469 170.097656 561.121094 169.976562 C 561.53125 169.941406 561.941406 169.90625 562.351562 169.871094 C 563.488281 169.773438 564.621094 169.679688 565.757812 169.585938 C 566.269531 169.542969 566.777344 169.503906 567.285156 169.464844 C 568.324219 169.382812 569.359375 169.300781 570.398438 169.222656 C 570.960938 169.179688 571.523438 169.140625 572.085938 169.097656 C 573.070312 169.027344 574.054688 168.957031 575.039062 168.886719 C 575.632812 168.847656 576.226562 168.808594 576.820312 168.769531 C 577.777344 168.707031 578.734375 168.640625 579.691406 168.582031 C 580.300781 168.542969 580.914062 168.507812 581.527344 168.46875 C 582.464844 168.414062 583.398438 168.355469 584.335938 168.304688 C 584.960938 168.269531 585.589844 168.234375 586.214844 168.199219 C 587.140625 168.148438 588.070312 168.097656 588.996094 168.050781 C 589.625 168.019531 590.253906 167.988281 590.882812 167.957031 C 591.8125 167.914062 592.738281 167.871094 593.664062 167.828125 C 594.292969 167.800781 594.917969 167.773438 595.546875 167.746094 C 596.480469 167.707031 597.414062 167.667969 598.34375 167.632812 C 598.964844 167.609375 599.585938 167.585938 600.203125 167.5625 C 601.148438 167.527344 602.097656 167.496094 603.042969 167.464844 C 603.367188 167.457031 603.695312 167.441406 604.023438 167.433594 L 604.023438 131.367188 L 333.824219 131.367188 L 333.824219 180.421875 L 549.453125 180.421875 C 549.453125 178.132812 549.453125 175.839844 549.453125 173.550781 C 549.472656 172.191406 550.511719 170.972656 551.757812 170.851562 C 553.265625 170.699219 554.773438 170.554688 556.277344 170.414062 C 556.347656 170.40625 556.417969 170.402344 556.488281 170.394531 " fill-opacity="1" fill-rule="nonzero"/><path fill="#e9eae9" d="M 339.65625 296.054688 L 430.792969 296.054688 L 430.792969 283.855469 L 333.824219 283.855469 L 333.824219 296.054688 L 339.65625 296.054688 " fill-opacity="1" fill-rule="nonzero"/><path fill="#e9eae9" d="M 339.277344 251.152344 L 430.792969 251.152344 L 430.792969 241.265625 L 333.824219 241.265625 L 333.824219 251.152344 L 339.277344 251.152344 " fill-opacity="1" fill-rule="nonzero"/><path fill="#e9eae9" d="M 339.277344 261.800781 L 430.792969 261.800781 L 430.792969 251.914062 L 333.824219 251.914062 L 333.824219 261.800781 L 339.277344 261.800781 " fill-opacity="1" fill-rule="nonzero"/><path fill="#e9eae9" d="M 339.277344 283.097656 L 430.792969 283.097656 L 430.792969 273.207031 L 333.824219 273.207031 L 333.824219 283.097656 L 339.277344 283.097656 " fill-opacity="1" fill-rule="nonzero"/><path fill="#e9eae9" d="M 604.023438 130.609375 L 604.023438 98.324219 L 450.269531 98.324219 L 450.269531 130.609375 L 604.023438 130.609375 " fill-opacity="1" fill-rule="nonzero"/><path fill="#e9eae9" d="M 339.277344 130.609375 L 449.507812 130.609375 L 449.507812 98.324219 L 333.824219 98.324219 L 333.824219 130.609375 L 339.277344 130.609375 " fill-opacity="1" fill-rule="nonzero"/><path fill="#e9eae9" d="M 339.277344 272.449219 L 430.792969 272.449219 L 430.792969 262.5625 L 333.824219 262.5625 L 333.824219 272.449219 L 339.277344 272.449219 " fill-opacity="1" fill-rule="nonzero"/><path fill="#e9eae9" d="M 428.726562 64.796875 L 442.691406 64.796875 L 442.691406 67.71875 L 434.519531 67.71875 L 434.519531 91.417969 L 431.027344 91.417969 L 431.027344 67.71875 L 422.894531 67.71875 L 422.894531 64.796875 L 428.726562 64.796875 M 472.273438 71.035156 C 473.261719 72.773438 474.015625 74.121094 474.730469 75.539062 L 474.851562 75.539062 C 475.605469 73.960938 476.277344 72.734375 477.269531 71.035156 L 480.921875 64.796875 L 484.890625 64.796875 L 476.753906 77.753906 L 485.085938 91.417969 L 481.082031 91.417969 L 477.667969 85.535156 C 476.277344 83.28125 475.40625 81.820312 474.574219 80.28125 L 474.496094 80.28125 C 473.738281 81.820312 472.984375 83.242188 471.597656 85.574219 L 468.382812 91.417969 L 464.414062 91.417969 L 472.589844 77.949219 L 464.734375 64.796875 L 468.738281 64.796875 L 472.273438 71.035156 M 490.722656 64.796875 L 503.550781 64.796875 L 503.550781 67.679688 L 492.558594 67.679688 L 492.558594 76.09375 L 502.953125 76.09375 L 502.953125 78.9375 L 492.558594 78.9375 L 492.558594 88.539062 L 504.144531 88.539062 L 504.144531 91.417969 L 489.109375 91.417969 L 489.109375 64.796875 L 490.722656 64.796875 M 516.492188 64.363281 C 519.230469 64.363281 521.214844 64.996094 522.40625 65.664062 L 521.453125 68.46875 C 520.582031 67.992188 518.796875 67.203125 516.375 67.203125 C 512.726562 67.203125 511.335938 69.378906 511.335938 71.195312 C 511.335938 73.683594 512.960938 74.90625 516.652344 76.328125 C 521.175781 78.066406 523.476562 80.242188 523.476562 84.148438 C 523.476562 88.261719 520.421875 91.816406 514.113281 91.816406 C 511.535156 91.816406 508.71875 91.066406 507.289062 90.117188 L 508.160156 87.234375 C 509.710938 88.183594 511.96875 88.972656 514.351562 88.972656 C 517.882812 88.972656 519.945312 87.117188 519.945312 84.429688 C 519.945312 81.941406 518.515625 80.515625 514.90625 79.136719 C 510.542969 77.59375 507.84375 75.34375 507.84375 71.589844 C 507.84375 67.441406 511.296875 64.363281 516.492188 64.363281 M 459.367188 91.417969 L 456.507812 83.046875 L 447.023438 83.046875 L 444.25 91.417969 L 440.675781 91.417969 L 449.761719 64.796875 L 453.929688 64.796875 L 463.054688 91.417969 L 459.367188 91.417969 M 336.308594 349.539062 L 541.390625 349.539062 L 541.390625 356.382812 L 336.308594 356.382812 L 336.308594 349.539062 M 549.453125 356.992188 C 549.453125 351.835938 549.453125 346.679688 549.453125 341.527344 L 398.175781 341.527344 L 398.175781 334.679688 L 549.453125 334.679688 C 549.453125 332.007812 549.453125 329.335938 549.453125 326.664062 L 385 326.664062 L 385 319.820312 L 549.453125 319.820312 C 549.453125 312.152344 549.453125 304.484375 549.453125 296.816406 L 333.0625 296.816406 L 333.0625 97.5625 L 604.785156 97.5625 L 604.785156 167.410156 L 604.859375 167.40625 C 605.824219 167.378906 606.792969 167.351562 607.761719 167.324219 C 608.347656 167.3125 608.929688 167.292969 609.515625 167.28125 C 610.519531 167.257812 611.519531 167.234375 612.523438 167.214844 C 613.070312 167.203125 613.617188 167.191406 614.167969 167.183594 C 615.242188 167.160156 616.316406 167.148438 617.390625 167.132812 C 617.867188 167.125 618.34375 167.117188 618.816406 167.109375 C 620.074219 167.09375 621.328125 167.085938 622.585938 167.074219 C 622.878906 167.074219 623.171875 167.070312 623.464844 167.066406 C 625.695312 167.054688 627.925781 167.050781 630.15625 167.058594 L 630.15625 51.175781 L 316.214844 51.175781 L 316.214844 356.992188 L 549.453125 356.992188 " fill-opacity="1" fill-rule="nonzero"/><path fill="#e9eae9" d="M 339.277344 229.859375 L 430.792969 229.859375 L 430.792969 219.972656 L 333.824219 219.972656 L 333.824219 229.859375 L 339.277344 229.859375 " fill-opacity="1" fill-rule="nonzero"/><path fill="#e9eae9" d="M 339.277344 181.183594 L 333.824219 181.183594 L 333.824219 206.660156 L 549.453125 206.660156 C 549.453125 198.167969 549.453125 189.675781 549.453125 181.183594 L 339.277344 181.183594 " fill-opacity="1" fill-rule="nonzero"/><path fill="#e9eae9" d="M 431.554688 262.5625 L 431.554688 272.449219 L 549.453125 272.449219 C 549.453125 269.152344 549.453125 265.855469 549.453125 262.5625 L 431.554688 262.5625 " fill-opacity="1" fill-rule="nonzero"/><path fill="#e9eae9" d="M 431.554688 273.207031 L 431.554688 283.097656 L 549.453125 283.097656 C 549.453125 279.800781 549.453125 276.503906 549.453125 273.207031 L 431.554688 273.207031 " fill-opacity="1" fill-rule="nonzero"/><path fill="#e9eae9" d="M 431.554688 283.855469 L 431.554688 296.054688 L 549.453125 296.054688 C 549.453125 291.988281 549.453125 287.921875 549.453125 283.855469 L 431.554688 283.855469 " fill-opacity="1" fill-rule="nonzero"/><path fill="#e9eae9" d="M 431.554688 251.914062 L 431.554688 261.800781 L 549.453125 261.800781 C 549.453125 258.503906 549.453125 255.207031 549.453125 251.914062 L 431.554688 251.914062 " fill-opacity="1" fill-rule="nonzero"/><path fill="#e9eae9" d="M 431.554688 207.421875 L 431.554688 219.210938 L 549.453125 219.210938 C 549.453125 215.28125 549.453125 211.351562 549.453125 207.421875 L 431.554688 207.421875 " fill-opacity="1" fill-rule="nonzero"/><path fill="#e9eae9" d="M 431.554688 241.265625 L 431.554688 251.152344 L 549.453125 251.152344 C 549.453125 247.855469 549.453125 244.5625 549.453125 241.265625 L 431.554688 241.265625 " fill-opacity="1" fill-rule="nonzero"/><path fill="#e9eae9" d="M 431.554688 230.617188 L 431.554688 240.503906 L 549.453125 240.503906 C 549.453125 237.210938 549.453125 233.914062 549.453125 230.617188 L 431.554688 230.617188 " fill-opacity="1" fill-rule="nonzero"/><path fill="#e9eae9" d="M 431.554688 219.972656 L 431.554688 229.859375 L 549.453125 229.859375 C 549.453125 226.5625 549.453125 223.265625 549.453125 219.972656 L 431.554688 219.972656 " fill-opacity="1" fill-rule="nonzero"/><path fill="#e9eae9" d="M 453.175781 72.695312 C 452.582031 70.957031 452.183594 69.378906 451.789062 67.835938 L 451.707031 67.835938 C 451.3125 69.417969 450.875 71.035156 450.359375 72.65625 L 447.738281 80.359375 L 455.792969 80.359375 L 453.175781 72.695312 " fill-opacity="1" fill-rule="nonzero"/><path fill="#65686d" d="M 431.554688 296.054688 L 431.554688 296.4375 L 430.792969 296.4375 L 430.792969 296.054688 L 333.824219 296.054688 L 333.824219 283.855469 L 333.441406 283.855469 L 333.441406 283.097656 L 333.824219 283.097656 L 333.824219 273.207031 L 333.441406 273.207031 L 333.441406 272.449219 L 333.824219 272.449219 L 333.824219 262.5625 L 333.441406 262.5625 L 333.441406 261.800781 L 333.824219 261.800781 L 333.824219 251.914062 L 333.441406 251.914062 L 333.441406 251.152344 L 333.824219 251.152344 L 333.824219 241.265625 L 333.441406 241.265625 L 333.441406 240.503906 L 333.824219 240.503906 L 333.824219 230.617188 L 333.441406 230.617188 L 333.441406 229.859375 L 333.824219 229.859375 L 333.824219 219.972656 L 333.441406 219.972656 L 333.441406 219.210938 L 333.824219 219.210938 L 333.824219 207.421875 L 333.441406 207.421875 L 333.441406 206.660156 L 333.824219 206.660156 L 333.824219 181.183594 L 333.441406 181.183594 L 333.441406 180.421875 L 333.824219 180.421875 L 333.824219 131.367188 L 333.441406 131.367188 L 333.441406 130.609375 L 333.824219 130.609375 L 333.824219 98.324219 L 449.507812 98.324219 L 449.507812 97.945312 L 450.269531 97.945312 L 450.269531 98.324219 L 604.023438 98.324219 L 604.023438 130.609375 L 604.402344 130.609375 L 604.402344 131.367188 L 604.023438 131.367188 L 604.023438 167.433594 C 604.277344 167.425781 604.53125 167.417969 604.785156 167.410156 L 604.785156 97.5625 L 333.0625 97.5625 L 333.0625 296.816406 L 549.453125 296.816406 C 549.453125 296.5625 549.453125 296.308594 549.453125 296.054688 L 431.554688 296.054688 " fill-opacity="1" fill-rule="nonzero"/><path fill="#65686d" d="M 604.402344 130.609375 L 450.269531 130.609375 L 450.269531 130.988281 L 449.507812 130.988281 L 449.507812 130.609375 L 333.441406 130.609375 L 333.441406 131.367188 L 604.402344 131.367188 L 604.402344 130.609375 " fill-opacity="1" fill-rule="nonzero"/><path fill="#65686d" d="M 449.507812 130.988281 L 450.269531 130.988281 L 450.269531 97.945312 L 449.507812 97.945312 L 449.507812 130.988281 " fill-opacity="1" fill-rule="nonzero"/><path fill="#65686d" d="M 339.277344 180.421875 L 333.441406 180.421875 L 333.441406 181.183594 L 549.453125 181.183594 C 549.453125 180.929688 549.453125 180.675781 549.453125 180.421875 L 339.277344 180.421875 " fill-opacity="1" fill-rule="nonzero"/><path fill="#65686d" d="M 339.277344 206.660156 L 333.441406 206.660156 L 333.441406 207.421875 L 430.792969 207.421875 L 430.792969 207.042969 L 431.554688 207.042969 L 431.554688 207.421875 L 549.453125 207.421875 C 549.453125 207.167969 549.453125 206.914062 549.453125 206.660156 L 339.277344 206.660156 " fill-opacity="1" fill-rule="nonzero"/><path fill="#65686d" d="M 431.554688 272.449219 L 431.554688 262.5625 L 430.792969 262.5625 L 430.792969 272.449219 L 431.554688 272.449219 " fill-opacity="1" fill-rule="nonzero"/><path fill="#65686d" d="M 431.554688 261.800781 L 431.554688 251.914062 L 430.792969 251.914062 L 430.792969 261.800781 L 431.554688 261.800781 " fill-opacity="1" fill-rule="nonzero"/><path fill="#65686d" d="M 431.554688 240.503906 L 431.554688 230.617188 L 430.792969 230.617188 L 430.792969 240.503906 L 431.554688 240.503906 " fill-opacity="1" fill-rule="nonzero"/><path fill="#65686d" d="M 431.554688 229.859375 L 431.554688 219.972656 L 430.792969 219.972656 L 430.792969 229.859375 L 431.554688 229.859375 " fill-opacity="1" fill-rule="nonzero"/><path fill="#65686d" d="M 431.554688 219.210938 L 431.554688 207.042969 L 430.792969 207.042969 L 430.792969 219.210938 L 431.554688 219.210938 " fill-opacity="1" fill-rule="nonzero"/><path fill="#65686d" d="M 431.554688 251.152344 L 431.554688 241.265625 L 430.792969 241.265625 L 430.792969 251.152344 L 431.554688 251.152344 " fill-opacity="1" fill-rule="nonzero"/><path fill="#65686d" d="M 431.554688 283.097656 L 431.554688 273.207031 L 430.792969 273.207031 L 430.792969 283.097656 L 431.554688 283.097656 " fill-opacity="1" fill-rule="nonzero"/><path fill="#65686d" d="M 430.792969 296.4375 L 431.554688 296.4375 L 431.554688 283.855469 L 430.792969 283.855469 L 430.792969 296.4375 " fill-opacity="1" fill-rule="nonzero"/><path fill="#65686d" d="M 431.554688 219.210938 L 333.441406 219.210938 L 333.441406 219.972656 L 549.453125 219.972656 C 549.453125 219.71875 549.453125 219.464844 549.453125 219.210938 L 431.554688 219.210938 " fill-opacity="1" fill-rule="nonzero"/><path fill="#65686d" d="M 431.554688 229.859375 L 333.441406 229.859375 L 333.441406 230.617188 L 549.453125 230.617188 C 549.453125 230.363281 549.453125 230.113281 549.453125 229.859375 L 431.554688 229.859375 " fill-opacity="1" fill-rule="nonzero"/><path fill="#65686d" d="M 431.554688 240.503906 L 333.441406 240.503906 L 333.441406 241.265625 L 549.453125 241.265625 C 549.453125 241.011719 549.453125 240.757812 549.453125 240.503906 L 431.554688 240.503906 " fill-opacity="1" fill-rule="nonzero"/><path fill="#65686d" d="M 431.554688 251.152344 L 333.441406 251.152344 L 333.441406 251.914062 L 549.453125 251.914062 C 549.453125 251.660156 549.453125 251.40625 549.453125 251.152344 L 431.554688 251.152344 " fill-opacity="1" fill-rule="nonzero"/><path fill="#65686d" d="M 431.554688 261.800781 L 333.441406 261.800781 L 333.441406 262.5625 L 549.453125 262.5625 C 549.453125 262.308594 549.453125 262.054688 549.453125 261.800781 L 431.554688 261.800781 " fill-opacity="1" fill-rule="nonzero"/><path fill="#65686d" d="M 431.554688 272.449219 L 333.441406 272.449219 L 333.441406 273.207031 L 549.453125 273.207031 C 549.453125 272.953125 549.453125 272.703125 549.453125 272.449219 L 431.554688 272.449219 " fill-opacity="1" fill-rule="nonzero"/><path fill="#65686d" d="M 431.554688 283.097656 L 333.441406 283.097656 L 333.441406 283.855469 L 549.453125 283.855469 C 549.453125 283.601562 549.453125 283.351562 549.453125 283.097656 L 431.554688 283.097656 " fill-opacity="1" fill-rule="nonzero"/><path fill="#bbbcbd" d="M 385 319.820312 L 385 326.664062 L 549.453125 326.664062 C 549.453125 324.382812 549.453125 322.101562 549.453125 319.820312 L 385 319.820312 " fill-opacity="1" fill-rule="nonzero"/><path fill="#bbbcbd" d="M 398.175781 334.679688 L 398.175781 341.527344 L 549.453125 341.527344 C 549.453125 339.242188 549.453125 336.960938 549.453125 334.679688 L 398.175781 334.679688 " fill-opacity="1" fill-rule="nonzero"/><path fill="#bbbcbd" d="M 541.390625 356.382812 L 541.390625 349.539062 L 336.308594 349.539062 L 336.308594 356.382812 L 541.390625 356.382812 " fill-opacity="1" fill-rule="nonzero"/><path fill="#100f0d" d="M 422.894531 67.71875 L 431.027344 67.71875 L 431.027344 91.417969 L 434.519531 91.417969 L 434.519531 67.71875 L 442.691406 67.71875 L 442.691406 64.796875 L 422.894531 64.796875 L 422.894531 67.71875 " fill-opacity="1" fill-rule="nonzero"/><path fill="#100f0d" d="M 453.574219 80.359375 L 447.738281 80.359375 L 450.359375 72.65625 C 450.875 71.035156 451.3125 69.417969 451.707031 67.835938 L 451.789062 67.835938 C 452.183594 69.378906 452.582031 70.957031 453.175781 72.695312 L 455.792969 80.359375 Z M 453.929688 64.796875 L 449.761719 64.796875 L 440.675781 91.417969 L 444.25 91.417969 L 447.023438 83.046875 L 456.507812 83.046875 L 459.367188 91.417969 L 463.054688 91.417969 L 453.929688 64.796875 " fill-opacity="1" fill-rule="nonzero"/><path fill="#100f0d" d="M 472.589844 77.949219 L 464.414062 91.417969 L 468.382812 91.417969 L 471.597656 85.574219 C 472.984375 83.242188 473.742188 81.820312 474.496094 80.28125 L 474.574219 80.28125 C 475.40625 81.820312 476.28125 83.28125 477.667969 85.535156 L 481.082031 91.417969 L 485.085938 91.417969 L 476.753906 77.753906 L 484.890625 64.796875 L 480.921875 64.796875 L 477.269531 71.035156 C 476.28125 72.734375 475.605469 73.960938 474.851562 75.539062 L 474.730469 75.539062 C 474.015625 74.121094 473.261719 72.773438 472.273438 71.035156 L 468.738281 64.796875 L 464.734375 64.796875 L 472.589844 77.949219 " fill-opacity="1" fill-rule="nonzero"/><path fill="#100f0d" d="M 489.109375 91.417969 L 504.144531 91.417969 L 504.144531 88.539062 L 492.558594 88.539062 L 492.558594 78.9375 L 502.953125 78.9375 L 502.953125 76.09375 L 492.558594 76.09375 L 492.558594 67.679688 L 503.550781 67.679688 L 503.550781 64.796875 L 489.109375 64.796875 L 489.109375 91.417969 " fill-opacity="1" fill-rule="nonzero"/><path fill="#100f0d" d="M 507.84375 71.589844 C 507.84375 75.34375 510.542969 77.59375 514.90625 79.136719 C 518.515625 80.515625 519.945312 81.941406 519.945312 84.429688 C 519.945312 87.117188 517.882812 88.972656 514.351562 88.972656 C 511.96875 88.972656 509.710938 88.183594 508.160156 87.234375 L 507.289062 90.117188 C 508.71875 91.066406 511.535156 91.816406 514.113281 91.816406 C 520.421875 91.816406 523.476562 88.261719 523.476562 84.148438 C 523.476562 80.242188 521.175781 78.066406 516.652344 76.328125 C 512.960938 74.90625 511.335938 73.683594 511.335938 71.195312 C 511.335938 69.378906 512.726562 67.203125 516.375 67.203125 C 518.796875 67.203125 520.582031 67.992188 521.453125 68.46875 L 522.40625 65.664062 C 521.214844 64.992188 519.230469 64.363281 516.492188 64.363281 C 511.296875 64.363281 507.84375 67.441406 507.84375 71.589844 " fill-opacity="1" fill-rule="nonzero"/><g clip-path="url(#908861d339)"><path fill="#e5f2cf" d="M 549.453125 482.589844 L 458.800781 482.589844 C 475.015625 486.390625 491.917969 488.398438 509.289062 488.398438 C 523.007812 488.398438 536.429688 487.144531 549.453125 484.746094 C 549.453125 484.027344 549.453125 483.308594 549.453125 482.589844 " fill-opacity="1" fill-rule="nonzero"/></g><path fill="#e5f2cf" d="M 549.453125 369.6875 C 549.453125 368.574219 549.453125 367.460938 549.453125 366.347656 C 547.214844 367.460938 544.953125 368.574219 542.664062 369.6875 L 549.453125 369.6875 " fill-opacity="1" fill-rule="nonzero"/><path fill="#e5f2cf" d="M 405.753906 461.214844 L 445.136719 461.214844 C 437.265625 453.234375 432.175781 440.496094 432.175781 426.136719 C 432.175781 422 432.597656 417.996094 433.386719 414.199219 C 428.199219 415.976562 422.957031 417.734375 417.664062 419.460938 C 399.953125 425.238281 382.515625 430.449219 365.527344 435.085938 C 377.277344 445.199219 390.105469 454.097656 403.816406 461.578125 C 404.417969 461.347656 405.070312 461.214844 405.753906 461.214844 " fill-opacity="1" fill-rule="nonzero"/><path fill="#e5f2cf" d="M 528.453125 385.691406 C 528.453125 388.65625 526.046875 391.0625 523.078125 391.0625 L 494.847656 391.0625 C 492.132812 392.183594 489.386719 393.300781 486.621094 394.414062 C 492.800781 402.386719 496.65625 413.652344 496.65625 426.136719 C 496.65625 440.496094 491.5625 453.234375 483.695312 461.214844 L 523.078125 461.214844 C 526.046875 461.214844 528.453125 463.617188 528.453125 466.585938 L 528.453125 469.894531 L 549.453125 469.894531 C 549.453125 440.726562 549.453125 411.554688 549.453125 382.378906 L 528.453125 382.378906 L 528.453125 385.691406 " fill-opacity="1" fill-rule="nonzero"/><path fill="#6ba581" d="M 549.453125 482.589844 C 549.453125 478.359375 549.453125 474.128906 549.453125 469.894531 L 528.453125 469.894531 L 528.453125 466.589844 C 528.453125 463.617188 526.046875 461.214844 523.078125 461.214844 L 483.695312 461.214844 C 478.316406 466.667969 471.644531 469.894531 464.414062 469.894531 C 457.1875 469.894531 450.511719 466.667969 445.136719 461.214844 L 405.753906 461.214844 C 405.070312 461.214844 404.417969 461.347656 403.816406 461.578125 C 420.898438 470.90625 439.355469 478.035156 458.800781 482.589844 L 549.453125 482.589844 " fill-opacity="1" fill-rule="nonzero"/><path fill="#6ba581" d="M 494.847656 391.0625 L 523.078125 391.0625 C 526.046875 391.0625 528.453125 388.65625 528.453125 385.691406 L 528.453125 382.378906 L 549.453125 382.378906 C 549.453125 378.148438 549.453125 373.917969 549.453125 369.6875 L 542.664062 369.6875 C 527.773438 376.90625 511.773438 384.070312 494.847656 391.0625 " fill-opacity="1" fill-rule="nonzero"/><path fill="#6ba581" d="M 496.65625 426.136719 C 496.65625 413.652344 492.800781 402.386719 486.621094 394.414062 C 480.058594 397.058594 473.367188 399.671875 466.554688 402.25 L 466.554688 406.972656 C 470.222656 407.09375 472.730469 408.070312 474.503906 409.109375 L 472.972656 413.148438 C 471.691406 412.414062 469.1875 411.066406 465.269531 411.066406 C 460.5625 411.066406 458.789062 413.878906 458.789062 416.324219 C 458.789062 419.5 461.050781 421.09375 466.371094 423.292969 C 472.667969 425.859375 475.847656 429.042969 475.847656 434.484375 C 475.847656 439.3125 472.484375 443.835938 466.1875 444.878906 L 466.1875 451.234375 L 462.335938 451.234375 L 462.335938 445.0625 C 458.789062 445 455.121094 443.898438 452.984375 442.371094 L 454.449219 438.277344 C 456.648438 439.742188 459.832031 440.90625 463.253906 440.90625 C 467.59375 440.90625 470.527344 438.394531 470.527344 434.910156 C 470.527344 431.550781 468.144531 429.472656 463.617188 427.632812 C 457.382812 425.191406 453.53125 422.375 453.53125 417.058594 C 453.53125 411.984375 457.140625 408.132812 462.765625 407.214844 L 462.765625 403.675781 C 453.191406 407.261719 443.390625 410.773438 433.386719 414.199219 C 432.597656 417.996094 432.175781 422 432.175781 426.136719 C 432.175781 440.496094 437.265625 453.234375 445.136719 461.214844 C 450.511719 466.667969 457.1875 469.894531 464.414062 469.894531 C 471.644531 469.894531 478.316406 466.667969 483.695312 461.214844 C 491.5625 453.234375 496.65625 440.496094 496.65625 426.136719 " fill-opacity="1" fill-rule="nonzero"/><path fill="#e5f2cf" d="M 453.53125 417.058594 C 453.53125 422.375 457.382812 425.191406 463.617188 427.632812 C 468.144531 429.472656 470.527344 431.550781 470.527344 434.910156 C 470.527344 438.394531 467.59375 440.90625 463.253906 440.90625 C 459.832031 440.90625 456.648438 439.742188 454.449219 438.277344 L 452.984375 442.371094 C 455.121094 443.898438 458.789062 445 462.335938 445.0625 L 462.335938 451.234375 L 466.1875 451.234375 L 466.1875 444.878906 C 472.484375 443.835938 475.847656 439.3125 475.847656 434.484375 C 475.847656 429.042969 472.667969 425.859375 466.371094 423.292969 C 461.050781 421.09375 458.789062 419.5 458.789062 416.324219 C 458.789062 413.878906 460.5625 411.066406 465.269531 411.066406 C 469.1875 411.066406 471.691406 412.414062 472.972656 413.148438 L 474.503906 409.109375 C 472.730469 408.070312 470.222656 407.09375 466.554688 406.972656 L 466.554688 402.25 C 465.296875 402.726562 464.03125 403.203125 462.765625 403.675781 L 462.765625 407.214844 C 457.140625 408.132812 453.53125 411.984375 453.53125 417.058594 " fill-opacity="1" fill-rule="nonzero"/><path fill="#e5f2cf" d="M 542.664062 369.6875 C 544.953125 368.574219 547.214844 367.460938 549.453125 366.347656 C 549.453125 363.230469 549.453125 360.109375 549.453125 356.992188 L 307.542969 356.992188 C 309.445312 361.296875 311.480469 365.53125 313.648438 369.6875 L 542.664062 369.6875 " fill-opacity="1" fill-rule="nonzero"/><g clip-path="url(#ea2ee7bb4a)"><g clip-path="url(#98d0972f67)"><path fill="#e0eeca" d="M 307.542969 369.6875 L 549.453125 369.6875 L 549.453125 356.992188 L 307.542969 356.992188 Z M 307.542969 369.6875 " fill-opacity="1" fill-rule="nonzero"/></g></g><path fill="#e5f2cf" d="M 494.847656 391.0625 L 483.695312 391.0625 C 484.71875 392.101562 485.695312 393.21875 486.621094 394.414062 C 489.386719 393.300781 492.132812 392.183594 494.847656 391.0625 " fill-opacity="1" fill-rule="nonzero"/><path fill="#e0eeca" d="M 486.621094 394.414062 C 485.695312 393.21875 484.71875 392.101562 483.695312 391.0625 L 494.847656 391.0625 C 492.132812 392.183594 489.386719 393.300781 486.621094 394.414062 " fill-opacity="1" fill-rule="nonzero"/><path fill="#e5f2cf" d="M 417.664062 419.460938 C 422.957031 417.734375 428.199219 415.976562 433.386719 414.199219 C 435.339844 404.832031 439.535156 396.742188 445.136719 391.0625 L 405.753906 391.0625 C 402.785156 391.0625 400.378906 388.65625 400.378906 385.691406 L 400.378906 382.378906 L 339.171875 382.378906 C 339.207031 382.746094 339.222656 383.113281 339.222656 383.488281 C 339.222656 389.410156 335.035156 394.351562 329.460938 395.511719 C 339.847656 410.125 351.96875 423.414062 365.527344 435.085938 C 382.515625 430.449219 399.953125 425.238281 417.664062 419.460938 " fill-opacity="1" fill-rule="nonzero"/><path fill="#e0eeca" d="M 365.527344 435.085938 C 351.96875 423.414062 339.847656 410.125 329.460938 395.511719 C 335.035156 394.351562 339.222656 389.410156 339.222656 383.488281 C 339.222656 383.113281 339.207031 382.746094 339.171875 382.378906 L 400.378906 382.378906 L 400.378906 385.691406 C 400.378906 388.65625 402.785156 391.0625 405.753906 391.0625 L 445.136719 391.0625 C 439.535156 396.742188 435.339844 404.832031 433.386719 414.199219 C 428.199219 415.976562 422.957031 417.734375 417.664062 419.460938 C 399.953125 425.238281 382.515625 430.449219 365.527344 435.085938 " fill-opacity="1" fill-rule="nonzero"/><path fill="#6ba581" d="M 339.222656 383.488281 C 339.222656 383.113281 339.207031 382.746094 339.171875 382.378906 L 400.378906 382.378906 L 400.378906 385.691406 C 400.378906 388.65625 402.785156 391.0625 405.753906 391.0625 L 445.136719 391.0625 C 439.535156 396.742188 435.339844 404.832031 433.386719 414.199219 C 443.390625 410.773438 453.191406 407.261719 462.765625 403.675781 L 462.765625 401.039062 L 466.554688 401.039062 L 466.554688 402.25 C 473.367188 399.671875 480.058594 397.058594 486.621094 394.414062 C 485.695312 393.21875 484.71875 392.101562 483.695312 391.0625 L 494.847656 391.0625 C 511.773438 384.070312 527.773438 376.90625 542.664062 369.6875 L 313.648438 369.6875 C 318.335938 378.675781 323.625 387.300781 329.460938 395.511719 C 335.035156 394.351562 339.222656 389.410156 339.222656 383.488281 " fill-opacity="1" fill-rule="nonzero"/><path fill="#66a07d" d="M 433.386719 414.199219 C 435.339844 404.832031 439.535156 396.742188 445.136719 391.0625 L 405.753906 391.0625 C 402.785156 391.0625 400.378906 388.65625 400.378906 385.691406 L 400.378906 382.378906 L 339.171875 382.378906 C 339.207031 382.746094 339.222656 383.113281 339.222656 383.488281 C 339.222656 389.410156 335.035156 394.351562 329.460938 395.511719 C 323.625 387.300781 318.335938 378.675781 313.648438 369.6875 L 542.664062 369.6875 C 527.773438 376.90625 511.773438 384.070312 494.847656 391.0625 L 483.695312 391.0625 C 484.71875 392.101562 485.695312 393.21875 486.621094 394.414062 C 480.058594 397.058594 473.367188 399.671875 466.554688 402.25 L 466.554688 401.039062 L 462.765625 401.039062 L 462.765625 403.675781 C 453.191406 407.261719 443.390625 410.773438 433.386719 414.199219 " fill-opacity="1" fill-rule="nonzero"/><path fill="#e5f2cf" d="M 466.554688 401.039062 L 462.765625 401.039062 L 462.765625 403.675781 C 464.03125 403.203125 465.296875 402.726562 466.554688 402.25 L 466.554688 401.039062 " fill-opacity="1" fill-rule="nonzero"/><path fill="#e0eeca" d="M 462.765625 403.675781 L 462.765625 401.039062 L 466.554688 401.039062 L 466.554688 402.25 C 465.296875 402.726562 464.03125 403.203125 462.765625 403.675781 " fill-opacity="1" fill-rule="nonzero"/><path fill="#a3a1a1" d="M 710.988281 224.808594 L 710.402344 224.808594 L 710.402344 358.421875 C 711.042969 357.007812 711.664062 355.585938 712.273438 354.152344 L 713.296875 226.761719 C 713.277344 225.6875 712.234375 224.808594 710.988281 224.808594 " fill-opacity="1" fill-rule="nonzero"/><path fill="#c6c5c5" d="M 670.121094 168.199219 C 670.746094 168.234375 671.371094 168.269531 671.996094 168.304688 C 671.371094 168.269531 670.746094 168.234375 670.121094 168.199219 " fill-opacity="1" fill-rule="nonzero"/><path fill="#c6c5c5" d="M 674.808594 168.46875 C 675.421875 168.507812 676.03125 168.542969 676.640625 168.582031 C 676.03125 168.542969 675.421875 168.507812 674.808594 168.46875 " fill-opacity="1" fill-rule="nonzero"/><path fill="#c6c5c5" d="M 679.511719 168.769531 C 680.105469 168.808594 680.699219 168.847656 681.292969 168.886719 C 680.699219 168.847656 680.105469 168.808594 679.511719 168.769531 " fill-opacity="1" fill-rule="nonzero"/><path fill="#c6c5c5" d="M 665.449219 167.957031 C 666.078125 167.988281 666.707031 168.019531 667.339844 168.050781 C 666.707031 168.019531 666.078125 167.988281 665.449219 167.957031 " fill-opacity="1" fill-rule="nonzero"/><path fill="#c6c5c5" d="M 642.167969 167.183594 C 642.714844 167.191406 643.261719 167.203125 643.808594 167.214844 C 643.261719 167.203125 642.714844 167.191406 642.167969 167.183594 " fill-opacity="1" fill-rule="nonzero"/><path fill="#c6c5c5" d="M 632.871094 167.066406 C 633.164062 167.070312 633.457031 167.074219 633.746094 167.074219 C 633.457031 167.074219 633.164062 167.070312 632.871094 167.066406 " fill-opacity="1" fill-rule="nonzero"/><path fill="#c6c5c5" d="M 651.472656 167.40625 C 652.082031 167.425781 652.683594 167.445312 653.289062 167.464844 C 652.683594 167.445312 652.082031 167.425781 651.472656 167.40625 " fill-opacity="1" fill-rule="nonzero"/><path fill="#c6c5c5" d="M 646.816406 167.28125 C 647.402344 167.292969 647.988281 167.3125 648.570312 167.324219 C 647.988281 167.3125 647.402344 167.292969 646.816406 167.28125 " fill-opacity="1" fill-rule="nonzero"/><path fill="#c6c5c5" d="M 706.878906 173.550781 C 706.859375 172.191406 705.824219 170.972656 704.574219 170.851562 C 703.070312 170.699219 701.558594 170.554688 700.054688 170.414062 C 700.054688 178.660156 700.054688 186.90625 700.054688 195.152344 C 700.054688 197.210938 700.054688 199.265625 700.054688 201.320312 C 700.054688 247.179688 700.054688 293.042969 700.054688 338.902344 C 700.054688 339.4375 700.054688 339.972656 700.054688 340.507812 C 700.054688 353.1875 700.054688 365.863281 700.054688 378.539062 C 702.460938 374.394531 704.742188 370.164062 706.878906 365.855469 C 706.878906 318.839844 706.878906 271.824219 706.878906 224.808594 C 706.878906 207.722656 706.878906 190.636719 706.878906 173.550781 " fill-opacity="1" fill-rule="nonzero"/><path fill="#c6c5c5" d="M 637.515625 167.109375 C 637.992188 167.117188 638.464844 167.125 638.945312 167.132812 C 638.464844 167.125 637.992188 167.117188 637.515625 167.109375 " fill-opacity="1" fill-rule="nonzero"/><path fill="#c6c5c5" d="M 689.042969 169.464844 C 689.558594 169.503906 690.066406 169.542969 690.574219 169.585938 C 690.066406 169.542969 689.558594 169.503906 689.042969 169.464844 " fill-opacity="1" fill-rule="nonzero"/><path fill="#c6c5c5" d="M 684.246094 169.097656 C 684.808594 169.140625 685.371094 169.179688 685.933594 169.222656 C 685.371094 169.179688 684.808594 169.140625 684.246094 169.097656 " fill-opacity="1" fill-rule="nonzero"/><path fill="#c6c5c5" d="M 656.128906 167.5625 C 656.75 167.585938 657.367188 167.609375 657.988281 167.632812 C 657.367188 167.609375 656.75 167.585938 656.128906 167.5625 " fill-opacity="1" fill-rule="nonzero"/><path fill="#c6c5c5" d="M 693.980469 169.871094 C 694.390625 169.90625 694.800781 169.941406 695.210938 169.976562 C 694.800781 169.941406 694.390625 169.90625 693.980469 169.871094 " fill-opacity="1" fill-rule="nonzero"/><path fill="#c6c5c5" d="M 699.386719 170.351562 C 699.539062 170.367188 699.691406 170.378906 699.84375 170.394531 C 699.691406 170.378906 699.539062 170.367188 699.386719 170.351562 " fill-opacity="1" fill-rule="nonzero"/><path fill="#c6c5c5" d="M 660.785156 167.746094 C 661.414062 167.773438 662.042969 167.800781 662.667969 167.828125 C 662.042969 167.800781 661.414062 167.773438 660.785156 167.746094 " fill-opacity="1" fill-rule="nonzero"/><path fill="#c6c5c5" d="M 607.761719 167.324219 C 608.347656 167.3125 608.929688 167.292969 609.515625 167.28125 C 608.929688 167.292969 608.347656 167.3125 607.761719 167.324219 " fill-opacity="1" fill-rule="nonzero"/><path fill="#c6c5c5" d="M 581.527344 168.46875 C 580.914062 168.507812 580.300781 168.542969 579.691406 168.582031 C 580.300781 168.542969 580.914062 168.507812 581.527344 168.46875 " fill-opacity="1" fill-rule="nonzero"/><path fill="#c6c5c5" d="M 572.085938 169.097656 C 571.523438 169.140625 570.960938 169.179688 570.398438 169.222656 C 570.960938 169.179688 571.523438 169.140625 572.085938 169.097656 " fill-opacity="1" fill-rule="nonzero"/><path fill="#c6c5c5" d="M 562.351562 169.871094 C 561.941406 169.90625 561.53125 169.941406 561.121094 169.976562 C 561.53125 169.941406 561.941406 169.90625 562.351562 169.871094 " fill-opacity="1" fill-rule="nonzero"/><path fill="#c6c5c5" d="M 576.820312 168.769531 C 576.226562 168.808594 575.632812 168.847656 575.039062 168.886719 C 575.632812 168.847656 576.226562 168.808594 576.820312 168.769531 " fill-opacity="1" fill-rule="nonzero"/><path fill="#c6c5c5" d="M 567.285156 169.464844 C 566.777344 169.503906 566.269531 169.542969 565.757812 169.585938 C 566.269531 169.542969 566.777344 169.503906 567.285156 169.464844 " fill-opacity="1" fill-rule="nonzero"/><path fill="#c6c5c5" d="M 603.042969 167.464844 C 603.648438 167.445312 604.253906 167.425781 604.859375 167.40625 L 604.785156 167.410156 C 604.53125 167.417969 604.277344 167.425781 604.023438 167.433594 C 603.695312 167.441406 603.367188 167.457031 603.042969 167.464844 " fill-opacity="1" fill-rule="nonzero"/><path fill="#c6c5c5" d="M 622.585938 167.074219 C 622.878906 167.074219 623.171875 167.070312 623.464844 167.066406 C 623.171875 167.070312 622.878906 167.074219 622.585938 167.074219 " fill-opacity="1" fill-rule="nonzero"/><path fill="#c6c5c5" d="M 612.523438 167.214844 C 613.070312 167.203125 613.617188 167.191406 614.167969 167.183594 C 613.617188 167.191406 613.070312 167.203125 612.523438 167.214844 " fill-opacity="1" fill-rule="nonzero"/><path fill="#c6c5c5" d="M 600.203125 167.5625 C 599.585938 167.585938 598.964844 167.609375 598.34375 167.632812 C 598.964844 167.609375 599.585938 167.585938 600.203125 167.5625 " fill-opacity="1" fill-rule="nonzero"/><path fill="#c6c5c5" d="M 556.949219 170.351562 C 556.792969 170.367188 556.640625 170.378906 556.488281 170.394531 C 556.640625 170.378906 556.792969 170.367188 556.949219 170.351562 " fill-opacity="1" fill-rule="nonzero"/><path fill="#c6c5c5" d="M 617.390625 167.132812 C 617.867188 167.125 618.34375 167.117188 618.816406 167.109375 C 618.34375 167.117188 617.867188 167.125 617.390625 167.132812 " fill-opacity="1" fill-rule="nonzero"/><path fill="#c6c5c5" d="M 595.546875 167.746094 C 594.917969 167.773438 594.292969 167.800781 593.664062 167.828125 C 594.292969 167.800781 594.917969 167.773438 595.546875 167.746094 " fill-opacity="1" fill-rule="nonzero"/><path fill="#c6c5c5" d="M 586.214844 168.199219 C 585.589844 168.234375 584.960938 168.269531 584.335938 168.304688 C 584.960938 168.269531 585.589844 168.234375 586.214844 168.199219 " fill-opacity="1" fill-rule="nonzero"/><path fill="#c6c5c5" d="M 590.882812 167.957031 C 590.253906 167.988281 589.625 168.019531 588.996094 168.050781 C 589.625 168.019531 590.253906 167.988281 590.882812 167.957031 " fill-opacity="1" fill-rule="nonzero"/><path fill="#c6c5c5" d="M 556.277344 340.507812 C 556.277344 339.972656 556.277344 339.4375 556.277344 338.902344 C 556.277344 293.042969 556.277344 247.179688 556.277344 201.320312 C 556.277344 199.265625 556.277344 197.210938 556.277344 195.152344 C 556.277344 186.90625 556.277344 178.660156 556.277344 170.414062 C 554.773438 170.554688 553.265625 170.699219 551.757812 170.851562 C 550.511719 170.972656 549.472656 172.191406 549.453125 173.550781 C 549.453125 175.839844 549.453125 178.132812 549.453125 180.421875 C 549.453125 180.675781 549.453125 180.929688 549.453125 181.183594 C 549.453125 189.675781 549.453125 198.167969 549.453125 206.660156 C 549.453125 206.914062 549.453125 207.167969 549.453125 207.421875 C 549.453125 211.351562 549.453125 215.28125 549.453125 219.210938 C 549.453125 219.464844 549.453125 219.71875 549.453125 219.972656 C 549.453125 223.265625 549.453125 226.5625 549.453125 229.859375 C 549.453125 230.113281 549.453125 230.363281 549.453125 230.617188 C 549.453125 233.914062 549.453125 237.210938 549.453125 240.503906 C 549.453125 240.757812 549.453125 241.011719 549.453125 241.265625 C 549.453125 244.5625 549.453125 247.855469 549.453125 251.152344 C 549.453125 251.40625 549.453125 251.660156 549.453125 251.914062 C 549.453125 255.207031 549.453125 258.503906 549.453125 261.800781 C 549.453125 262.054688 549.453125 262.308594 549.453125 262.5625 C 549.453125 265.855469 549.453125 269.152344 549.453125 272.449219 C 549.453125 272.703125 549.453125 272.953125 549.453125 273.207031 C 549.453125 276.503906 549.453125 279.800781 549.453125 283.097656 C 549.453125 283.351562 549.453125 283.601562 549.453125 283.855469 C 549.453125 287.921875 549.453125 291.988281 549.453125 296.054688 C 549.453125 296.308594 549.453125 296.5625 549.453125 296.816406 C 549.453125 304.484375 549.453125 312.152344 549.453125 319.820312 C 549.453125 322.101562 549.453125 324.382812 549.453125 326.664062 C 549.453125 329.335938 549.453125 332.007812 549.453125 334.679688 C 549.453125 336.960938 549.453125 339.242188 549.453125 341.527344 C 549.453125 346.679688 549.453125 351.835938 549.453125 356.992188 C 549.453125 360.109375 549.453125 363.230469 549.453125 366.347656 C 549.453125 367.460938 549.453125 368.574219 549.453125 369.6875 C 549.453125 373.917969 549.453125 378.148438 549.453125 382.378906 C 549.453125 411.554688 549.453125 440.726562 549.453125 469.894531 C 549.453125 474.128906 549.453125 478.359375 549.453125 482.589844 C 549.453125 483.308594 549.453125 484.027344 549.453125 484.746094 C 551.742188 484.324219 554.015625 483.867188 556.277344 483.375 C 556.277344 435.753906 556.277344 388.132812 556.277344 340.507812 " fill-opacity="1" fill-rule="nonzero"/><path fill="#4f4c4c" d="M 706.878906 224.808594 C 706.878906 271.824219 706.878906 318.839844 706.878906 365.855469 C 708.097656 363.402344 709.273438 360.925781 710.402344 358.421875 L 710.402344 224.808594 L 706.878906 224.808594 " fill-opacity="1" fill-rule="nonzero"/><path fill="#d5d4d5" d="M 560.703125 480.097656 L 560.703125 482.367188 C 563.636719 481.667969 566.546875 480.914062 569.433594 480.097656 L 560.703125 480.097656 " fill-opacity="1" fill-rule="nonzero"/><path fill="#a3a1a1" d="M 623.464844 167.066406 C 623.171875 167.070312 622.878906 167.074219 622.585938 167.074219 C 621.328125 167.085938 620.074219 167.09375 618.816406 167.109375 C 618.34375 167.117188 617.867188 167.125 617.390625 167.132812 C 616.316406 167.148438 615.242188 167.160156 614.167969 167.183594 C 613.617188 167.191406 613.070312 167.203125 612.523438 167.214844 C 611.519531 167.234375 610.519531 167.257812 609.515625 167.28125 C 608.929688 167.292969 608.347656 167.3125 607.761719 167.324219 C 606.792969 167.351562 605.824219 167.378906 604.859375 167.40625 C 604.253906 167.425781 603.648438 167.445312 603.042969 167.464844 C 602.097656 167.496094 601.148438 167.527344 600.203125 167.5625 C 599.585938 167.585938 598.964844 167.609375 598.34375 167.632812 C 597.414062 167.667969 596.480469 167.707031 595.546875 167.746094 C 594.917969 167.773438 594.292969 167.800781 593.664062 167.828125 C 592.738281 167.871094 591.8125 167.914062 590.882812 167.957031 C 590.253906 167.988281 589.625 168.019531 588.996094 168.050781 C 588.070312 168.097656 587.140625 168.148438 586.214844 168.199219 C 585.589844 168.234375 584.960938 168.269531 584.335938 168.304688 C 583.398438 168.355469 582.464844 168.414062 581.527344 168.46875 C 580.914062 168.507812 580.300781 168.542969 579.691406 168.582031 C 578.734375 168.640625 577.777344 168.707031 576.820312 168.769531 C 576.226562 168.808594 575.632812 168.847656 575.039062 168.886719 C 574.054688 168.957031 573.070312 169.027344 572.085938 169.097656 C 571.523438 169.140625 570.960938 169.179688 570.398438 169.222656 C 569.359375 169.300781 568.324219 169.382812 567.285156 169.464844 C 566.777344 169.503906 566.269531 169.542969 565.757812 169.585938 C 564.621094 169.679688 563.488281 169.773438 562.351562 169.871094 C 561.941406 169.90625 561.53125 169.941406 561.121094 169.976562 C 559.730469 170.097656 558.335938 170.222656 556.949219 170.351562 C 556.792969 170.367188 556.640625 170.378906 556.488281 170.394531 C 556.417969 170.402344 556.347656 170.40625 556.277344 170.414062 C 556.277344 178.660156 556.277344 186.90625 556.277344 195.152344 L 700.054688 195.152344 C 700.054688 186.90625 700.054688 178.660156 700.054688 170.414062 C 699.984375 170.40625 699.914062 170.402344 699.84375 170.394531 C 699.691406 170.378906 699.539062 170.367188 699.386719 170.351562 C 697.992188 170.222656 696.605469 170.097656 695.210938 169.976562 C 694.800781 169.941406 694.390625 169.90625 693.980469 169.871094 C 692.84375 169.773438 691.707031 169.679688 690.574219 169.585938 C 690.066406 169.542969 689.558594 169.503906 689.042969 169.464844 C 688.011719 169.382812 686.972656 169.300781 685.933594 169.222656 C 685.371094 169.179688 684.808594 169.140625 684.246094 169.097656 C 683.261719 169.027344 682.277344 168.957031 681.292969 168.886719 C 680.699219 168.847656 680.105469 168.808594 679.511719 168.769531 C 678.554688 168.707031 677.597656 168.640625 676.640625 168.582031 C 676.03125 168.542969 675.421875 168.507812 674.808594 168.46875 C 673.871094 168.414062 672.933594 168.355469 671.996094 168.304688 C 671.371094 168.269531 670.746094 168.234375 670.121094 168.199219 C 669.195312 168.148438 668.265625 168.097656 667.339844 168.050781 C 666.707031 168.019531 666.078125 167.988281 665.449219 167.957031 C 664.523438 167.914062 663.597656 167.871094 662.667969 167.828125 C 662.042969 167.800781 661.414062 167.773438 660.785156 167.746094 C 659.851562 167.707031 658.921875 167.667969 657.988281 167.632812 C 657.367188 167.609375 656.75 167.585938 656.128906 167.5625 C 655.179688 167.527344 654.234375 167.496094 653.289062 167.464844 C 652.683594 167.445312 652.082031 167.425781 651.472656 167.40625 C 650.507812 167.378906 649.539062 167.351562 648.570312 167.324219 C 647.988281 167.3125 647.402344 167.292969 646.816406 167.28125 C 645.816406 167.257812 644.8125 167.234375 643.808594 167.214844 C 643.261719 167.203125 642.714844 167.191406 642.167969 167.183594 C 641.089844 167.160156 640.015625 167.148438 638.945312 167.132812 C 638.464844 167.125 637.992188 167.117188 637.515625 167.109375 C 636.257812 167.09375 635.003906 167.085938 633.746094 167.074219 C 633.457031 167.074219 633.164062 167.070312 632.871094 167.066406 C 631.964844 167.0625 631.058594 167.0625 630.15625 167.058594 C 627.925781 167.050781 625.695312 167.054688 623.464844 167.066406 " fill-opacity="1" fill-rule="nonzero"/><path fill="#a3a1a1" d="M 662.140625 322.886719 L 662.140625 317.78125 C 662.140625 315.675781 663.851562 313.964844 665.957031 313.964844 L 680.585938 313.964844 C 682.691406 313.964844 684.398438 315.675781 684.398438 317.78125 L 684.398438 322.886719 C 684.398438 324.996094 682.691406 326.703125 680.585938 326.703125 L 665.957031 326.703125 C 663.851562 326.703125 662.140625 324.996094 662.140625 322.886719 M 604.203125 325.074219 L 604.203125 313.449219 C 604.203125 311.574219 605.734375 310.035156 607.613281 310.035156 L 648.71875 310.035156 C 650.597656 310.035156 652.132812 311.574219 652.132812 313.449219 L 652.132812 325.074219 C 652.132812 326.953125 650.597656 328.488281 648.71875 328.488281 L 607.613281 328.488281 C 605.734375 328.488281 604.203125 326.953125 604.203125 325.074219 M 572.5 322.886719 L 572.5 317.78125 C 572.5 315.675781 574.207031 313.964844 576.316406 313.964844 L 590.941406 313.964844 C 593.050781 313.964844 594.757812 315.675781 594.757812 317.78125 L 594.757812 322.886719 C 594.757812 324.996094 593.050781 326.703125 590.941406 326.703125 L 576.316406 326.703125 C 574.207031 326.703125 572.5 324.996094 572.5 322.886719 M 688.730469 226.414062 L 688.730469 297.203125 L 567.601562 297.203125 L 567.601562 222 L 688.730469 222 L 688.730469 226.414062 M 556.277344 201.320312 C 556.277344 247.179688 556.277344 293.042969 556.277344 338.902344 L 700.054688 338.902344 C 700.054688 293.042969 700.054688 247.179688 700.054688 201.320312 L 556.277344 201.320312 " fill-opacity="1" fill-rule="nonzero"/><path fill="#a3a1a1" d="M 692.402344 359.683594 C 692.402344 361.867188 690.527344 363.636719 688.214844 363.636719 L 663.1875 363.636719 C 660.878906 363.636719 659.003906 361.867188 659.003906 359.683594 L 659.003906 350.464844 C 659.003906 348.28125 660.878906 346.515625 663.1875 346.515625 L 688.214844 346.515625 C 690.527344 346.515625 692.402344 348.28125 692.402344 350.464844 Z M 692.402344 386.945312 C 692.402344 389.128906 690.527344 390.894531 688.214844 390.894531 L 663.1875 390.894531 C 660.878906 390.894531 659.003906 389.128906 659.003906 386.945312 L 659.003906 377.726562 C 659.003906 375.542969 660.878906 373.777344 663.1875 373.777344 L 688.214844 373.777344 C 690.527344 373.777344 692.402344 375.542969 692.402344 377.726562 Z M 640.679688 418.15625 L 615.65625 418.15625 C 613.34375 418.15625 611.46875 416.386719 611.46875 414.207031 L 611.46875 404.988281 C 611.46875 402.804688 613.34375 401.035156 615.65625 401.035156 L 640.679688 401.035156 C 642.988281 401.035156 644.863281 402.804688 644.863281 404.988281 L 644.863281 414.207031 C 644.863281 416.386719 642.988281 418.15625 640.679688 418.15625 Z M 593.140625 445.417969 L 568.117188 445.417969 C 565.804688 445.417969 563.933594 443.648438 563.933594 441.464844 L 563.933594 432.242188 C 563.933594 430.066406 565.804688 428.296875 568.117188 428.296875 L 593.140625 428.296875 C 595.453125 428.296875 597.328125 430.066406 597.328125 432.242188 L 597.328125 441.464844 C 597.328125 443.648438 595.453125 445.417969 593.140625 445.417969 Z M 593.140625 390.894531 L 568.117188 390.894531 C 565.804688 390.894531 563.933594 389.128906 563.933594 386.945312 L 563.933594 377.726562 C 563.933594 375.542969 565.804688 373.777344 568.117188 373.777344 L 593.140625 373.777344 C 595.453125 373.777344 597.328125 375.542969 597.328125 377.726562 L 597.328125 386.945312 C 597.328125 389.128906 595.453125 390.894531 593.140625 390.894531 Z M 563.933594 414.207031 L 563.933594 404.988281 C 563.933594 402.804688 565.804688 401.035156 568.117188 401.035156 L 593.140625 401.035156 C 595.453125 401.035156 597.328125 402.804688 597.328125 404.988281 L 597.328125 414.207031 C 597.328125 416.386719 595.453125 418.15625 593.140625 418.15625 L 568.117188 418.15625 C 565.804688 418.15625 563.933594 416.386719 563.933594 414.207031 Z M 563.933594 359.683594 L 563.933594 350.464844 C 563.933594 348.28125 565.804688 346.515625 568.117188 346.515625 L 593.140625 346.515625 C 595.453125 346.515625 597.328125 348.28125 597.328125 350.464844 L 597.328125 359.683594 C 597.328125 361.867188 595.453125 363.636719 593.140625 363.636719 L 568.117188 363.636719 C 565.804688 363.636719 563.933594 361.867188 563.933594 359.683594 Z M 615.65625 390.894531 C 613.34375 390.894531 611.46875 389.128906 611.46875 386.945312 L 611.46875 377.726562 C 611.46875 375.542969 613.34375 373.777344 615.65625 373.777344 L 640.679688 373.777344 C 642.988281 373.777344 644.863281 375.542969 644.863281 377.726562 L 644.863281 386.945312 C 644.863281 389.128906 642.988281 390.894531 640.679688 390.894531 Z M 644.863281 350.464844 L 644.863281 359.683594 C 644.863281 361.867188 642.988281 363.636719 640.679688 363.636719 L 615.65625 363.636719 C 613.34375 363.636719 611.46875 361.867188 611.46875 359.683594 L 611.46875 350.464844 C 611.46875 348.28125 613.34375 346.515625 615.65625 346.515625 L 640.679688 346.515625 C 642.988281 346.515625 644.863281 348.28125 644.863281 350.464844 Z M 556.277344 340.507812 C 556.277344 388.132812 556.277344 435.753906 556.277344 483.375 C 557.757812 483.054688 559.234375 482.71875 560.703125 482.367188 L 560.703125 480.097656 L 569.433594 480.097656 C 576.859375 477.996094 584.125 475.511719 591.210938 472.675781 L 568.117188 472.675781 C 565.804688 472.675781 563.933594 470.90625 563.933594 468.726562 L 563.933594 459.507812 C 563.933594 457.324219 565.804688 455.554688 568.117188 455.554688 L 593.140625 455.554688 C 595.453125 455.554688 597.328125 457.324219 597.328125 459.507812 L 597.328125 468.726562 C 597.328125 469.269531 597.210938 469.789062 597 470.261719 C 601.917969 468.125 606.742188 465.816406 611.46875 463.335938 L 611.46875 459.507812 C 611.46875 457.324219 613.34375 455.554688 615.65625 455.554688 L 625.121094 455.554688 C 630.257812 452.378906 635.257812 448.988281 640.101562 445.417969 L 615.65625 445.417969 C 613.34375 445.417969 611.46875 443.648438 611.46875 441.464844 L 611.46875 432.242188 C 611.46875 430.066406 613.34375 428.296875 615.65625 428.296875 L 640.679688 428.296875 C 642.988281 428.296875 644.863281 430.066406 644.863281 432.242188 L 644.863281 441.464844 C 644.863281 441.585938 644.855469 441.703125 644.84375 441.820312 C 654.0625 434.621094 662.699219 426.707031 670.660156 418.15625 L 663.1875 418.15625 C 660.878906 418.15625 659.003906 416.386719 659.003906 414.207031 L 659.003906 404.988281 C 659.003906 402.804688 660.878906 401.035156 663.1875 401.035156 L 685.066406 401.035156 C 690.503906 393.867188 695.511719 386.355469 700.054688 378.539062 C 700.054688 365.863281 700.054688 353.1875 700.054688 340.507812 L 556.277344 340.507812 " fill-opacity="1" fill-rule="nonzero"/><path fill="#4f4c4c" d="M 556.277344 195.152344 C 556.277344 197.210938 556.277344 199.265625 556.277344 201.320312 L 700.054688 201.320312 C 700.054688 199.265625 700.054688 197.210938 700.054688 195.152344 L 556.277344 195.152344 " fill-opacity="1" fill-rule="nonzero"/><path fill="#4f4c4c" d="M 556.277344 338.902344 C 556.277344 339.4375 556.277344 339.972656 556.277344 340.507812 L 700.054688 340.507812 C 700.054688 339.972656 700.054688 339.4375 700.054688 338.902344 L 556.277344 338.902344 " fill-opacity="1" fill-rule="nonzero"/><path fill="#d1d1c2" d="M 567.410156 297.394531 L 567.410156 285.085938 L 650.242188 221.808594 L 688.925781 221.808594 L 688.925781 226.511719 L 596.140625 297.394531 L 567.410156 297.394531 " fill-opacity="1" fill-rule="nonzero"/><path fill="#abaaaa" d="M 689.117188 221.613281 L 650.175781 221.613281 L 650.070312 221.691406 L 567.367188 284.875 L 567.214844 284.992188 L 567.214844 297.589844 L 596.207031 297.589844 L 596.308594 297.511719 L 688.96875 226.726562 L 689.117188 226.609375 L 689.117188 221.613281 M 688.730469 222 L 688.730469 226.414062 L 596.074219 297.203125 L 567.601562 297.203125 L 567.601562 285.183594 L 650.308594 222 L 688.730469 222 " fill-opacity="1" fill-rule="nonzero"/><path fill="#d1d1c2" d="M 621.042969 297.394531 L 688.925781 245.539062 L 688.925781 297.394531 L 621.042969 297.394531 " fill-opacity="1" fill-rule="nonzero"/><path fill="#abaaaa" d="M 689.117188 245.144531 L 688.492188 245.621094 L 621.382812 296.894531 L 620.46875 297.589844 L 689.117188 297.589844 L 689.117188 245.144531 M 688.730469 245.933594 L 688.730469 297.203125 L 621.617188 297.203125 L 688.730469 245.933594 " fill-opacity="1" fill-rule="nonzero"/><path fill="#d1d1c2" d="M 567.410156 221.808594 L 625.335938 221.808594 L 567.410156 266.0625 L 567.410156 221.808594 " fill-opacity="1" fill-rule="nonzero"/><path fill="#abaaaa" d="M 625.910156 221.613281 L 567.214844 221.613281 L 567.214844 266.453125 L 567.839844 265.976562 L 624.996094 222.308594 L 625.910156 221.613281 M 624.761719 222 L 567.601562 265.667969 L 567.601562 222 L 624.761719 222 " fill-opacity="1" fill-rule="nonzero"/><path fill="#d1d1c2" d="M 567.410156 265.570312 L 624.695312 221.808594 L 650.878906 221.808594 L 567.410156 285.578125 L 567.410156 265.570312 " fill-opacity="1" fill-rule="nonzero"/><path fill="#abaaaa" d="M 651.453125 221.613281 L 624.628906 221.613281 L 624.523438 221.691406 L 567.367188 265.359375 L 567.214844 265.476562 L 567.214844 285.96875 L 567.839844 285.492188 L 650.542969 222.308594 L 651.453125 221.613281 M 650.308594 222 L 567.601562 285.183594 L 567.601562 265.667969 L 624.761719 222 L 650.308594 222 " fill-opacity="1" fill-rule="nonzero"/><path fill="#ddddcd" d="M 567.601562 285.183594 L 567.601562 265.667969 L 624.761719 222 L 650.308594 222 L 567.601562 285.183594 " fill-opacity="1" fill-rule="nonzero"/><path fill="#d1d1c2" d="M 595.5 297.394531 L 688.925781 226.023438 L 688.925781 246.027344 L 621.683594 297.394531 L 595.5 297.394531 " fill-opacity="1" fill-rule="nonzero"/><path fill="#abaaaa" d="M 689.117188 225.628906 L 688.492188 226.105469 L 595.839844 296.894531 L 594.921875 297.589844 L 621.75 297.589844 L 621.855469 297.511719 L 688.96875 246.242188 L 689.117188 246.125 L 689.117188 225.628906 M 688.730469 226.414062 L 688.730469 245.933594 L 621.617188 297.203125 L 596.074219 297.203125 L 688.730469 226.414062 " fill-opacity="1" fill-rule="nonzero"/><path fill="#ddddcd" d="M 621.617188 297.203125 L 596.074219 297.203125 L 688.730469 226.414062 L 688.730469 245.933594 L 621.617188 297.203125 " fill-opacity="1" fill-rule="nonzero"/><path fill="#ffffff" d="M 576.960938 319.28125 L 590.296875 319.28125 L 590.296875 321.386719 L 576.960938 321.386719 Z M 590.941406 326.703125 C 593.050781 326.703125 594.757812 324.996094 594.757812 322.886719 L 594.757812 317.78125 C 594.757812 315.675781 593.050781 313.964844 590.941406 313.964844 L 576.316406 313.964844 C 574.207031 313.964844 572.5 315.675781 572.5 317.78125 L 572.5 322.886719 C 572.5 324.996094 574.207031 326.703125 576.316406 326.703125 L 590.941406 326.703125 " fill-opacity="1" fill-rule="nonzero"/><path fill="#ffffff" d="M 666.605469 319.28125 L 679.933594 319.28125 L 679.933594 321.386719 L 666.605469 321.386719 Z M 680.585938 326.703125 C 682.691406 326.703125 684.398438 324.996094 684.398438 322.886719 L 684.398438 317.78125 C 684.398438 315.675781 682.691406 313.964844 680.585938 313.964844 L 665.957031 313.964844 C 663.851562 313.964844 662.140625 315.675781 662.140625 317.78125 L 662.140625 322.886719 C 662.140625 324.996094 663.851562 326.703125 665.957031 326.703125 L 680.585938 326.703125 " fill-opacity="1" fill-rule="nonzero"/><path fill="#ffffff" d="M 619.625 313.277344 L 616.636719 318.449219 L 613.730469 313.410156 C 615.691406 313.351562 617.660156 313.308594 619.625 313.277344 Z M 639.695312 320.074219 L 642.605469 325.113281 C 640.640625 325.171875 638.671875 325.214844 636.707031 325.25 Z M 648.71875 328.488281 C 650.597656 328.488281 652.132812 326.953125 652.132812 325.078125 L 652.132812 313.449219 C 652.132812 311.574219 650.597656 310.039062 648.71875 310.039062 L 607.613281 310.039062 C 605.734375 310.039062 604.203125 311.574219 604.203125 313.449219 L 604.203125 325.078125 C 604.203125 326.953125 605.734375 328.488281 607.613281 328.488281 L 648.71875 328.488281 " fill-opacity="1" fill-rule="nonzero"/><path fill="#4f4c4c" d="M 639.695312 320.074219 L 636.707031 325.25 C 638.671875 325.214844 640.640625 325.171875 642.605469 325.113281 L 639.695312 320.074219 " fill-opacity="1" fill-rule="nonzero"/><path fill="#4f4c4c" d="M 619.625 313.277344 C 617.660156 313.308594 615.691406 313.351562 613.730469 313.410156 L 616.636719 318.449219 L 619.625 313.277344 " fill-opacity="1" fill-rule="nonzero"/><path fill="#4f4c4c" d="M 679.933594 320.335938 C 679.933594 319.757812 678.945312 319.28125 677.734375 319.28125 L 668.808594 319.28125 C 667.59375 319.28125 666.605469 319.757812 666.605469 320.335938 C 666.605469 320.914062 667.59375 321.386719 668.808594 321.386719 L 677.734375 321.386719 C 678.945312 321.386719 679.933594 320.914062 679.933594 320.335938 " fill-opacity="1" fill-rule="nonzero"/><path fill="#4f4c4c" d="M 588.09375 321.386719 C 589.304688 321.386719 590.296875 320.914062 590.296875 320.335938 C 590.296875 319.757812 589.304688 319.28125 588.09375 319.28125 L 579.167969 319.28125 C 577.953125 319.28125 576.960938 319.757812 576.960938 320.335938 C 576.960938 320.914062 577.953125 321.386719 579.167969 321.386719 L 588.09375 321.386719 " fill-opacity="1" fill-rule="nonzero"/><path fill="#5e5b5c" d="M 581.226562 349.289062 L 582.5625 349.289062 L 582.5625 360.863281 L 581.046875 360.863281 L 581.046875 350.75 L 581.011719 350.75 L 579 351.835938 L 578.699219 350.640625 Z M 593.140625 363.636719 C 595.453125 363.636719 597.328125 361.867188 597.328125 359.683594 L 597.328125 350.464844 C 597.328125 348.28125 595.453125 346.515625 593.140625 346.515625 L 568.117188 346.515625 C 565.804688 346.515625 563.933594 348.28125 563.933594 350.464844 L 563.933594 359.683594 C 563.933594 361.867188 565.804688 363.636719 568.117188 363.636719 L 593.140625 363.636719 " fill-opacity="1" fill-rule="nonzero"/><path fill="#5e5b5c" d="M 627.714844 350.492188 C 626.660156 350.492188 625.789062 351.023438 625.253906 351.46875 L 624.757812 350.367188 C 625.558594 349.691406 626.699219 349.191406 628.035156 349.191406 C 630.527344 349.191406 631.578125 350.902344 631.578125 352.554688 C 631.578125 354.691406 630.027344 356.421875 627.589844 358.769531 L 626.660156 359.625 L 626.660156 359.660156 L 631.863281 359.660156 L 631.863281 360.960938 L 624.472656 360.960938 L 624.472656 360 L 625.699219 358.808594 C 628.65625 355.992188 629.992188 354.496094 630.007812 352.753906 C 630.007812 351.578125 629.4375 350.492188 627.714844 350.492188 Z M 640.679688 346.515625 L 615.65625 346.515625 C 613.34375 346.515625 611.46875 348.28125 611.46875 350.464844 L 611.46875 359.683594 C 611.46875 361.867188 613.34375 363.636719 615.65625 363.636719 L 640.679688 363.636719 C 642.988281 363.636719 644.863281 361.867188 644.863281 359.683594 L 644.863281 350.464844 C 644.863281 348.28125 642.988281 346.515625 640.679688 346.515625 " fill-opacity="1" fill-rule="nonzero"/><path fill="#5e5b5c" d="M 672.515625 359.066406 C 672.960938 359.347656 673.992188 359.792969 675.078125 359.792969 C 677.09375 359.792969 677.714844 358.511719 677.699219 357.550781 C 677.679688 355.929688 676.21875 355.234375 674.703125 355.234375 L 673.835938 355.234375 L 673.835938 354.0625 L 674.703125 354.0625 C 675.84375 354.0625 677.289062 353.472656 677.289062 352.101562 C 677.289062 351.175781 676.699219 350.355469 675.257812 350.355469 C 674.332031 350.355469 673.445312 350.765625 672.941406 351.121094 L 672.535156 349.984375 C 673.140625 349.539062 674.316406 349.09375 675.558594 349.09375 C 677.839844 349.09375 678.875 350.445312 678.875 351.851562 C 678.875 353.046875 678.15625 354.0625 676.734375 354.578125 L 676.734375 354.613281 C 678.15625 354.898438 679.316406 355.964844 679.316406 357.585938 C 679.316406 359.4375 677.875 361.058594 675.097656 361.058594 C 673.800781 361.058594 672.660156 360.648438 672.085938 360.273438 Z M 688.214844 346.515625 L 663.1875 346.515625 C 660.878906 346.515625 659.003906 348.28125 659.003906 350.464844 L 659.003906 359.683594 C 659.003906 361.867188 660.878906 363.636719 663.1875 363.636719 L 688.214844 363.636719 C 690.527344 363.636719 692.402344 361.867188 692.402344 359.683594 L 692.402344 350.464844 C 692.402344 348.28125 690.527344 346.515625 688.214844 346.515625 " fill-opacity="1" fill-rule="nonzero"/><path fill="#5e5b5c" d="M 576.390625 384.96875 L 576.390625 383.9375 L 581.554688 376.546875 L 583.246094 376.546875 L 583.246094 383.742188 L 584.867188 383.742188 L 584.867188 384.96875 L 583.246094 384.96875 L 583.246094 388.125 L 581.769531 388.125 L 581.769531 384.96875 Z M 597.328125 386.945312 L 597.328125 377.726562 C 597.328125 375.542969 595.453125 373.777344 593.140625 373.777344 L 568.117188 373.777344 C 565.804688 373.777344 563.933594 375.542969 563.933594 377.726562 L 563.933594 386.945312 C 563.933594 389.128906 565.804688 390.894531 568.117188 390.894531 L 593.140625 390.894531 C 595.453125 390.894531 597.328125 389.128906 597.328125 386.945312 " fill-opacity="1" fill-rule="nonzero"/><path fill="#5e5b5c" d="M 581.769531 379.878906 C 581.769531 379.273438 581.789062 378.667969 581.824219 378.0625 L 581.769531 378.0625 C 581.414062 378.738281 581.128906 379.238281 580.808594 379.773438 L 577.976562 383.707031 L 577.976562 383.742188 L 581.769531 383.742188 L 581.769531 379.878906 " fill-opacity="1" fill-rule="nonzero"/><path fill="#5e5b5c" d="M 624.960938 386.316406 C 625.441406 386.601562 626.386719 386.957031 627.4375 386.957031 C 628.914062 386.957031 630.179688 385.996094 630.179688 384.445312 C 630.160156 382.949219 629.164062 381.882812 626.847656 381.882812 C 626.191406 381.882812 625.671875 381.953125 625.246094 382.007812 L 625.996094 376.449219 L 631.53125 376.449219 L 631.53125 377.769531 L 627.117188 377.769531 L 626.667969 380.742188 C 626.9375 380.707031 627.1875 380.671875 627.613281 380.671875 C 628.503906 380.671875 629.394531 380.867188 630.109375 381.296875 C 631.015625 381.8125 631.761719 382.808594 631.761719 384.269531 C 631.761719 386.527344 629.964844 388.21875 627.453125 388.21875 C 626.191406 388.21875 625.121094 387.863281 624.570312 387.507812 Z M 644.863281 386.945312 L 644.863281 377.726562 C 644.863281 375.542969 642.988281 373.777344 640.679688 373.777344 L 615.65625 373.777344 C 613.34375 373.777344 611.46875 375.542969 611.46875 377.726562 L 611.46875 386.945312 C 611.46875 389.128906 613.34375 390.894531 615.65625 390.894531 L 640.679688 390.894531 C 642.988281 390.894531 644.863281 389.128906 644.863281 386.945312 " fill-opacity="1" fill-rule="nonzero"/><path fill="#5e5b5c" d="M 673.691406 378.160156 C 674.648438 377.21875 675.9375 376.628906 677.398438 376.453125 C 677.859375 376.382812 678.253906 376.363281 678.535156 376.363281 L 678.535156 377.644531 C 678.210938 377.628906 677.804688 377.644531 677.363281 377.714844 C 674.902344 378.125 673.605469 379.925781 673.335938 381.828125 L 673.386719 381.828125 C 673.941406 381.097656 674.902344 380.492188 676.183594 380.492188 C 678.230469 380.492188 679.675781 381.96875 679.675781 384.234375 C 679.675781 386.351562 678.230469 388.308594 675.828125 388.308594 C 673.351562 388.308594 671.734375 386.386719 671.734375 383.375 C 671.734375 381.097656 672.550781 379.300781 673.691406 378.160156 Z M 688.214844 373.777344 L 663.1875 373.777344 C 660.878906 373.777344 659.003906 375.542969 659.003906 377.726562 L 659.003906 386.945312 C 659.003906 389.128906 660.878906 390.894531 663.1875 390.894531 L 688.214844 390.894531 C 690.527344 390.894531 692.402344 389.128906 692.402344 386.945312 L 692.402344 377.726562 C 692.402344 375.542969 690.527344 373.777344 688.214844 373.777344 " fill-opacity="1" fill-rule="nonzero"/><path fill="#5e5b5c" d="M 675.828125 387.097656 C 677.183594 387.097656 678.085938 385.976562 678.085938 384.320312 C 678.085938 382.667969 677.144531 381.667969 675.703125 381.667969 C 674.757812 381.667969 673.890625 382.253906 673.460938 383.09375 C 673.351562 383.273438 673.28125 383.503906 673.28125 383.785156 C 673.316406 385.691406 674.191406 387.097656 675.828125 387.097656 " fill-opacity="1" fill-rule="nonzero"/><path fill="#5e5b5c" d="M 576.980469 405.109375 L 576.980469 403.808594 L 584.28125 403.808594 L 584.28125 404.84375 L 579.242188 415.382812 L 577.621094 415.382812 L 582.640625 405.144531 L 582.640625 405.109375 Z M 593.140625 418.15625 C 595.453125 418.15625 597.328125 416.386719 597.328125 414.207031 L 597.328125 404.988281 C 597.328125 402.804688 595.453125 401.035156 593.140625 401.035156 L 568.117188 401.035156 C 565.804688 401.035156 563.933594 402.804688 563.933594 404.988281 L 563.933594 414.207031 C 563.933594 416.386719 565.804688 418.15625 568.117188 418.15625 L 593.140625 418.15625 " fill-opacity="1" fill-rule="nonzero"/><path fill="#5e5b5c" d="M 626.539062 409.292969 C 625.253906 408.6875 624.703125 407.691406 624.703125 406.695312 C 624.703125 404.859375 626.25 403.613281 628.28125 403.613281 C 630.527344 403.613281 631.648438 405.019531 631.648438 406.460938 C 631.648438 407.441406 631.167969 408.492188 629.742188 409.167969 L 629.742188 409.222656 C 631.183594 409.796875 632.074219 410.804688 632.074219 412.214844 C 632.074219 414.226562 630.347656 415.578125 628.140625 415.578125 C 625.71875 415.578125 624.257812 414.136719 624.257812 412.441406 C 624.257812 410.984375 625.128906 409.949219 626.554688 409.347656 Z M 644.863281 404.988281 C 644.863281 402.804688 642.988281 401.035156 640.679688 401.035156 L 615.65625 401.035156 C 613.34375 401.035156 611.46875 402.804688 611.46875 404.988281 L 611.46875 414.207031 C 611.46875 416.386719 613.34375 418.15625 615.65625 418.15625 L 640.679688 418.15625 C 642.988281 418.15625 644.863281 416.386719 644.863281 414.207031 L 644.863281 404.988281 " fill-opacity="1" fill-rule="nonzero"/><path fill="#5e5b5c" d="M 628.175781 414.4375 C 629.582031 414.4375 630.492188 413.566406 630.492188 412.375 C 630.492188 410.964844 629.511719 410.292969 627.945312 409.84375 C 626.59375 410.234375 625.859375 411.128906 625.859375 412.230469 C 625.804688 413.40625 626.699219 414.4375 628.175781 414.4375 " fill-opacity="1" fill-rule="nonzero"/><path fill="#5e5b5c" d="M 628.390625 408.722656 C 629.386719 408.382812 630.152344 407.671875 630.152344 406.625 C 630.152344 405.695312 629.601562 404.734375 628.191406 404.734375 C 626.894531 404.734375 626.183594 405.589844 626.183594 406.585938 C 626.183594 407.742188 627.050781 408.367188 628.390625 408.722656 " fill-opacity="1" fill-rule="nonzero"/><path fill="#5e5b5c" d="M 659.003906 404.988281 L 659.003906 414.207031 C 659.003906 416.386719 660.878906 418.15625 663.1875 418.15625 L 670.660156 418.15625 C 671.457031 417.300781 672.246094 416.4375 673.03125 415.570312 C 672.945312 415.570312 672.863281 415.570312 672.792969 415.566406 L 672.792969 414.28125 C 673.128906 414.316406 673.523438 414.28125 674.054688 414.234375 C 674.125 414.222656 674.191406 414.207031 674.261719 414.199219 C 675.328125 412.996094 676.378906 411.78125 677.417969 410.554688 C 676.835938 411.015625 676.097656 411.277344 675.230469 411.277344 C 673.148438 411.277344 671.8125 409.707031 671.8125 407.730469 C 671.8125 405.542969 673.398438 403.617188 675.765625 403.617188 C 677.992188 403.617188 679.414062 405.320312 679.578125 407.980469 C 681.453125 405.703125 683.28125 403.386719 685.066406 401.035156 L 663.1875 401.035156 C 660.878906 401.035156 659.003906 402.804688 659.003906 404.988281 " fill-opacity="1" fill-rule="nonzero"/><path fill="#5e5b5c" d="M 675.640625 404.8125 C 674.304688 404.8125 673.359375 405.988281 673.359375 407.625 C 673.359375 409.066406 674.234375 410.082031 675.585938 410.082031 C 676.636719 410.082031 677.457031 409.566406 677.867188 408.867188 C 677.957031 408.730469 678.007812 408.550781 678.007812 408.300781 C 678.007812 406.324219 677.28125 404.8125 675.640625 404.8125 " fill-opacity="1" fill-rule="nonzero"/><path fill="#5e5b5c" d="M 586.566406 437.992188 L 581.515625 437.390625 L 581.515625 437.457031 L 584.726562 441.46875 L 582.617188 442.679688 L 580.609375 437.992188 L 580.546875 437.992188 L 578.375 442.710938 L 576.464844 441.503906 L 579.640625 437.425781 L 579.640625 437.355469 L 574.691406 437.992188 L 574.691406 435.722656 L 579.609375 436.351562 L 579.609375 436.289062 L 576.464844 432.203125 L 578.507812 431.039062 L 580.578125 435.6875 L 580.644531 435.6875 L 582.6875 431.003906 L 584.691406 432.136719 L 581.515625 436.320312 L 581.515625 436.390625 L 586.566406 435.722656 Z M 597.328125 432.242188 C 597.328125 430.066406 595.453125 428.296875 593.140625 428.296875 L 568.117188 428.296875 C 565.804688 428.296875 563.933594 430.066406 563.933594 432.242188 L 563.933594 441.464844 C 563.933594 443.648438 565.804688 445.417969 568.117188 445.417969 L 593.140625 445.417969 C 595.453125 445.417969 597.328125 443.648438 597.328125 441.464844 L 597.328125 432.242188 " fill-opacity="1" fill-rule="nonzero"/><path fill="#5e5b5c" d="M 628.265625 430.871094 C 630.703125 430.871094 632.09375 433.042969 632.09375 436.730469 C 632.09375 440.667969 630.632812 442.835938 628.070312 442.835938 C 625.808594 442.835938 624.277344 440.722656 624.242188 436.890625 C 624.242188 433.007812 625.914062 430.871094 628.265625 430.871094 Z M 644.863281 441.464844 L 644.863281 432.242188 C 644.863281 430.066406 642.988281 428.296875 640.679688 428.296875 L 615.65625 428.296875 C 613.34375 428.296875 611.46875 430.066406 611.46875 432.242188 L 611.46875 441.464844 C 611.46875 443.648438 613.34375 445.417969 615.65625 445.417969 L 640.101562 445.417969 C 641.699219 444.238281 643.28125 443.035156 644.84375 441.820312 C 644.855469 441.703125 644.863281 441.585938 644.863281 441.464844 " fill-opacity="1" fill-rule="nonzero"/><path fill="#5e5b5c" d="M 628.160156 441.628906 C 629.761719 441.628906 630.527344 439.757812 630.527344 436.800781 C 630.527344 433.953125 629.796875 432.082031 628.175781 432.082031 C 626.804688 432.082031 625.808594 433.757812 625.808594 436.90625 C 625.808594 439.917969 626.734375 441.628906 628.160156 441.628906 " fill-opacity="1" fill-rule="nonzero"/><path fill="#ee2532" d="M 574.050781 459.035156 C 573.636719 458.621094 573.636719 457.953125 574.050781 457.535156 C 574.464844 457.121094 575.136719 457.121094 575.550781 457.535156 L 580.628906 462.613281 L 585.710938 457.535156 C 586.125 457.121094 586.796875 457.121094 587.210938 457.535156 C 587.625 457.953125 587.625 458.621094 587.210938 459.035156 L 582.128906 464.117188 L 587.210938 469.195312 C 587.625 469.613281 587.625 470.28125 587.210938 470.695312 C 587.003906 470.902344 586.730469 471.007812 586.460938 471.007812 C 586.191406 471.007812 585.917969 470.902344 585.710938 470.695312 L 580.628906 465.617188 L 575.550781 470.695312 C 575.34375 470.902344 575.070312 471.007812 574.800781 471.007812 C 574.527344 471.007812 574.257812 470.902344 574.050781 470.695312 C 573.636719 470.28125 573.636719 469.613281 574.050781 469.195312 L 579.132812 464.117188 Z M 597.328125 468.726562 L 597.328125 459.507812 C 597.328125 457.324219 595.453125 455.554688 593.140625 455.554688 L 568.117188 455.554688 C 565.804688 455.554688 563.933594 457.324219 563.933594 459.507812 L 563.933594 468.726562 C 563.933594 470.90625 565.804688 472.675781 568.117188 472.675781 L 591.210938 472.675781 C 593.152344 471.898438 595.082031 471.09375 597 470.261719 C 597.210938 469.789062 597.328125 469.269531 597.328125 468.726562 " fill-opacity="1" fill-rule="nonzero"/><path fill="#e9d80f" d="M 615.65625 455.554688 C 613.34375 455.554688 611.46875 457.324219 611.46875 459.507812 L 611.46875 463.335938 C 616.121094 460.902344 620.671875 458.308594 625.121094 455.554688 L 615.65625 455.554688 " fill-opacity="1" fill-rule="nonzero"/><path fill="#ffffff" d="M 581.011719 350.75 L 581.046875 350.75 L 581.046875 360.863281 L 582.5625 360.863281 L 582.5625 349.289062 L 581.226562 349.289062 L 578.699219 350.640625 L 579 351.835938 L 581.011719 350.75 " fill-opacity="1" fill-rule="nonzero"/><path fill="#ffffff" d="M 625.699219 358.808594 L 624.472656 360 L 624.472656 360.960938 L 631.863281 360.960938 L 631.863281 359.660156 L 626.660156 359.660156 L 626.660156 359.625 L 627.589844 358.769531 C 630.027344 356.421875 631.578125 354.691406 631.578125 352.554688 C 631.578125 350.902344 630.527344 349.191406 628.035156 349.191406 C 626.699219 349.191406 625.558594 349.691406 624.757812 350.367188 L 625.253906 351.46875 C 625.789062 351.023438 626.660156 350.492188 627.714844 350.492188 C 629.4375 350.492188 630.007812 351.578125 630.007812 352.753906 C 629.992188 354.496094 628.65625 355.992188 625.699219 358.808594 " fill-opacity="1" fill-rule="nonzero"/><path fill="#ffffff" d="M 679.316406 357.585938 C 679.316406 355.964844 678.15625 354.898438 676.734375 354.613281 L 676.734375 354.578125 C 678.15625 354.0625 678.875 353.046875 678.875 351.851562 C 678.875 350.445312 677.839844 349.09375 675.558594 349.09375 C 674.316406 349.09375 673.140625 349.539062 672.535156 349.984375 L 672.941406 351.121094 C 673.445312 350.765625 674.332031 350.355469 675.257812 350.355469 C 676.699219 350.355469 677.289062 351.175781 677.289062 352.101562 C 677.289062 353.472656 675.84375 354.0625 674.703125 354.0625 L 673.835938 354.0625 L 673.835938 355.234375 L 674.703125 355.234375 C 676.21875 355.234375 677.679688 355.929688 677.699219 357.550781 C 677.714844 358.511719 677.09375 359.792969 675.078125 359.792969 C 673.992188 359.792969 672.960938 359.347656 672.515625 359.066406 L 672.085938 360.273438 C 672.660156 360.648438 673.800781 361.058594 675.097656 361.058594 C 677.875 361.058594 679.316406 359.4375 679.316406 357.585938 " fill-opacity="1" fill-rule="nonzero"/><path fill="#ffffff" d="M 577.976562 383.742188 L 577.976562 383.707031 L 580.808594 379.773438 C 581.128906 379.238281 581.414062 378.738281 581.769531 378.0625 L 581.824219 378.0625 C 581.789062 378.667969 581.769531 379.273438 581.769531 379.878906 L 581.769531 383.742188 Z M 581.769531 388.125 L 583.246094 388.125 L 583.246094 384.96875 L 584.867188 384.96875 L 584.867188 383.742188 L 583.246094 383.742188 L 583.246094 376.546875 L 581.554688 376.546875 L 576.390625 383.9375 L 576.390625 384.96875 L 581.769531 384.96875 L 581.769531 388.125 " fill-opacity="1" fill-rule="nonzero"/><path fill="#ffffff" d="M 631.761719 384.269531 C 631.761719 382.808594 631.015625 381.8125 630.109375 381.296875 C 629.394531 380.867188 628.503906 380.671875 627.613281 380.671875 C 627.1875 380.671875 626.9375 380.707031 626.667969 380.742188 L 627.117188 377.769531 L 631.53125 377.769531 L 631.53125 376.449219 L 625.996094 376.449219 L 625.246094 382.007812 C 625.671875 381.953125 626.191406 381.882812 626.847656 381.882812 C 629.164062 381.882812 630.160156 382.949219 630.179688 384.445312 C 630.179688 385.996094 628.914062 386.957031 627.4375 386.957031 C 626.386719 386.957031 625.441406 386.601562 624.960938 386.316406 L 624.570312 387.507812 C 625.121094 387.863281 626.191406 388.21875 627.453125 388.21875 C 629.964844 388.21875 631.761719 386.527344 631.761719 384.269531 " fill-opacity="1" fill-rule="nonzero"/><path fill="#ffffff" d="M 673.460938 383.09375 C 673.890625 382.253906 674.757812 381.667969 675.703125 381.667969 C 677.144531 381.667969 678.085938 382.667969 678.085938 384.320312 C 678.085938 385.976562 677.183594 387.097656 675.828125 387.097656 C 674.191406 387.097656 673.316406 385.691406 673.28125 383.785156 C 673.28125 383.503906 673.351562 383.273438 673.460938 383.09375 Z M 675.828125 388.308594 C 678.230469 388.308594 679.675781 386.351562 679.675781 384.234375 C 679.675781 381.96875 678.230469 380.492188 676.183594 380.492188 C 674.902344 380.492188 673.941406 381.097656 673.386719 381.828125 L 673.335938 381.828125 C 673.605469 379.925781 674.902344 378.125 677.363281 377.714844 C 677.804688 377.644531 678.210938 377.628906 678.535156 377.644531 L 678.535156 376.363281 C 678.253906 376.363281 677.859375 376.382812 677.398438 376.453125 C 675.9375 376.628906 674.648438 377.21875 673.691406 378.160156 C 672.550781 379.300781 671.734375 381.097656 671.734375 383.375 C 671.734375 386.386719 673.351562 388.308594 675.828125 388.308594 " fill-opacity="1" fill-rule="nonzero"/><path fill="#ffffff" d="M 577.621094 415.382812 L 579.242188 415.382812 L 584.28125 404.84375 L 584.28125 403.808594 L 576.980469 403.808594 L 576.980469 405.109375 L 582.640625 405.109375 L 582.640625 405.144531 L 577.621094 415.382812 " fill-opacity="1" fill-rule="nonzero"/><path fill="#ffffff" d="M 627.945312 409.84375 C 629.511719 410.292969 630.492188 410.964844 630.492188 412.375 C 630.492188 413.566406 629.582031 414.4375 628.175781 414.4375 C 626.699219 414.4375 625.804688 413.40625 625.859375 412.230469 C 625.859375 411.128906 626.59375 410.234375 627.945312 409.84375 Z M 626.183594 406.585938 C 626.183594 405.589844 626.894531 404.734375 628.191406 404.734375 C 629.601562 404.734375 630.152344 405.695312 630.152344 406.625 C 630.152344 407.671875 629.386719 408.382812 628.390625 408.722656 C 627.050781 408.367188 626.183594 407.742188 626.183594 406.585938 Z M 624.257812 412.441406 C 624.257812 414.136719 625.71875 415.578125 628.140625 415.578125 C 630.347656 415.578125 632.074219 414.226562 632.074219 412.214844 C 632.074219 410.804688 631.183594 409.796875 629.742188 409.222656 L 629.742188 409.167969 C 631.167969 408.492188 631.648438 407.441406 631.648438 406.460938 C 631.648438 405.019531 630.527344 403.613281 628.28125 403.613281 C 626.25 403.613281 624.703125 404.859375 624.703125 406.695312 C 624.703125 407.691406 625.253906 408.6875 626.539062 409.292969 L 626.554688 409.347656 C 625.128906 409.949219 624.257812 410.984375 624.257812 412.441406 " fill-opacity="1" fill-rule="nonzero"/><path fill="#ffffff" d="M 672.792969 414.28125 L 672.792969 415.566406 C 672.863281 415.570312 672.945312 415.570312 673.03125 415.570312 C 673.441406 415.117188 673.855469 414.65625 674.261719 414.199219 C 674.191406 414.207031 674.125 414.222656 674.054688 414.234375 C 673.523438 414.28125 673.128906 414.316406 672.792969 414.28125 " fill-opacity="1" fill-rule="nonzero"/><path fill="#ffffff" d="M 675.585938 410.082031 C 674.234375 410.082031 673.359375 409.066406 673.359375 407.625 C 673.359375 405.988281 674.304688 404.8125 675.640625 404.8125 C 677.28125 404.8125 678.007812 406.324219 678.007812 408.300781 C 678.007812 408.550781 677.957031 408.730469 677.867188 408.867188 C 677.457031 409.566406 676.636719 410.082031 675.585938 410.082031 Z M 675.765625 403.617188 C 673.398438 403.617188 671.8125 405.542969 671.8125 407.730469 C 671.8125 409.707031 673.148438 411.277344 675.230469 411.277344 C 676.097656 411.277344 676.835938 411.015625 677.417969 410.554688 C 678.140625 409.699219 678.867188 408.847656 679.578125 407.980469 C 679.414062 405.320312 677.992188 403.617188 675.765625 403.617188 " fill-opacity="1" fill-rule="nonzero"/><path fill="#ffffff" d="M 628.175781 432.082031 C 629.796875 432.082031 630.527344 433.953125 630.527344 436.800781 C 630.527344 439.757812 629.761719 441.628906 628.160156 441.628906 C 626.734375 441.628906 625.808594 439.917969 625.808594 436.90625 C 625.808594 433.757812 626.804688 432.082031 628.175781 432.082031 Z M 628.070312 442.835938 C 630.632812 442.835938 632.09375 440.667969 632.09375 436.730469 C 632.09375 433.042969 630.703125 430.871094 628.265625 430.871094 C 625.914062 430.871094 624.242188 433.007812 624.242188 436.890625 C 624.277344 440.722656 625.808594 442.835938 628.070312 442.835938 " fill-opacity="1" fill-rule="nonzero"/><path fill="#ffffff" d="M 581.515625 436.320312 L 584.691406 432.136719 L 582.6875 431.003906 L 580.644531 435.6875 L 580.578125 435.6875 L 578.507812 431.039062 L 576.464844 432.203125 L 579.609375 436.289062 L 579.609375 436.351562 L 574.691406 435.722656 L 574.691406 437.992188 L 579.640625 437.355469 L 579.640625 437.425781 L 576.464844 441.503906 L 578.375 442.710938 L 580.546875 437.992188 L 580.609375 437.992188 L 582.617188 442.679688 L 584.726562 441.46875 L 581.515625 437.457031 L 581.515625 437.390625 L 586.566406 437.992188 L 586.566406 435.722656 L 581.515625 436.390625 L 581.515625 436.320312 " fill-opacity="1" fill-rule="nonzero"/><path fill="#ffffff" d="M 574.050781 470.695312 C 574.257812 470.902344 574.527344 471.007812 574.800781 471.007812 C 575.070312 471.007812 575.34375 470.902344 575.550781 470.695312 L 580.628906 465.617188 L 585.710938 470.695312 C 585.917969 470.902344 586.191406 471.007812 586.460938 471.007812 C 586.730469 471.007812 587.003906 470.902344 587.210938 470.695312 C 587.625 470.28125 587.625 469.613281 587.210938 469.195312 L 582.128906 464.117188 L 587.210938 459.035156 C 587.625 458.621094 587.625 457.953125 587.210938 457.535156 C 586.796875 457.121094 586.125 457.121094 585.710938 457.535156 L 580.628906 462.613281 L 575.550781 457.535156 C 575.136719 457.121094 574.464844 457.121094 574.050781 457.535156 C 573.636719 457.953125 573.636719 458.621094 574.050781 459.035156 L 579.132812 464.117188 L 574.050781 469.195312 C 573.636719 469.613281 573.636719 470.28125 574.050781 470.695312 " fill-opacity="1" fill-rule="nonzero"/></svg>