<svg xmlns="http://www.w3.org/2000/svg" xmlns:xlink="http://www.w3.org/1999/xlink" width="1366" zoomAndPan="magnify" viewBox="0 0 1024.5 576" height="768" preserveAspectRatio="xMidYMid meet" version="1.0"><defs><clipPath id="0d1a91573f"><path d="M 315.039062 93.59375 L 679.539062 93.59375 L 679.539062 458.09375 L 315.039062 458.09375 Z M 315.039062 93.59375 " clip-rule="nonzero"/></clipPath></defs><g clip-path="url(#0d1a91573f)"><path fill="#3f729b" d="M 497.210938 126.460938 C 545.847656 126.460938 551.597656 126.621094 570.84375 127.496094 C 588.574219 128.296875 598.238281 131.25 604.707031 133.808594 C 613.171875 137.082031 619.242188 141.074219 625.632812 147.464844 C 632.019531 153.851562 635.933594 159.921875 639.289062 168.386719 C 641.761719 174.777344 644.71875 184.441406 645.597656 202.25 C 646.476562 221.5 646.636719 227.25 646.636719 275.886719 C 646.636719 324.523438 646.476562 330.273438 645.597656 349.519531 C 644.796875 367.25 641.84375 376.914062 639.289062 383.382812 C 636.011719 391.847656 632.019531 397.917969 625.632812 404.308594 C 619.242188 410.695312 613.171875 414.609375 604.707031 417.964844 C 598.316406 420.441406 588.652344 423.394531 570.84375 424.273438 C 551.597656 425.152344 545.847656 425.3125 497.210938 425.3125 C 448.570312 425.3125 442.820312 425.152344 423.574219 424.273438 C 405.84375 423.472656 396.179688 420.519531 389.710938 417.964844 C 381.246094 414.6875 375.175781 410.695312 368.789062 404.308594 C 362.398438 397.917969 358.484375 391.847656 355.132812 383.382812 C 352.65625 376.992188 349.699219 367.328125 348.820312 349.519531 C 347.941406 330.273438 347.785156 324.523438 347.785156 275.886719 C 347.785156 227.25 347.941406 221.5 348.820312 202.25 C 349.621094 184.519531 352.574219 174.855469 355.132812 168.386719 C 358.40625 159.921875 362.398438 153.851562 368.789062 147.464844 C 375.175781 141.074219 381.246094 137.160156 389.710938 133.808594 C 396.101562 131.332031 405.765625 128.375 423.574219 127.496094 C 442.820312 126.621094 448.570312 126.460938 497.210938 126.460938 M 497.210938 93.636719 C 447.695312 93.636719 441.542969 93.875 422.058594 94.753906 C 402.648438 95.632812 389.394531 98.746094 377.8125 103.21875 C 365.832031 107.851562 355.691406 114.082031 345.546875 124.222656 C 335.484375 134.367188 329.253906 144.507812 324.621094 156.488281 C 320.152344 168.070312 317.035156 181.328125 316.15625 200.734375 C 315.277344 220.140625 315.039062 226.371094 315.039062 275.804688 C 315.039062 325.320312 315.277344 331.472656 316.15625 350.957031 C 317.035156 370.363281 320.152344 383.621094 324.621094 395.203125 C 329.253906 407.183594 335.484375 417.324219 345.628906 427.46875 C 355.769531 437.609375 365.914062 443.839844 377.890625 448.472656 C 389.472656 452.945312 402.730469 456.058594 422.136719 456.9375 C 441.542969 457.816406 447.773438 458.054688 497.289062 458.054688 C 546.804688 458.054688 552.953125 457.816406 572.441406 456.9375 C 591.847656 456.058594 605.105469 452.945312 616.6875 448.472656 C 628.664062 443.839844 638.808594 437.609375 648.953125 427.46875 C 659.09375 417.324219 665.324219 407.183594 669.957031 395.203125 C 674.429688 383.621094 677.542969 370.363281 678.421875 350.957031 C 679.300781 331.550781 679.539062 325.320312 679.539062 275.804688 C 679.539062 226.289062 679.300781 220.140625 678.421875 200.652344 C 677.542969 181.246094 674.429688 167.988281 669.957031 156.410156 C 665.324219 144.429688 659.09375 134.285156 648.953125 124.144531 C 638.808594 114 628.664062 107.773438 616.6875 103.140625 C 605.105469 98.667969 591.847656 95.550781 572.441406 94.671875 C 552.953125 93.875 546.726562 93.636719 497.210938 93.636719 " fill-opacity="1" fill-rule="nonzero"/></g><path fill="#ffffff" d="M 497.210938 182.285156 C 445.539062 182.285156 403.6875 224.132812 403.6875 275.804688 C 403.6875 327.476562 445.617188 369.40625 497.289062 369.40625 C 548.960938 369.40625 590.890625 327.558594 590.890625 275.804688 C 590.808594 224.132812 548.882812 182.285156 497.210938 182.285156 M 497.210938 336.582031 C 463.667969 336.582031 436.511719 309.429688 436.511719 275.886719 C 436.511719 242.34375 463.667969 215.1875 497.210938 215.1875 C 530.753906 215.1875 557.90625 242.34375 557.90625 275.886719 C 557.984375 309.347656 530.753906 336.582031 497.210938 336.582031 " fill-opacity="1" fill-rule="nonzero"/><path fill="#ffffff" d="M 616.367188 178.609375 C 616.367188 190.671875 606.542969 200.492188 594.484375 200.492188 C 582.425781 200.492188 572.601562 190.671875 572.601562 178.609375 C 572.601562 166.550781 582.425781 156.726562 594.484375 156.726562 C 606.542969 156.726562 616.367188 166.472656 616.367188 178.609375 " fill-opacity="1" fill-rule="nonzero"/></svg>