<svg xmlns="http://www.w3.org/2000/svg" xmlns:xlink="http://www.w3.org/1999/xlink" width="1366" zoomAndPan="magnify" viewBox="0 0 1024.5 576" height="768" preserveAspectRatio="xMidYMid meet" version="1.0"><defs><clipPath id="8425d43b7b"><path d="M 287.523438 114.125 L 691.773438 114.125 L 691.773438 518.375 L 287.523438 518.375 Z M 287.523438 114.125 " clip-rule="nonzero"/></clipPath></defs><g clip-path="url(#8425d43b7b)"><path fill="#0e76a8" d="M 658.003906 114.125 L 321.5 114.125 C 302.894531 114.125 287.929688 129.292969 287.929688 147.695312 L 287.929688 484.804688 C 287.929688 503.410156 303.097656 518.375 321.5 518.375 L 657.800781 518.375 C 676.40625 518.375 691.371094 503.207031 691.371094 484.804688 L 691.371094 147.695312 C 691.574219 129.292969 676.609375 114.125 658.003906 114.125 Z M 407.445312 447.597656 L 347.789062 447.597656 L 347.789062 268.425781 L 407.445312 268.425781 Z M 377.515625 246.785156 C 358.707031 246.785156 343.542969 231.621094 343.542969 212.8125 C 343.542969 194.003906 358.707031 178.839844 377.515625 178.839844 C 396.324219 178.839844 411.488281 194.003906 411.488281 212.8125 C 411.488281 231.621094 396.324219 246.785156 377.515625 246.785156 Z M 631.914062 447.597656 L 572.058594 447.597656 L 570.640625 341.226562 C 570.640625 341.226562 572.058594 312.914062 541.117188 313.117188 C 510.175781 313.320312 505.929688 341.226562 505.929688 341.226562 L 505.929688 447.597656 L 445.664062 447.597656 L 445.664062 268.425781 L 503.503906 268.425781 L 503.503906 293.097656 C 503.503906 293.097656 505.929688 285.007812 519.277344 275.503906 C 532.621094 265.996094 554.664062 263.976562 564.171875 264.378906 C 573.675781 264.785156 586.617188 263.167969 608.253906 278.132812 C 631.511719 294.105469 632.117188 335.96875 632.117188 335.96875 Z M 631.914062 447.597656 " fill-opacity="1" fill-rule="nonzero"/></g></svg>