<svg xmlns="http://www.w3.org/2000/svg" xmlns:xlink="http://www.w3.org/1999/xlink" width="1366" zoomAndPan="magnify" viewBox="0 0 1024.5 576" height="768" preserveAspectRatio="xMidYMid meet" version="1.0"><defs><clipPath id="e72682a525"><path d="M 287.730469 86.800781 L 530 86.800781 L 530 489.550781 L 287.730469 489.550781 Z M 287.730469 86.800781 " clip-rule="nonzero"/></clipPath><clipPath id="eadc9c186b"><path d="M 545 230 L 690.480469 230 L 690.480469 466 L 545 466 Z M 545 230 " clip-rule="nonzero"/></clipPath></defs><path fill="#127CD6" d="M 406.5 240.371094 C 395.882812 240.371094 387.449219 244.730469 381.207031 253.4375 C 374.957031 262.144531 371.832031 273.679688 371.832031 288.015625 C 371.832031 302.5625 374.964844 314.074219 381.207031 322.554688 C 387.460938 331.023438 395.636719 335.265625 405.753906 335.265625 C 416.175781 335.265625 424.457031 331.144531 430.578125 322.917969 C 436.691406 314.695312 439.761719 303.265625 439.761719 288.644531 C 439.761719 273.414062 436.796875 261.5625 430.859375 253.089844 C 424.921875 244.609375 416.804688 240.371094 406.5 240.371094 Z M 406.5 240.371094 " fill-opacity="1" fill-rule="nonzero"/><path fill="#ffffff" d="M 658.261719 417.058594 L 617.984375 417.058594 L 617.984375 360.671875 L 634.09375 360.671875 L 634.09375 400.949219 L 658.261719 400.949219 Z M 658.261719 417.058594 " fill-opacity="1" fill-rule="nonzero"/><g clip-path="url(#e72682a525)"><path fill="#ffffff" d="M 526.464844 88.648438 C 524.613281 87.117188 522.171875 86.488281 519.820312 86.9375 L 294.277344 129.898438 C 290.476562 130.621094 287.730469 133.949219 287.730469 137.816406 L 287.730469 438.539062 C 287.730469 442.40625 290.476562 445.734375 294.277344 446.449219 L 519.820312 489.40625 C 520.316406 489.503906 520.824219 489.550781 521.324219 489.550781 C 523.179688 489.550781 525.007812 488.90625 526.464844 487.707031 C 528.308594 486.167969 529.378906 483.898438 529.378906 481.496094 L 529.378906 94.855469 C 529.378906 92.457031 528.308594 90.175781 526.464844 88.648438 Z M 453.195312 342.636719 C 440.921875 356.773438 424.914062 363.855469 405.179688 363.855469 C 385.953125 363.855469 370.269531 357 358.15625 343.304688 C 346.046875 329.605469 339.984375 311.753906 339.984375 289.765625 C 339.984375 266.535156 346.136719 247.75 358.4375 233.410156 C 370.753906 219.066406 387.039062 211.886719 407.347656 211.886719 C 426.519531 211.886719 442.023438 218.757812 453.855469 232.484375 C 465.679688 246.226562 471.601562 264.328125 471.601562 286.792969 C 471.601562 309.886719 465.464844 328.492188 453.195312 342.636719 Z M 453.195312 342.636719 " fill-opacity="1" fill-rule="nonzero"/></g><path fill="#ffffff" d="M 545.488281 273.355469 L 559.644531 285.011719 L 682.425781 211.703125 L 682.425781 183.460938 C 682.425781 179.015625 678.824219 175.40625 674.371094 175.40625 L 545.488281 175.40625 Z M 545.488281 273.355469 " fill-opacity="1" fill-rule="nonzero"/><g clip-path="url(#eadc9c186b)"><path fill="#ffffff" d="M 682.257812 369.539062 C 682.265625 369.550781 682.273438 369.558594 682.28125 369.574219 C 682.296875 369.273438 682.425781 369.015625 682.425781 368.726562 L 682.425781 230.464844 L 563.035156 301.757812 C 561.753906 302.523438 560.328125 302.902344 558.902344 302.902344 C 557.074219 302.902344 555.261719 302.28125 553.777344 301.058594 L 545.488281 294.226562 L 545.488281 392.890625 L 562.15625 392.890625 C 562.15625 392.882812 562.164062 392.867188 562.164062 392.859375 C 561.824219 395.519531 561.601562 398.199219 561.601562 400.949219 C 561.601562 436.476562 590.507812 465.386719 626.039062 465.386719 C 661.570312 465.386719 690.480469 436.476562 690.480469 400.949219 C 690.480469 389.542969 687.476562 378.84375 682.257812 369.539062 Z M 626.039062 449.277344 C 599.386719 449.277344 577.710938 427.601562 577.710938 400.949219 C 577.710938 374.292969 599.386719 352.617188 626.039062 352.617188 C 652.695312 352.617188 674.371094 374.292969 674.371094 400.949219 C 674.371094 427.601562 652.695312 449.277344 626.039062 449.277344 Z M 626.039062 449.277344 " fill-opacity="1" fill-rule="nonzero"/></g></svg>