<svg xmlns="http://www.w3.org/2000/svg" xmlns:xlink="http://www.w3.org/1999/xlink" width="1366" zoomAndPan="magnify" viewBox="0 0 1024.5 576" height="768" preserveAspectRatio="xMidYMid meet" version="1.0"><path stroke-linecap="butt" transform="matrix(1.975, 0, 0, 1.975, 72.648798, 168.323791)" fill="none" stroke-linejoin="miter" d="M 123.516421 47.533836 L 98.178211 14.149741 L 97.970537 14.149741 L 97.970537 36.922682 C 97.970537 38.702745 98.03185 40.108995 98.152499 41.141432 C 98.275126 42.165957 98.522356 42.96303 98.894192 43.536606 C 99.268005 44.100292 99.802024 44.474105 100.496249 44.656067 C 101.190473 44.830118 102.106217 44.934944 103.24348 44.968567 L 103.24348 46.999817 L 88.896171 46.999817 L 88.896171 44.968567 C 90.146171 44.934944 91.152895 44.822207 91.916344 44.630355 C 92.679794 44.430593 93.275126 44.066669 93.700363 43.536606 C 94.125601 42.998631 94.408433 42.243093 94.546882 41.27197 C 94.693243 40.290957 94.768401 38.965799 94.768401 37.300451 L 94.768401 15.646972 C 94.768401 14.155674 94.703132 12.917542 94.572594 11.936529 C 94.449968 10.955517 94.202737 10.184156 93.830901 9.620469 C 93.457088 9.046893 92.915158 8.647368 92.203132 8.421893 C 91.491107 8.186529 90.567452 8.036213 89.43019 7.96501 L 89.43019 5.935738 L 99.987942 5.935738 L 123.294902 37.027508 L 123.516421 37.027508 L 123.516421 16.012874 C 123.516421 14.276323 123.451152 12.883918 123.320614 11.833681 C 123.199965 10.783444 122.950756 9.974504 122.578921 9.410817 C 122.205108 8.839219 121.671089 8.465406 120.976864 8.291355 C 120.282639 8.109393 119.366896 8.000612 118.229633 7.96501 L 118.229633 5.935738 L 132.576942 5.935738 L 132.576942 7.96501 C 131.336832 8.000612 130.330107 8.117305 129.556768 8.317067 C 128.793319 8.508919 128.197987 8.872843 127.77275 9.410817 C 127.347512 9.940881 127.060724 10.70433 126.914364 11.703143 C 126.775914 12.692067 126.70669 14.007336 126.70669 15.646972 L 126.70669 47.533836 Z M 151.932162 18.200373 C 153.963412 18.200373 155.881924 18.564298 157.685722 19.294123 C 159.501386 20.021971 161.093554 21.028696 162.464202 22.314297 C 163.836829 23.590009 164.920689 25.108996 165.71974 26.871259 C 166.518791 28.633521 166.918316 30.559945 166.918316 32.652508 C 166.918316 34.822208 166.518791 36.8139 165.71974 38.627587 C 164.920689 40.441273 163.836829 42.009707 162.464202 43.328931 C 161.093554 44.638267 159.501386 45.666748 157.685722 46.414374 C 155.881924 47.160023 153.963412 47.533836 151.932162 47.533836 C 149.944425 47.533836 148.051624 47.169912 146.255738 46.440086 C 144.457875 45.71026 142.883508 44.691669 141.528682 43.380356 C 140.183745 42.061131 139.119663 40.484786 138.338413 38.653299 C 137.557163 36.821812 137.167527 34.822208 137.167527 32.652508 C 137.167527 30.559945 137.557163 28.623632 138.338413 26.845547 C 139.119663 25.065484 140.183745 23.538585 141.528682 22.262873 C 142.883508 20.977272 144.457875 19.978459 146.255738 19.266434 C 148.051624 18.556386 149.944425 18.200373 151.932162 18.200373 Z M 151.932162 20.765642 C 150.620849 20.765642 149.422273 21.050452 148.338412 21.624028 C 147.252574 22.187715 146.328919 22.994677 145.56547 24.044914 C 144.800042 25.095151 144.210644 26.358996 143.793318 27.834471 C 143.385881 29.302034 143.182163 30.923869 143.182163 32.703932 C 143.182163 34.55322 143.385881 36.224502 143.793318 37.715799 C 144.210644 39.209074 144.800042 40.48083 145.56547 41.531068 C 146.328919 42.581305 147.244662 43.3942 148.3127 43.965799 C 149.37876 44.531463 150.585248 44.812317 151.932162 44.812317 C 153.28501 44.812317 154.513254 44.531463 155.616893 43.965799 C 156.718554 43.3942 157.66001 42.573394 158.44126 41.505356 C 159.22251 40.437318 159.825753 39.15765 160.25099 37.664375 C 160.676228 36.1711 160.889835 34.517619 160.889835 32.703932 C 160.889835 30.923869 160.676228 29.309945 160.25099 27.860183 C 159.825753 26.402509 159.22251 25.148553 158.44126 24.098316 C 157.66001 23.048079 156.718554 22.231228 155.616893 21.64974 C 154.513254 21.060342 153.28501 20.765642 151.932162 20.765642 Z M 174.062303 46.999817 L 172.889439 46.999817 L 172.889439 37.820625 L 174.23042 37.820625 C 175.610958 42.838425 178.132714 45.346336 181.795688 45.346336 C 183.219739 45.346336 184.347112 45.000213 185.179786 44.304011 C 186.022349 43.609786 186.443631 42.551637 186.443631 41.127587 C 186.443631 40.597523 186.360561 40.146574 186.1964 39.774739 C 186.04015 39.400925 185.735561 39.009312 185.284612 38.601875 C 184.841574 38.194438 184.22053 37.725688 183.423457 37.195625 C 182.624406 36.65765 181.566258 35.981226 180.245055 35.164375 C 179.038568 34.418727 177.988331 33.724502 177.094343 33.081701 C 176.210245 32.438901 175.462619 31.792144 174.85542 31.141433 C 174.256132 30.482809 173.805182 29.778695 173.502572 29.033047 C 173.197983 28.28542 173.045689 27.413189 173.045689 26.414376 C 173.045689 25.207889 173.249407 24.098316 173.658822 23.081702 C 174.07417 22.067066 174.633901 21.202747 175.338014 20.490721 C 176.05004 19.778696 176.886669 19.218965 177.849881 18.811529 C 178.813093 18.404092 179.863331 18.200373 181.000593 18.200373 C 181.955894 18.200373 182.950751 18.35069 183.983188 18.655279 C 185.015624 18.959867 185.923457 19.359392 186.704707 19.853854 L 187.770767 18.734392 L 188.78738 18.734392 L 188.78738 26.414376 L 187.392998 26.414376 C 186.613726 24.244677 185.757317 22.699978 184.829707 21.780278 C 183.90803 20.85069 182.776701 20.387873 181.431764 20.387873 C 180.215387 20.387873 179.244264 20.708285 178.514438 21.351085 C 177.784612 21.991908 177.420688 22.88194 177.420688 24.019202 C 177.420688 24.61849 177.515625 25.144598 177.707476 25.595547 C 177.907239 26.038585 178.219739 26.471734 178.644976 26.896971 C 179.078125 27.322208 179.620055 27.757335 180.272745 28.198395 C 180.931368 28.641433 181.726463 29.14974 182.654074 29.723316 C 184.18295 30.676638 185.48833 31.533046 186.574169 32.286606 C 187.658029 33.034233 188.536194 33.77197 189.204706 34.499818 C 189.88113 35.221733 190.379548 35.977271 190.701937 36.766432 C 191.022349 37.547682 191.182554 38.433758 191.182554 39.422682 C 191.182554 41.948394 190.361747 43.932175 188.722111 45.372048 C 187.090387 46.8139 184.942444 47.533836 182.276305 47.533836 C 179.507318 47.533836 177.125989 46.734786 175.128363 45.138662 Z M 211.018391 18.200373 C 213.049641 18.200373 214.968154 18.564298 216.773929 19.294123 C 218.587615 20.021971 220.179783 21.028696 221.552409 22.314297 C 222.923058 23.590009 224.008896 25.108996 224.807947 26.871259 C 225.60502 28.633521 226.004545 30.559945 226.004545 32.652508 C 226.004545 34.822208 225.60502 36.8139 224.807947 38.627587 C 224.008896 40.441273 222.923058 42.009707 221.552409 43.328931 C 220.179783 44.638267 218.587615 45.666748 216.773929 46.414374 C 214.968154 47.160023 213.049641 47.533836 211.018391 47.533836 C 209.030654 47.533836 207.139831 47.169912 205.341968 46.440086 C 203.546082 45.71026 201.969737 44.691669 200.616889 43.380356 C 199.269974 42.061131 198.20787 40.484786 197.42662 38.653299 C 196.64537 36.821812 196.253756 34.822208 196.253756 32.652508 C 196.253756 30.559945 196.64537 28.623632 197.42662 26.845547 C 198.20787 25.065484 199.269974 23.538585 200.616889 22.262873 C 201.969737 20.977272 203.546082 19.978459 205.341968 19.266434 C 207.139831 18.556386 209.030654 18.200373 211.018391 18.200373 Z M 211.018391 20.765642 C 209.709056 20.765642 208.51048 21.050452 207.424641 21.624028 C 206.340781 22.187715 205.415148 22.994677 204.651699 24.044914 C 203.888249 25.095151 203.298851 26.358996 202.881525 27.834471 C 202.474088 29.302034 202.27037 30.923869 202.27037 32.703932 C 202.27037 34.55322 202.474088 36.224502 202.881525 37.715799 C 203.298851 39.209074 203.888249 40.48083 204.651699 41.531068 C 205.415148 42.581305 206.330892 43.3942 207.398929 43.965799 C 208.466967 44.531463 209.673455 44.812317 211.018391 44.812317 C 212.373217 44.812317 213.601461 44.531463 214.703122 43.965799 C 215.806761 43.3942 216.748217 42.573394 217.529467 41.505356 C 218.310717 40.437318 218.91396 39.15765 219.339197 37.664375 C 219.764435 36.1711 219.976064 34.517619 219.976064 32.703932 C 219.976064 30.923869 219.764435 29.309945 219.339197 27.860183 C 218.91396 26.402509 218.310717 25.148553 217.529467 24.098316 C 216.748217 23.048079 215.806761 22.231228 214.703122 21.64974 C 213.601461 21.060342 212.373217 20.765642 211.018391 20.765642 Z M 230.701934 22.092778 L 230.701934 20.126797 C 232.584845 19.025136 234.06032 17.921497 235.128357 16.819836 C 236.196395 15.718174 237.011269 14.402905 237.574955 12.874029 L 239.125588 12.874029 L 239.125588 19.592778 L 246.273531 19.592778 L 246.273531 22.092778 L 239.125588 22.092778 L 239.125588 38.30322 C 239.125588 39.55322 239.184924 40.603457 239.30755 41.453932 C 239.438088 42.304406 239.641806 42.990719 239.918705 43.510893 C 240.205493 44.023156 240.579306 44.38708 241.038167 44.604643 C 241.506917 44.812317 242.098294 44.917143 242.810319 44.917143 C 243.694417 44.917143 244.445999 44.729248 245.063088 44.357412 C 245.688088 43.983599 246.303198 43.354644 246.910398 42.468568 L 248.239511 43.485181 C 247.745049 44.794517 246.88073 45.797286 245.648531 46.49151 C 244.424243 47.185735 242.909211 47.533836 241.103436 47.533836 C 238.751775 47.533836 236.9638 46.974105 235.739512 45.854643 C 234.515225 44.735181 233.90407 43.125213 233.90407 41.024739 L 233.90407 22.092778 Z M 260.559526 38.524739 C 260.559526 39.982413 260.59315 41.137476 260.662374 41.987951 C 260.741488 42.838425 260.927406 43.489137 261.224083 43.940086 C 261.526694 44.383124 261.96182 44.673868 262.525507 44.812317 C 263.097105 44.950767 263.900111 45.059548 264.934526 45.138662 L 264.934526 46.999817 L 250.755334 46.999817 L 250.755334 45.138662 C 251.779859 45.103061 252.594733 45.008124 253.201932 44.851874 C 253.811109 44.687713 254.26997 44.391036 254.58247 43.965799 C 254.904859 43.53265 255.108577 42.915561 255.195603 42.116511 C 255.290539 41.319438 255.338008 40.243489 255.338008 38.888663 L 255.338008 32.652508 C 255.338008 30.239534 255.312296 28.354645 255.260872 27.001797 C 255.20747 25.646971 255.029463 24.654091 254.726853 24.019202 C 254.422264 23.376402 253.949558 22.994677 253.306758 22.874028 C 252.673846 22.74349 251.783815 22.678221 250.638641 22.678221 L 250.638641 20.817066 L 259.974083 18.785816 L 260.727643 25.39974 L 260.937295 25.39974 C 261.396156 24.331702 261.973687 23.356623 262.667912 22.470547 C 263.362137 21.57656 264.117675 20.821022 264.934526 20.203933 C 265.749399 19.578934 266.599874 19.090405 267.48595 18.734392 C 268.379937 18.37838 269.291725 18.200373 270.219335 18.200373 C 271.356598 18.200373 272.250585 18.477272 272.901297 19.033047 C 273.561899 19.578934 273.892199 20.316671 273.892199 21.246259 C 273.892199 22.096734 273.623212 22.765247 273.085237 23.251797 C 272.555174 23.728458 271.79568 23.967778 270.806756 23.967778 C 270.23318 23.967778 269.750586 23.898553 269.360949 23.760104 C 268.969336 23.611765 268.623212 23.459471 268.318624 23.303221 C 268.016013 23.13906 267.729225 22.986765 267.460238 22.848316 C 267.199162 22.699978 266.908418 22.626797 266.588007 22.626797 C 265.632706 22.626797 264.67345 23.241908 263.710238 24.476085 C 262.747026 25.698395 261.999399 27.252983 261.471314 29.135895 C 261.184526 30.170309 260.959051 31.337239 260.792912 32.638663 C 260.636662 33.932176 260.559526 35.287002 260.559526 36.701163 Z M 291.49109 18.200373 C 293.52234 18.200373 295.440852 18.564298 297.246627 19.294123 C 299.060314 20.021971 300.652482 21.028696 302.025108 22.314297 C 303.395757 23.590009 304.481595 25.108996 305.278668 26.871259 C 306.077719 28.633521 306.477244 30.559945 306.477244 32.652508 C 306.477244 34.822208 306.077719 36.8139 305.278668 38.627587 C 304.481595 40.441273 303.395757 42.009707 302.025108 43.328931 C 300.652482 44.638267 299.060314 45.666748 297.246627 46.414374 C 295.440852 47.160023 293.52234 47.533836 291.49109 47.533836 C 289.503353 47.533836 287.610552 47.169912 285.814666 46.440086 C 284.016803 45.71026 282.442436 44.691669 281.08761 43.380356 C 279.742673 42.061131 278.678591 40.484786 277.897341 38.653299 C 277.116091 36.821812 276.726455 34.822208 276.726455 32.652508 C 276.726455 30.559945 277.116091 28.623632 277.897341 26.845547 C 278.678591 25.065484 279.742673 23.538585 281.08761 22.262873 C 282.442436 20.977272 284.016803 19.978459 285.814666 19.266434 C 287.610552 18.556386 289.503353 18.200373 291.49109 18.200373 Z M 291.49109 20.765642 C 290.179777 20.765642 288.983179 21.050452 287.89734 21.624028 C 286.81348 22.187715 285.887847 22.994677 285.124398 24.044914 C 284.360948 25.095151 283.769572 26.358996 283.354224 27.834471 C 282.944809 29.302034 282.741091 30.923869 282.741091 32.703932 C 282.741091 34.55322 282.944809 36.224502 283.354224 37.715799 C 283.769572 39.209074 284.360948 40.48083 285.124398 41.531068 C 285.887847 42.581305 286.80359 43.3942 287.871628 43.965799 C 288.939666 44.531463 290.146153 44.812317 291.49109 44.812317 C 292.845916 44.812317 294.074159 44.531463 295.175821 43.965799 C 296.277482 43.3942 297.218938 42.573394 298.000188 41.505356 C 298.781437 40.437318 299.384681 39.15765 299.809918 37.664375 C 300.237134 36.1711 300.448763 34.517619 300.448763 32.703932 C 300.448763 30.923869 300.237134 29.309945 299.809918 27.860183 C 299.384681 26.402509 298.781437 25.148553 298.000188 24.098316 C 297.218938 23.048079 296.277482 22.231228 295.175821 21.64974 C 294.074159 21.060342 292.845916 20.765642 291.49109 20.765642 Z M 313.621231 46.999817 L 312.448367 46.999817 L 312.448367 37.820625 L 313.789348 37.820625 C 315.169885 42.838425 317.691642 45.346336 321.354616 45.346336 C 322.778666 45.346336 323.90604 45.000213 324.740692 44.304011 C 325.581277 43.609786 326.002559 42.551637 326.002559 41.127587 C 326.002559 40.597523 325.921467 40.146574 325.755328 39.774739 C 325.599078 39.400925 325.296467 39.009312 324.84354 38.601875 C 324.40248 38.194438 323.781435 37.725688 322.982385 37.195625 C 322.183334 36.65765 321.125186 35.981226 319.805961 35.164375 C 318.599474 34.418727 317.549237 33.724502 316.655249 33.081701 C 315.769173 32.438901 315.023525 31.792144 314.414348 31.141433 C 313.817037 30.482809 313.36411 29.778695 313.0615 29.033047 C 312.756911 28.28542 312.604617 27.413189 312.604617 26.414376 C 312.604617 25.207889 312.810313 24.098316 313.21775 23.081702 C 313.633098 22.067066 314.194806 21.202747 314.896942 20.490721 C 315.608968 19.778696 316.445597 19.218965 317.408809 18.811529 C 318.373999 18.404092 319.424236 18.200373 320.561499 18.200373 C 321.514822 18.200373 322.509679 18.35069 323.542116 18.655279 C 324.574552 18.959867 325.482385 19.359392 326.263635 19.853854 L 327.331672 18.734392 L 328.346308 18.734392 L 328.346308 26.414376 L 326.953903 26.414376 C 326.172654 24.244677 325.318223 22.699978 324.388635 21.780278 C 323.468935 20.85069 322.335629 20.387873 320.990692 20.387873 C 319.774315 20.387873 318.803192 20.708285 318.073366 21.351085 C 317.345518 21.991908 316.979616 22.88194 316.979616 24.019202 C 316.979616 24.61849 317.076531 25.144598 317.266404 25.595547 C 317.466167 26.038585 317.778667 26.471734 318.203904 26.896971 C 318.637053 27.322208 319.180961 27.757335 319.831673 28.198395 C 320.490296 28.641433 321.285391 29.14974 322.21498 29.723316 C 323.741878 30.676638 325.047258 31.533046 326.133097 32.286606 C 327.218935 33.034233 328.095122 33.77197 328.763634 34.499818 C 329.440058 35.221733 329.938476 35.977271 330.260865 36.766432 C 330.581277 37.547682 330.741482 38.433758 330.741482 39.422682 C 330.741482 41.948394 329.922653 43.932175 328.281039 45.372048 C 326.649315 46.8139 324.501372 47.533836 321.837211 47.533836 C 319.068224 47.533836 316.684917 46.734786 314.689268 45.138662 Z M 313.621231 46.999817 " stroke="#e4b02b" stroke-width="2.000002" stroke-opacity="1" stroke-miterlimit="4"/></svg>