<svg xmlns="http://www.w3.org/2000/svg" xmlns:xlink="http://www.w3.org/1999/xlink" width="1366" zoomAndPan="magnify" viewBox="0 0 1024.5 576" height="768" preserveAspectRatio="xMidYMid meet" version="1.0"><path stroke-linecap="butt" transform="matrix(1.872264, 0, 0, 1.872264, 77.178083, 174.556443)" fill="none" stroke-linejoin="miter" d="M 84.970671 38.524025 C 84.970671 39.869738 85.041608 40.963 85.179309 41.805897 C 85.327441 42.638361 85.60493 43.276793 86.01386 43.719105 C 86.420703 44.161417 87.006975 44.474373 87.77059 44.655888 C 88.534204 44.829058 89.537751 44.933377 90.779146 44.968845 L 90.779146 47.000977 L 73.499767 47.000977 L 73.499767 44.968845 C 74.751593 44.933377 75.757227 44.829058 76.520842 44.655888 C 77.284456 44.474373 77.879073 44.169762 78.304694 43.744141 C 78.730315 43.320607 79.011976 42.715557 79.151764 41.935252 C 79.299897 41.154947 79.37292 40.138881 79.37292 38.889141 L 79.37292 27.326436 L 57.772653 27.326436 L 57.772653 38.524025 C 57.772653 39.869738 57.841503 40.963 57.98129 41.805897 C 58.129423 42.638361 58.406911 43.276793 58.813755 43.719105 C 59.222685 44.161417 59.808957 44.474373 60.572571 44.655888 C 61.336186 44.829058 62.337647 44.933377 63.579041 44.968845 L 63.579041 47.000977 L 46.301749 47.000977 L 46.301749 44.968845 C 47.551489 44.933377 48.559209 44.829058 49.322823 44.655888 C 50.086438 44.474373 50.681055 44.169762 51.106676 43.744141 C 51.532297 43.320607 51.813958 42.715557 51.951659 41.935252 C 52.099792 41.154947 52.174902 40.138881 52.174902 38.889141 L 52.174902 14.046643 C 52.174902 12.796903 52.108137 11.789182 51.978782 11.025568 C 51.857772 10.261954 51.609493 9.658991 51.236032 9.216679 C 50.86257 8.77228 50.320112 8.473928 49.608657 8.31745 C 48.897202 8.152626 47.972937 8.035789 46.835861 7.966938 L 46.835861 5.934807 L 63.044929 5.934807 L 63.044929 7.966938 C 61.907853 8.00032 60.991933 8.108812 60.299256 8.292413 C 59.612838 8.465583 59.082898 8.782712 58.709436 9.241715 C 58.335975 9.702805 58.085609 10.343323 57.954167 11.169528 C 57.833158 11.985302 57.772653 13.066045 57.772653 14.411759 L 57.772653 24.657959 L 79.37292 24.657959 L 79.37292 14.046643 C 79.37292 12.796903 79.308242 11.789182 79.1768 11.025568 C 79.05579 10.261954 78.809598 9.658991 78.436136 9.216679 C 78.062675 8.77228 77.520216 8.473928 76.808762 8.31745 C 76.095221 8.152626 75.170955 8.035789 74.03388 7.966938 L 74.03388 5.934807 L 90.245033 5.934807 L 90.245033 7.966938 C 89.107958 8.00032 88.192038 8.108812 87.497274 8.292413 C 86.810856 8.465583 86.283002 8.782712 85.909541 9.241715 C 85.536079 9.702805 85.283627 10.343323 85.154272 11.169528 C 85.031176 11.985302 84.970671 13.066045 84.970671 14.411759 Z M 121.071262 42.039571 C 118.050188 45.70325 114.300967 47.533003 109.821514 47.533003 C 107.722618 47.533003 105.815669 47.186664 104.106926 46.491901 C 102.404442 45.797137 100.937719 44.820712 99.704669 43.562626 C 98.482052 42.296195 97.530664 40.785658 96.854678 39.031014 C 96.18495 37.270112 95.85113 35.321435 95.85113 33.184984 C 95.85113 31.015152 96.207901 29.00597 96.919355 27.15744 C 97.63081 25.308909 98.634358 23.729521 99.927912 22.41719 C 101.229811 21.098599 102.773731 20.065842 104.561756 19.318919 C 106.358128 18.571996 108.325582 18.200621 110.459946 18.200621 C 113.906642 18.200621 116.570946 19.133231 118.454945 20.998453 C 120.338944 22.865761 121.2799 25.542583 121.2799 29.033093 C 121.2799 29.527564 121.179754 29.830089 120.979462 29.942754 C 120.789601 30.047072 120.343116 30.099232 119.640007 30.099232 L 102.087313 30.099232 C 102.018462 30.378806 101.966303 30.725145 101.932921 31.142421 C 101.897452 31.549264 101.880761 31.999922 101.880761 32.49648 C 101.880761 34.34501 102.101917 36.024544 102.544229 37.535082 C 102.986541 39.045619 103.624973 40.332914 104.457438 41.401139 C 105.291989 42.469365 106.285104 43.297657 107.438871 43.888101 C 108.60307 44.470201 109.896624 44.760207 111.319533 44.760207 C 112.81338 44.760207 114.196648 44.43056 115.473511 43.771264 C 116.748288 43.111969 118.064792 42.035398 119.418851 40.541552 Z M 112.270922 27.639393 C 112.982376 27.639393 113.549871 27.622702 113.975492 27.587233 C 114.401113 27.551765 114.722415 27.482914 114.939399 27.378596 C 115.156382 27.265931 115.298255 27.113626 115.369192 26.923765 C 115.438043 26.723473 115.473511 26.462676 115.473511 26.141374 C 115.473511 24.509826 114.947744 23.207927 113.898296 22.235675 C 112.846762 21.255077 111.415507 20.764779 109.600358 20.764779 C 105.76351 20.764779 103.385039 23.055621 102.464947 27.639393 Z M 135.625832 38.524025 C 135.625832 39.982403 135.661301 41.136169 135.730151 41.987411 C 135.809434 42.838653 135.995121 43.489603 136.291387 43.940261 C 136.593912 44.382573 137.027878 44.674666 137.593286 44.812367 C 138.164954 44.952154 138.968209 45.060646 140.000966 45.137842 L 140.000966 47.000977 L 125.821944 47.000977 L 125.821944 45.137842 C 126.846355 45.102373 127.662129 45.008486 128.271351 44.852008 C 128.878487 44.687184 129.33749 44.390918 129.650447 43.965297 C 129.971749 43.531331 130.176214 42.915849 130.261756 42.116767 C 130.357729 41.319771 130.405716 40.2432 130.405716 38.889141 L 130.405716 32.652958 C 130.405716 30.239019 130.380679 28.35502 130.32852 27.000961 C 130.27636 25.646902 130.096932 24.653786 129.794407 24.019528 C 129.489796 23.376923 129.016188 22.995116 128.37567 22.874106 C 127.741411 22.742665 126.850528 22.677987 125.705107 22.677987 L 125.705107 20.816938 L 135.041647 18.784806 L 135.796915 25.40071 L 136.003467 25.40071 C 136.464556 24.332484 137.042483 23.35606 137.73516 22.469349 C 138.429924 21.576379 139.185192 20.821111 140.000966 20.205629 C 140.81674 19.579716 141.667982 19.089417 142.552606 18.732647 C 143.447662 18.377963 144.359409 18.200621 145.287847 18.200621 C 146.424923 18.200621 147.317892 18.478109 147.968842 19.033085 C 148.630224 19.579716 148.959871 20.318294 148.959871 21.246732 C 148.959871 22.097974 148.690729 22.765615 148.152443 23.251741 C 147.622503 23.729521 146.863062 23.967368 145.874119 23.967368 C 145.300365 23.967368 144.818412 23.898518 144.428259 23.75873 C 144.038107 23.612684 143.689682 23.460378 143.387157 23.3039 C 143.082546 23.139076 142.796712 22.986771 142.527569 22.846983 C 142.266772 22.700937 141.976766 22.625827 141.655464 22.625827 C 140.699903 22.625827 139.740169 23.243395 138.778349 24.474358 C 137.814442 25.699062 137.067519 27.253413 136.537579 29.137412 C 136.251746 30.170169 136.026417 31.336454 135.861593 32.638353 C 135.705115 33.931908 135.625832 35.285967 135.625832 36.700531 Z M 161.065034 38.524025 C 161.065034 39.982403 161.098416 41.136169 161.169353 41.987411 C 161.246549 42.838653 161.432237 43.489603 161.728502 43.940261 C 162.033113 44.382573 162.46708 44.674666 163.030402 44.812367 C 163.604156 44.952154 164.405325 45.060646 165.438082 45.137842 L 165.438082 47.000977 L 151.261146 47.000977 L 151.261146 45.137842 C 152.283471 45.102373 153.101331 45.008486 153.708467 44.852008 C 154.315603 44.687184 154.774606 44.390918 155.087562 43.965297 C 155.408865 43.531331 155.61333 42.915849 155.700957 42.116767 C 155.794844 41.319771 155.842831 40.2432 155.842831 38.889141 L 155.842831 32.652958 C 155.842831 30.239019 155.817795 28.35502 155.765635 27.000961 C 155.713476 25.646902 155.536134 24.653786 155.231523 24.019528 C 154.926911 23.376923 154.45539 22.995116 153.812786 22.874106 C 153.178527 22.742665 152.28973 22.677987 151.142222 22.677987 L 151.142222 20.816938 L 160.478762 18.784806 L 161.234031 25.40071 L 161.442669 25.40071 C 161.901672 24.332484 162.479598 23.35606 163.174362 22.469349 C 163.867039 21.576379 164.622308 20.821111 165.438082 20.205629 C 166.255942 19.579716 167.105097 19.089417 167.991808 18.732647 C 168.884777 18.377963 169.796524 18.200621 170.724962 18.200621 C 171.862038 18.200621 172.757094 18.478109 173.408044 19.033085 C 174.067339 19.579716 174.396987 20.318294 174.396987 21.246732 C 174.396987 22.097974 174.127844 22.765615 173.589559 23.251741 C 173.059619 23.729521 172.300178 23.967368 171.311235 23.967368 C 170.737481 23.967368 170.255528 23.898518 169.865375 23.75873 C 169.475222 23.612684 169.128884 23.460378 168.824272 23.3039 C 168.519661 23.139076 168.233828 22.986771 167.964685 22.846983 C 167.703888 22.700937 167.413881 22.625827 167.092579 22.625827 C 166.137018 22.625827 165.179371 23.243395 164.215464 24.474358 C 163.251558 25.699062 162.504635 27.253413 161.974695 29.137412 C 161.688861 30.170169 161.463532 31.336454 161.298709 32.638353 C 161.14223 33.931908 161.065034 35.285967 161.065034 36.700531 Z M 193.284963 31.219617 C 191.254918 31.999922 189.535743 32.765622 188.129524 33.510459 C 186.723306 34.257382 185.594576 35.004306 184.743333 35.751229 C 183.894178 36.498152 183.280783 37.242989 182.907321 37.989912 C 182.535946 38.736835 182.348172 39.500449 182.348172 40.280755 C 182.348172 41.453299 182.738325 42.413032 183.520716 43.159956 C 184.301021 43.904792 185.333778 44.278254 186.618987 44.278254 C 187.539079 44.278254 188.398667 44.048752 189.19775 43.589749 C 189.994746 43.12866 190.697855 42.498574 191.307077 41.701578 C 191.914213 40.89415 192.396166 39.946934 192.750851 38.862018 C 193.107621 37.777101 193.284963 36.63168 193.284963 35.425754 Z M 193.284963 28.914169 L 193.284963 26.740164 C 193.284963 22.400499 191.436433 20.230666 187.739372 20.230666 C 187.130149 20.230666 186.614814 20.282825 186.189193 20.387144 C 185.763572 20.491463 185.408888 20.668805 185.120968 20.921257 C 184.835134 21.171622 184.574337 21.528393 184.340663 21.989482 C 184.115334 22.448485 183.894178 23.018066 183.677195 23.694053 C 183.284956 24.72681 182.903148 25.413228 182.529687 25.751221 C 182.158312 26.089214 181.615853 26.258211 180.902312 26.258211 C 179.124719 26.258211 178.233835 25.369414 178.233835 23.589734 C 178.233835 21.880991 179.14141 20.556141 180.954472 19.619357 C 182.76962 18.672142 185.348383 18.200621 188.688674 18.200621 C 192.248034 18.200621 194.774637 18.832793 196.266397 20.101311 C 197.760243 21.359396 198.507166 23.497933 198.507166 26.519008 L 198.507166 38.471865 C 198.507166 42.525697 199.304163 44.551569 200.902328 44.551569 C 201.405145 44.551569 201.887098 44.491065 202.346101 44.370055 C 202.807191 44.240699 203.197343 43.904792 203.518645 43.366507 L 204.261396 44.655888 C 203.835775 45.471662 203.05547 46.15808 201.918394 46.713057 C 200.781318 47.259688 199.592083 47.533003 198.350688 47.533003 C 196.779646 47.533003 195.611274 47.038532 194.84766 46.049589 C 194.084046 45.0523 193.702239 43.646082 193.702239 41.830933 L 193.441442 41.830933 C 192.513004 43.566799 191.227795 44.943808 189.587902 45.957788 C 187.956355 46.973854 186.145379 47.480844 184.159148 47.480844 C 181.918378 47.480844 180.157476 46.913349 178.872267 45.776273 C 177.595404 44.639197 176.959059 43.111969 176.959059 41.192502 C 176.959059 40.332914 177.109278 39.512968 177.413889 38.732662 C 177.7185 37.950271 178.204626 37.205434 178.872267 36.491893 C 179.548253 35.780438 180.439137 35.077329 181.540744 34.382565 C 182.644438 33.689888 183.998497 32.990951 185.602921 32.287842 Z M 215.993097 38.471865 C 215.993097 39.965712 216.028565 41.136169 216.097416 41.987411 C 216.176698 42.838653 216.362386 43.489603 216.656565 43.940261 C 216.961176 44.382573 217.395143 44.674666 217.958465 44.812367 C 218.532219 44.952154 219.335474 45.060646 220.368231 45.137842 L 220.368231 47.000977 L 206.189209 47.000977 L 206.189209 45.137842 C 207.21362 45.060646 208.029394 44.952154 208.63653 44.812367 C 209.245752 44.674666 209.704755 44.390918 210.017712 43.965297 C 210.339014 43.531331 210.541392 42.915849 210.62902 42.116767 C 210.724994 41.319771 210.77298 40.2432 210.77298 38.889141 L 210.77298 32.066686 C 210.77298 30.0429 210.745857 28.35502 210.693698 27.000961 C 210.641538 25.646902 210.541392 24.722637 210.395346 24.228165 C 210.291027 23.767076 210.165844 23.404046 210.017712 23.134904 C 209.877924 22.865761 209.648423 22.65295 209.327121 22.496472 C 209.005818 22.331648 208.588543 22.223157 208.07738 22.170997 C 207.564132 22.118838 206.896491 22.091715 206.072372 22.091715 L 206.072372 20.230666 L 214.77048 18.200621 L 215.458984 23.537574 L 215.7323 23.537574 C 217.330465 21.724512 219.009999 20.382971 220.770902 19.515038 C 222.533891 18.63876 224.478395 18.200621 226.604413 18.200621 C 228.845183 18.200621 230.727096 18.655451 232.25641 19.567198 C 233.791984 20.468513 234.86021 21.776672 235.459 23.485415 L 235.680156 23.485415 C 236.990401 21.810054 238.58648 20.512327 240.470479 19.592234 C 242.354478 18.663796 244.363659 18.200621 246.50011 18.200621 C 248.175471 18.200621 249.694354 18.478109 251.056759 19.033085 C 252.427509 19.579716 253.468611 20.334985 254.182152 21.298891 C 254.82267 22.114665 255.275414 23.191236 255.536211 24.526517 C 255.803268 25.85554 255.938882 27.674861 255.938882 29.982395 L 255.938882 38.471865 C 255.938882 39.930243 255.982696 41.08401 256.068238 41.935252 C 256.164211 42.786494 256.351985 43.445789 256.629473 43.915224 C 256.915307 44.374227 257.349274 44.674666 257.931373 44.812367 C 258.521818 44.952154 259.333419 45.060646 260.366176 45.137842 L 260.366176 47.000977 L 246.187153 47.000977 L 246.187153 45.137842 C 247.176096 45.102373 247.971006 45.008486 248.569797 44.852008 C 249.176933 44.687184 249.642195 44.382573 249.963497 43.940261 C 250.284799 43.489603 250.487178 42.872035 250.574806 42.09173 C 250.670779 41.309339 250.718766 40.2432 250.718766 38.889141 L 250.718766 32.171005 C 250.718766 30.147219 250.610274 28.434303 250.393291 27.028084 C 250.184653 25.621866 249.827882 24.48479 249.325065 23.616857 C 248.830594 22.748924 248.183817 22.118838 247.384734 21.728685 C 246.585652 21.328101 245.6134 21.129895 244.467978 21.129895 C 242.905282 21.129895 241.438558 21.568034 240.067808 22.444313 C 238.705403 23.312246 237.633005 24.474358 236.850614 25.932736 C 236.669099 26.289506 236.516793 26.635845 236.395783 26.975925 C 236.274774 27.313918 236.174627 27.687379 236.095345 28.094223 C 236.026495 28.503153 235.982681 28.993452 235.96599 29.567206 C 235.949299 30.130528 235.940953 30.83781 235.940953 31.689052 L 235.940953 38.471865 C 235.940953 39.930243 235.974335 41.08401 236.045272 41.935252 C 236.114122 42.786494 236.29981 43.445789 236.604421 43.915224 C 236.906946 44.374227 237.35969 44.674666 237.95848 44.812367 C 238.565616 44.952154 239.385563 45.060646 240.418319 45.137842 L 240.418319 47.000977 L 226.239297 47.000977 L 226.239297 45.137842 C 227.230327 45.060646 228.027323 44.952154 228.636545 44.812367 C 229.243681 44.674666 229.694339 44.390918 229.990604 43.965297 C 230.293129 43.531331 230.489248 42.915849 230.576876 42.116767 C 230.670763 41.319771 230.71875 40.2432 230.71875 38.889141 L 230.71875 32.171005 C 230.71875 30.113837 230.610258 28.382143 230.393275 26.975925 C 230.184637 25.569706 229.838299 24.43263 229.352173 23.564697 C 228.874392 22.686332 228.244306 22.062505 227.464001 21.689044 C 226.683696 21.315582 225.723962 21.129895 224.586886 21.129895 C 222.980376 21.129895 221.474011 21.568034 220.067792 22.444313 C 218.672006 23.312246 217.616299 24.474358 216.904844 25.932736 C 216.723329 26.289506 216.571024 26.635845 216.450014 26.975925 C 216.326917 27.313918 216.226771 27.687379 216.149575 28.094223 C 216.080725 28.503153 216.036911 28.993452 216.02022 29.567206 C 216.001443 30.130528 215.993097 30.83781 215.993097 31.689052 Z M 273.591723 38.524025 C 273.591723 39.90312 273.652228 41.015159 273.773238 41.858056 C 273.90468 42.690521 274.142527 43.349816 274.490952 43.835942 C 274.845636 44.313722 275.346367 44.64337 275.986885 44.824885 C 276.629489 45.000141 277.484904 45.102373 278.553129 45.137842 L 278.553129 47.000977 L 263.241204 47.000977 L 263.241204 45.137842 C 264.309429 45.102373 265.181535 44.985536 265.857521 44.78733 C 266.535594 44.587038 267.059275 44.265736 267.432736 43.823424 C 267.806198 43.381112 268.054477 42.759371 268.175487 41.960288 C 268.296497 41.163292 268.357002 40.138881 268.357002 38.889141 L 268.357002 32.066686 C 268.357002 30.009518 268.331965 28.311206 268.279806 26.975925 C 268.227646 25.638557 268.131673 24.722637 267.993972 24.228165 C 267.810371 23.412392 267.399354 22.853243 266.75675 22.548631 C 266.122491 22.24402 264.916565 22.091715 263.136885 22.091715 L 263.136885 20.230666 L 273.591723 18.200621 Z M 267.459859 7.380666 C 267.459859 6.452228 267.776989 5.669837 268.409161 5.035578 C 269.051765 4.39506 269.83833 4.073758 270.766768 4.073758 C 271.68686 4.073758 272.467166 4.39506 273.10977 5.035578 C 273.752374 5.669837 274.073676 6.452228 274.073676 7.380666 C 274.073676 8.300759 273.752374 9.081064 273.10977 9.723668 C 272.467166 10.366273 271.68686 10.687575 270.766768 10.687575 C 269.83833 10.687575 269.051765 10.366273 268.409161 9.723668 C 267.776989 9.081064 267.459859 8.300759 267.459859 7.380666 Z M 307.453631 42.039571 C 304.432557 45.70325 300.683336 47.533003 296.203883 47.533003 C 294.102901 47.533003 292.198038 47.186664 290.487209 46.491901 C 288.786811 45.797137 287.320088 44.820712 286.087038 43.562626 C 284.862335 42.296195 283.913033 40.785658 283.23496 39.031014 C 282.567319 37.270112 282.233499 35.321435 282.233499 33.184984 C 282.233499 31.015152 282.588183 29.00597 283.301724 27.15744 C 284.013179 25.308909 285.01464 23.729521 286.308194 22.41719 C 287.610094 21.098599 289.1561 20.065842 290.944125 19.318919 C 292.740497 18.571996 294.705864 18.200621 296.842315 18.200621 C 300.286924 18.200621 302.953315 19.133231 304.835227 20.998453 C 306.719226 22.865761 307.662269 25.542583 307.662269 29.033093 C 307.662269 29.527564 307.562123 29.830089 307.361831 29.942754 C 307.169884 30.047072 306.723399 30.099232 306.02029 30.099232 L 288.469682 30.099232 C 288.400831 30.378806 288.348672 30.725145 288.313203 31.142421 C 288.279821 31.549264 288.261044 31.999922 288.261044 32.49648 C 288.261044 34.34501 288.4822 36.024544 288.924512 37.535082 C 289.36891 39.045619 290.005256 40.332914 290.839807 41.401139 C 291.672271 42.469365 292.667473 43.297657 293.82124 43.888101 C 294.983352 44.470201 296.276907 44.760207 297.701902 44.760207 C 299.193662 44.760207 300.579017 44.43056 301.853794 43.771264 C 303.130657 43.111969 304.445075 42.035398 305.799134 40.541552 Z M 298.651204 27.639393 C 299.362659 27.639393 299.93224 27.622702 300.357861 27.587233 C 300.781396 27.551765 301.102698 27.482914 301.319681 27.378596 C 301.536664 27.265931 301.680625 27.113626 301.749475 26.923765 C 301.820412 26.723473 301.853794 26.462676 301.853794 26.141374 C 301.853794 24.509826 301.330113 23.207927 300.278579 22.235675 C 299.229131 21.255077 297.795789 20.764779 295.982727 20.764779 C 292.145879 20.764779 289.767409 23.055621 288.847316 27.639393 Z M 321.695245 38.628343 C 321.695245 40.086721 321.730713 41.232143 321.799564 42.064607 C 321.868414 42.899158 322.056188 43.541763 322.360799 43.99242 C 322.663324 44.434732 323.105636 44.730998 323.687735 44.877044 C 324.27818 45.016832 325.089781 45.121151 326.122538 45.190001 L 326.122538 47.000977 L 312.152154 47.000977 L 312.152154 45.190001 C 313.141097 45.121151 313.927661 45.016832 314.50976 44.877044 C 315.098119 44.730998 315.555035 44.443078 315.876338 44.017457 C 316.19764 43.58349 316.400018 42.976354 316.487646 42.196049 C 316.58362 41.413658 316.631606 40.351691 316.631606 39.005978 L 316.631606 31.910208 C 316.631606 27.674861 316.523115 25.096098 316.306131 24.176006 C 316.201813 23.714916 316.066198 23.333109 315.901374 23.030585 C 315.744896 22.725974 315.507049 22.496472 315.185747 22.339994 C 314.864445 22.17517 314.451342 22.066678 313.948525 22.014519 C 313.454053 21.962359 312.815622 21.937323 312.035317 21.937323 L 312.035317 20.230666 L 320.576946 18.200621 L 321.213292 23.485415 L 321.421929 23.485415 C 322.775988 21.810054 324.361635 20.512327 326.174697 19.592234 C 327.989846 18.663796 329.959386 18.200621 332.085405 18.200621 C 333.725298 18.200621 335.219144 18.469763 336.564858 19.005962 C 337.918917 19.535902 338.951674 20.266134 339.663129 21.194572 C 340.270264 22.010346 340.695885 23.070226 340.939992 24.372125 C 341.190357 25.663593 341.317626 27.447446 341.317626 29.721598 L 341.317626 38.628343 C 341.317626 40.086721 341.359354 41.232143 341.446981 42.064607 C 341.542955 42.899158 341.728642 43.541763 342.006131 43.99242 C 342.294051 44.434732 342.728017 44.730998 343.30803 44.877044 C 343.898475 45.016832 344.676694 45.121151 345.6406 45.190001 L 345.6406 47.000977 L 331.824608 47.000977 L 331.824608 45.190001 C 332.823983 45.154533 333.612634 45.060646 334.194733 44.904167 C 334.785178 44.739343 335.22749 44.443078 335.523755 44.017457 C 335.82628 43.58349 336.0224 42.968009 336.107941 42.168926 C 336.203914 41.37193 336.251901 40.316223 336.251901 39.005978 L 336.251901 31.962367 C 336.251901 29.930235 336.14341 28.225665 335.926426 26.844483 C 335.717789 25.457042 335.37145 24.336657 334.885324 23.485415 C 334.407543 22.625827 333.777457 22.010346 332.997152 21.636884 C 332.216847 21.263423 331.273804 21.077735 330.172197 21.077735 C 328.574032 21.077735 327.107308 21.497097 325.772027 22.339994 C 324.434659 23.172458 323.393556 24.319966 322.646633 25.778344 C 322.473464 26.133028 322.321158 26.471021 322.189716 26.792323 C 322.068706 27.10528 321.972733 27.478742 321.903882 27.912708 C 321.835032 28.338329 321.782873 28.828628 321.747404 29.383604 C 321.714022 29.930235 321.695245 30.629172 321.695245 31.480414 Z M 349.051828 22.091715 L 349.051828 20.126347 C 350.935827 19.02474 352.410896 17.921046 353.479121 16.819439 C 354.54526 15.717831 355.361033 14.401327 355.926442 12.874099 L 357.474534 12.874099 L 357.474534 19.592234 L 364.622464 19.592234 L 364.622464 22.091715 L 357.474534 22.091715 L 357.474534 38.302869 C 357.474534 39.552609 357.537125 40.602057 357.658135 41.453299 C 357.787491 42.304541 357.991956 42.988873 358.269444 43.510467 C 358.555278 44.023716 358.928739 44.386746 359.389829 44.603729 C 359.857177 44.812367 360.447622 44.916686 361.159077 44.916686 C 362.045787 44.916686 362.796883 44.730998 363.412365 44.357536 C 364.038278 43.984075 364.653759 43.353989 365.260895 42.469365 L 366.589918 43.485431 C 366.095446 44.795676 365.231686 45.797137 363.998637 46.491901 C 362.773933 47.186664 361.259223 47.533003 359.454506 47.533003 C 357.101072 47.533003 355.313047 46.973854 354.09043 45.853469 C 352.865726 44.735171 352.254417 43.124487 352.254417 41.023505 L 352.254417 22.091715 Z M 385.692791 31.219617 C 383.660659 31.999922 381.94357 32.765622 380.537352 33.510459 C 379.131133 34.257382 378.002403 35.004306 377.151161 35.751229 C 376.299919 36.498152 375.68861 37.242989 375.315149 37.989912 C 374.941687 38.736835 374.756 39.500449 374.756 40.280755 C 374.756 41.453299 375.146152 42.413032 375.928544 43.159956 C 376.708849 43.904792 377.741606 44.278254 379.026814 44.278254 C 379.946907 44.278254 380.806495 44.048752 381.603491 43.589749 C 382.402573 43.12866 383.105683 42.498574 383.712819 41.701578 C 384.322041 40.89415 384.803994 39.946934 385.158678 38.862018 C 385.515449 37.777101 385.692791 36.63168 385.692791 35.425754 Z M 385.692791 28.914169 L 385.692791 26.740164 C 385.692791 22.400499 383.84426 20.230666 380.147199 20.230666 C 379.537977 20.230666 379.022642 20.282825 378.597021 20.387144 C 378.1714 20.491463 377.814629 20.668805 377.528795 20.921257 C 377.242962 21.171622 376.982164 21.528393 376.74849 21.989482 C 376.523161 22.448485 376.299919 23.018066 376.082936 23.694053 C 375.692783 24.72681 375.310976 25.413228 374.937514 25.751221 C 374.564053 26.089214 374.021595 26.258211 373.31014 26.258211 C 371.53046 26.258211 370.641663 25.369414 370.641663 23.589734 C 370.641663 21.880991 371.549237 20.556141 373.362299 19.619357 C 375.177448 18.672142 377.754124 18.200621 381.096501 18.200621 C 384.655861 18.200621 387.180378 18.832793 388.674224 20.101311 C 390.168071 21.359396 390.912908 23.497933 390.912908 26.519008 L 390.912908 38.471865 C 390.912908 42.525697 391.71199 44.551569 393.310155 44.551569 C 393.812972 44.551569 394.294926 44.491065 394.753929 44.370055 C 395.215018 44.240699 395.605171 43.904792 395.926473 43.366507 L 396.669223 44.655888 C 396.243602 45.471662 395.461211 46.15808 394.324135 46.713057 C 393.187059 47.259688 391.997824 47.533003 390.758516 47.533003 C 389.185387 47.533003 388.019102 47.038532 387.255488 46.049589 C 386.491873 45.0523 386.110066 43.646082 386.110066 41.830933 L 385.849269 41.830933 C 384.920831 43.566799 383.635623 44.943808 381.99573 45.957788 C 380.364183 46.973854 378.553207 47.480844 376.564889 47.480844 C 374.326206 47.480844 372.563217 46.913349 371.280094 45.776273 C 370.003231 44.639197 369.3648 43.111969 369.3648 41.192502 C 369.3648 40.332914 369.517105 39.512968 369.821717 38.732662 C 370.124241 37.950271 370.610367 37.205434 371.280094 36.491893 C 371.956081 35.780438 372.846964 35.077329 373.948571 34.382565 C 375.050179 33.689888 376.404238 32.990951 378.010749 32.287842 Z M 401.200835 47.000977 L 400.028291 47.000977 L 400.028291 37.820915 L 401.369832 37.820915 C 402.751014 42.838653 405.271358 45.346479 408.935037 45.346479 C 410.357947 45.346479 411.486677 45.000141 412.319142 44.305377 C 413.162038 43.610613 413.583486 42.550733 413.583486 41.127824 C 413.583486 40.597884 413.500031 40.147226 413.335208 39.773765 C 413.178729 39.400303 412.876204 39.010151 412.423461 38.601221 C 411.981148 38.194377 411.361494 37.724942 410.562412 37.195002 C 409.763329 36.658803 408.705536 35.98073 407.384859 35.164957 C 406.178932 34.418034 405.129484 33.72327 404.234428 33.080665 C 403.349804 32.440148 402.602881 31.793371 401.995745 31.142421 C 401.396955 30.481039 400.944211 29.77793 400.641686 29.033093 C 400.337075 28.28617 400.18477 27.414064 400.18477 26.414689 C 400.18477 25.208763 400.389235 24.09881 400.798165 23.082744 C 401.213354 22.066678 401.774589 21.202918 402.477699 20.491463 C 403.189153 19.780008 404.025791 19.218773 404.989697 18.811929 C 405.953604 18.402999 407.003052 18.200621 408.140127 18.200621 C 409.095688 18.200621 410.088804 18.35084 411.121561 18.655451 C 412.154318 18.960062 413.061892 19.35856 413.844284 19.853032 L 414.910423 18.732647 L 415.926488 18.732647 L 415.926488 26.414689 L 414.532788 26.414689 C 413.752483 24.244856 412.897068 22.700937 411.96863 21.780844 C 411.048538 20.852406 409.915635 20.387144 408.569921 20.387144 C 407.355649 20.387144 406.383397 20.708446 405.653165 21.351051 C 404.925019 21.993655 404.559903 22.882452 404.559903 24.019528 C 404.559903 24.618318 404.655877 25.144085 404.845737 25.594743 C 405.046029 26.037055 405.358986 26.471021 405.784607 26.896642 C 406.218574 27.322263 406.761032 27.75623 407.411982 28.198542 C 408.071277 28.640854 408.866187 29.14993 409.794625 29.721598 C 411.321853 30.677158 412.627926 31.532573 413.712842 32.287842 C 414.797758 33.034765 415.674037 33.771256 416.343764 34.501489 C 417.01975 35.221289 417.518395 35.976558 417.839697 36.767295 C 418.160999 37.5476 418.32165 38.432224 418.32165 39.423253 C 418.32165 41.94777 417.501704 43.931915 415.861811 45.371516 C 414.230264 46.813203 412.081295 47.533003 409.41699 47.533003 C 406.648367 47.533003 404.265724 46.736007 402.269061 45.137842 Z M 401.200835 47.000977 " stroke="#e4b02b" stroke-width="2.000002" stroke-opacity="1" stroke-miterlimit="4"/></svg>