<svg xmlns="http://www.w3.org/2000/svg" xmlns:xlink="http://www.w3.org/1999/xlink" width="1366" zoomAndPan="magnify" viewBox="0 0 1024.5 576" height="768" preserveAspectRatio="xMidYMid meet" version="1.0"><path stroke-linecap="butt" transform="matrix(1.299069, 0, 0, 1.299069, 131.993965, 175.641129)" fill="none" stroke-linejoin="miter" d="M 104.98971 48.628199 L 107.960588 48.628199 C 108.664217 53.439337 110.588673 57.225102 113.730948 59.985493 C 116.873223 62.742877 120.749197 64.123073 125.364883 64.123073 C 127.232206 64.123073 128.952188 63.894544 130.521822 63.434479 C 132.094463 62.97742 133.435568 62.333931 134.548144 61.507016 C 135.675755 60.665067 136.54176 59.675776 137.146159 58.536138 C 137.753566 57.399506 138.054262 56.11854 138.054262 54.696248 C 138.054262 53.484442 137.864823 52.438019 137.479932 51.559986 C 137.110076 50.669926 136.385398 49.803921 135.308906 48.961971 C 134.244441 48.123029 132.786065 47.275066 130.930769 46.421089 C 129.087502 45.555084 126.699974 44.565793 123.768186 43.453217 C 117.844472 41.176947 113.457314 38.527814 110.612728 35.511831 C 107.78017 32.492842 106.363891 28.929592 106.363891 24.822082 C 106.363891 22.449589 106.814936 20.272549 107.720031 18.290961 C 108.634147 16.31238 109.915113 14.619461 111.559921 13.209196 C 113.216757 11.786903 115.195338 10.683348 117.495664 9.904544 C 119.798997 9.113714 122.345893 8.716795 125.142368 8.716795 C 127.728355 8.716795 130.15798 9.125741 132.43425 9.943635 C 134.71052 10.746494 136.959728 11.958299 139.187886 13.579052 L 140.559061 9.775245 L 142.378273 9.775245 L 143.214208 26.196264 L 140.264379 26.196264 C 139.040545 22.040642 137.134131 18.862284 134.548144 16.658181 C 131.977192 14.457085 128.988272 13.356537 125.587398 13.356537 C 122.445123 13.356537 119.898226 14.129326 117.943701 15.674904 C 116.001204 17.22349 115.029955 19.208084 115.029955 21.631696 C 115.029955 22.69616 115.201352 23.649367 115.55016 24.488309 C 115.907988 25.330259 116.56952 26.133117 117.534754 26.899893 C 118.499989 27.65464 119.817038 28.421415 121.485902 29.203225 C 123.154766 29.982028 125.307751 30.854047 127.944856 31.819282 C 131.493071 33.190457 134.518075 34.576666 137.01686 35.974903 C 139.527673 37.361113 141.581428 38.849559 143.178125 40.446256 C 144.771814 42.042952 145.947537 43.729858 146.702284 45.512986 C 147.469059 47.28108 147.85395 49.229591 147.85395 51.355513 C 147.85395 53.9415 147.294655 56.298958 146.18208 58.42488 C 145.069504 60.553809 143.511897 62.379035 141.506254 63.900558 C 139.515645 65.42208 137.134131 66.615844 134.36472 67.481849 C 131.604329 68.332819 128.555269 68.759808 125.214535 68.759808 C 122.17149 68.759808 119.432147 68.347854 116.996508 67.517933 C 114.572897 66.675983 112.068098 65.316837 109.482111 63.434479 L 107.960588 67.999047 L 106.141376 67.999047 Z M 192.320901 60.929679 C 187.708222 66.149765 181.955904 68.759808 175.066955 68.759808 C 171.92468 68.759808 169.071073 68.266666 166.512148 67.277376 C 163.950217 66.288085 161.755135 64.895862 159.923895 63.100706 C 158.10769 61.296529 156.691411 59.155572 155.675058 56.680842 C 154.67374 54.194085 154.174584 51.430687 154.174584 48.387642 C 154.174584 45.245367 154.703809 42.370711 155.768274 39.760668 C 156.832738 37.150625 158.336219 34.898411 160.278716 33.007032 C 162.233242 31.100618 164.539581 29.615179 167.197736 28.553722 C 169.858897 27.489257 172.784671 26.957025 175.975057 26.957025 C 181.342484 26.957025 185.525168 28.403374 188.517095 31.299078 C 191.512029 34.179747 193.009496 38.233132 193.009496 43.453217 C 193.009496 44.268104 192.877189 44.764253 192.618591 44.93565 C 192.37202 45.110053 191.665384 45.197255 190.504697 45.197255 L 166.031034 45.197255 C 165.820547 45.654313 165.715303 46.490249 165.715303 47.702054 C 165.715303 52.672562 166.791796 56.608675 168.941773 59.501372 C 171.094758 62.385049 174.020532 63.825384 177.719095 63.825384 C 179.848024 63.825384 181.961918 63.34427 184.063784 62.379035 C 186.168658 61.4138 188.207378 60.045633 190.188966 58.277539 Z M 177.571754 40.948418 C 179.598446 40.948418 180.903468 40.837161 181.486818 40.614645 C 182.067162 40.377095 182.358837 39.826821 182.358837 38.960816 C 182.358837 36.735665 181.721361 34.916453 180.446409 33.506188 C 179.183485 32.083895 177.59581 31.374252 175.677368 31.374252 C 173.500328 31.374252 171.55783 32.27634 169.852883 34.083524 C 168.156956 35.875674 167.056408 38.163972 166.548232 40.948418 Z M 215.351222 56.21777 C 215.351222 58.196351 215.438424 59.756964 215.609821 60.893596 C 215.784224 62.030227 216.148067 62.902246 216.704355 63.509653 C 217.275677 64.117059 218.090564 64.510971 219.155029 64.697402 C 220.219493 64.871806 221.635772 64.956001 223.403866 64.956001 L 223.403866 67.999047 L 198.022101 67.999047 L 198.022101 64.956001 C 199.543624 64.856771 200.755429 64.70943 201.657518 64.510971 C 202.571634 64.300484 203.260229 63.894544 203.717287 63.287137 C 204.174345 62.679731 204.46602 61.807712 204.589306 60.671081 C 204.712591 59.531442 204.775737 57.997892 204.775737 56.070429 L 204.775737 46.790945 C 204.775737 43.64867 204.700563 41.143871 204.553222 39.276547 C 204.402874 37.397196 204.075115 35.950848 203.569946 34.934495 C 203.061769 33.921148 202.337091 33.253603 201.398919 32.931858 C 200.45774 32.598085 199.227893 32.429695 197.70637 32.429695 L 197.70637 29.777555 L 212.921597 26.957025 L 214.127388 35.695256 L 214.443119 35.695256 C 215.802266 33.013046 217.597422 30.884117 219.822574 29.314483 C 222.062761 27.741842 224.417212 26.957025 226.891941 26.957025 C 228.822411 26.957025 230.392045 27.438139 231.60385 28.403374 C 232.830691 29.368608 233.441104 30.586428 233.441104 32.059839 C 233.441104 33.680591 232.972018 35.045752 232.030839 36.161335 C 231.092667 37.273911 229.811701 37.830199 228.190949 37.830199 C 227.436201 37.830199 226.750614 37.682858 226.13118 37.385168 C 225.523774 37.075451 224.979514 36.729651 224.4984 36.34476 C 224.017286 35.962875 223.533165 35.611061 223.052051 35.289316 C 222.579958 34.955543 222.09283 34.787153 221.584654 34.787153 C 220.619419 34.787153 219.705303 35.424629 218.839298 36.699581 C 217.98532 37.959498 217.275677 39.655425 216.704355 41.781347 C 216.310443 43.302869 215.982684 45.016837 215.721078 46.923251 C 215.474507 48.81463 215.351222 50.699995 215.351222 52.582353 Z M 241.268226 37.53251 C 240.711938 36.062105 240.179706 34.880369 239.671529 33.990309 C 239.166359 33.097241 238.646155 32.417668 238.113923 31.948581 C 237.581691 31.464461 236.995333 31.151737 236.351843 31.001389 C 235.720381 30.84202 234.977662 30.760832 234.123684 30.760832 L 234.123684 27.717786 L 256.835267 27.717786 L 256.835267 30.760832 C 255.57535 30.760832 254.571025 30.808943 253.828305 30.908173 C 253.10062 31.007402 252.544333 31.163764 252.159441 31.374252 C 251.789585 31.569704 251.549028 31.837324 251.434764 32.171097 C 251.338541 32.492842 251.287422 32.856684 251.287422 33.265631 C 251.287422 33.921148 251.410708 34.68191 251.660286 35.547915 C 251.918884 36.41392 252.228602 37.273911 252.58643 38.127888 L 259.803138 58.036982 L 260.118869 58.036982 L 268.246687 38.200055 C 268.592488 37.349085 268.866121 36.579303 269.064581 35.899729 C 269.272061 35.208128 269.377305 34.58268 269.377305 34.026392 C 269.377305 32.913816 268.995421 32.101937 268.228645 31.596767 C 267.473898 31.08859 266.138807 30.808943 264.220365 30.760832 L 264.220365 27.717786 L 281.01124 27.717786 L 281.01124 30.760832 C 279.640065 30.760832 278.458329 31.11866 277.469039 31.837324 C 276.491776 32.540953 275.469409 34.10758 274.407952 36.531191 L 260.194043 68.759808 L 253.272017 68.759808 Z M 300.547471 55.532183 C 300.547471 57.558875 300.622645 59.185642 300.769986 60.412482 C 300.920334 61.624288 301.224037 62.556446 301.681095 63.211963 C 302.138154 63.867481 302.793671 64.312511 303.647648 64.550061 C 304.513653 64.772577 305.683362 64.90789 307.153766 64.956001 L 307.153766 67.999047 L 283.21835 67.999047 L 283.21835 64.956001 C 284.628615 64.90789 285.780281 64.745514 286.670342 64.474887 C 287.560403 64.189226 288.24599 63.732168 288.730111 63.100706 C 289.211225 62.469244 289.538984 61.585197 289.713387 60.448565 C 289.884784 59.296899 289.971986 57.838523 289.971986 56.070429 L 289.971986 46.718778 C 289.971986 43.78699 289.923875 41.366386 289.824645 39.462979 C 289.725415 37.556565 289.60213 36.251544 289.451782 35.547915 C 289.193183 34.284991 288.618853 33.452062 287.728793 33.043116 C 286.847753 32.634169 285.242035 32.429695 282.902619 32.429695 L 282.902619 29.852729 L 300.547471 26.957025 Z M 289.379615 10.851737 C 289.379615 9.182874 289.94793 7.778622 291.084562 6.638984 C 292.2242 5.490325 293.604396 4.912988 295.222141 4.912988 C 296.894012 4.912988 298.298263 5.490325 299.434895 6.638984 C 300.574533 7.778622 301.142849 9.182874 301.142849 10.851737 C 301.142849 12.47249 300.574533 13.852685 299.434895 14.989317 C 298.298263 16.125948 296.894012 16.697271 295.222141 16.697271 C 293.604396 16.697271 292.2242 16.125948 291.084562 14.989317 C 289.94793 13.852685 289.379615 12.47249 289.379615 10.851737 Z M 348.580679 61.690441 C 346.650209 63.81937 344.250654 65.464178 341.382012 66.627872 C 338.522391 67.788559 335.425221 68.37191 332.084486 68.37191 C 328.993329 68.37191 326.178813 67.881775 323.643944 66.904512 C 321.106069 65.915222 318.923014 64.535027 317.091775 62.766933 C 315.27557 60.986812 313.871319 58.845855 312.882028 56.34707 C 311.904765 53.836256 311.414631 51.060831 311.414631 48.017785 C 311.414631 44.87551 311.946863 42.009876 313.011327 39.426895 C 314.075792 36.840908 315.564238 34.627784 317.48268 32.784517 C 319.413149 30.929221 321.719489 29.491894 324.404706 28.478548 C 327.086916 27.465201 330.05178 26.957025 333.290278 26.957025 C 335.578576 26.957025 337.695477 27.185554 339.637974 27.642612 C 341.592499 28.102677 343.261363 28.737146 344.647573 29.55504 C 346.04581 30.357899 347.146358 31.305092 347.949217 32.393612 C 348.76711 33.482132 349.17305 34.657854 349.17305 35.917771 C 349.17305 37.391182 348.752075 38.56089 347.913133 39.426895 C 347.083212 40.2929 345.964622 40.725903 344.554357 40.725903 C 343.378635 40.725903 342.347247 40.4222 341.454179 39.814794 C 340.576146 39.198366 339.704127 38.206069 338.838122 36.846922 C 338.083375 35.623089 337.439885 34.657854 336.91066 33.951218 C 336.378428 33.247589 335.882279 32.703329 335.425221 32.318438 C 334.968163 31.936554 334.511104 31.680962 334.051039 31.557676 C 333.593981 31.434391 333.037693 31.374252 332.382175 31.374252 C 329.450388 31.374252 327.174118 32.739412 325.553365 35.472741 C 323.932613 38.206069 323.12374 42.030924 323.12374 46.941293 C 323.12374 52.20949 324.094989 56.265882 326.037486 59.113474 C 327.992011 61.946032 330.791493 63.362311 334.441944 63.362311 C 336.519755 63.362311 338.597565 62.971406 340.675376 62.192603 C 342.753187 61.401772 344.725754 60.268148 346.596084 58.797743 Z M 370.847231 55.532183 C 370.847231 57.558875 370.922405 59.185642 371.072753 60.412482 C 371.220094 61.624288 371.523797 62.556446 371.980855 63.211963 C 372.437914 63.867481 373.093431 64.312511 373.947408 64.550061 C 374.813413 64.772577 375.983122 64.90789 377.453526 64.956001 L 377.453526 67.999047 L 353.51811 67.999047 L 353.51811 64.956001 C 354.928375 64.90789 356.080041 64.745514 356.970102 64.474887 C 357.860163 64.189226 358.54575 63.732168 359.029871 63.100706 C 359.510985 62.469244 359.838744 61.585197 360.013147 60.448565 C 360.184544 59.296899 360.271746 57.838523 360.271746 56.070429 L 360.271746 46.718778 C 360.271746 43.78699 360.223635 41.366386 360.124405 39.462979 C 360.025175 37.556565 359.90189 36.251544 359.751542 35.547915 C 359.492943 34.284991 358.918613 33.452062 358.028553 33.043116 C 357.15052 32.634169 355.541795 32.429695 353.202379 32.429695 L 353.202379 29.852729 L 370.847231 26.957025 Z M 359.679375 10.851737 C 359.679375 9.182874 360.24769 7.778622 361.384322 6.638984 C 362.523961 5.490325 363.904156 4.912988 365.524908 4.912988 C 367.193772 4.912988 368.598023 5.490325 369.734655 6.638984 C 370.874293 7.778622 371.442609 9.182874 371.442609 10.851737 C 371.442609 12.47249 370.874293 13.852685 369.734655 14.989317 C 368.598023 16.125948 367.193772 16.697271 365.524908 16.697271 C 363.904156 16.697271 362.523961 16.125948 361.384322 14.989317 C 360.24769 13.852685 359.679375 12.47249 359.679375 10.851737 Z M 403.665212 26.957025 C 406.708257 26.957025 409.582913 27.477229 412.292185 28.514631 C 415.013486 29.55504 417.395 30.989361 419.436727 32.8206 C 421.490481 34.639812 423.111234 36.804825 424.298984 39.315638 C 425.498762 41.826451 426.097147 44.571807 426.097147 47.551706 C 426.097147 50.64587 425.498762 53.484442 424.298984 56.070429 C 423.111234 58.653409 421.490481 60.887582 419.436727 62.766933 C 417.395 64.634256 415.013486 66.101654 412.292185 67.166118 C 409.582913 68.227576 406.708257 68.759808 403.665212 68.759808 C 400.685313 68.759808 397.852755 68.24261 395.167538 67.202202 C 392.482321 66.161793 390.12787 64.70943 388.098171 62.842107 C 386.068471 60.962756 384.474782 58.716555 383.311087 56.106513 C 382.147393 53.49647 381.56705 50.64587 381.56705 47.551706 C 381.56705 44.571807 382.147393 41.814423 383.311087 39.276547 C 384.474782 36.741679 386.068471 34.564638 388.098171 32.745426 C 390.12787 30.914187 392.482321 29.491894 395.167538 28.478548 C 397.852755 27.465201 400.685313 26.957025 403.665212 26.957025 Z M 403.665212 31.374252 C 402.155717 31.374252 400.763494 31.768164 399.491549 32.562002 C 398.228625 33.340805 397.152133 34.441353 396.262072 35.863646 C 395.372011 37.273911 394.686424 38.981865 394.202303 40.984502 C 393.733217 42.987138 393.498674 45.203269 393.498674 47.62688 C 393.498674 50.161749 393.733217 52.444033 394.202303 54.473732 C 394.686424 56.503432 395.372011 58.226421 396.262072 59.651721 C 397.152133 61.061986 398.216597 62.162534 399.452458 62.953365 C 400.703355 63.732168 402.107606 64.123073 403.665212 64.123073 C 405.237853 64.123073 406.66616 63.732168 407.950132 62.953365 C 409.24914 62.162534 410.358709 61.046951 411.272825 59.61263 C 412.186942 58.166281 412.899592 56.428258 413.407768 54.398558 C 413.912938 52.371866 414.168529 50.113638 414.168529 47.62688 C 414.168529 45.203269 413.912938 42.999166 413.407768 41.020585 C 412.899592 39.042004 412.186942 37.33405 411.272825 35.899729 C 410.358709 34.453381 409.24914 33.340805 407.950132 32.562002 C 406.66616 31.768164 405.237853 31.374252 403.665212 31.374252 Z M 435.364603 67.999047 L 433.007145 67.999047 L 433.007145 54.176043 L 436.197532 54.176043 C 437.063537 57.814467 438.308419 60.472621 439.929171 62.15652 C 441.549924 63.825384 443.65179 64.661319 446.237777 64.661319 C 448.1051 64.661319 449.557463 64.270414 450.597872 63.491611 C 451.635274 62.70078 452.155478 61.618274 452.155478 60.244092 C 452.155478 58.833827 451.524016 57.453632 450.264099 56.106513 C 449.001175 54.759394 446.94742 53.32808 444.102834 51.821592 C 440.25693 49.740774 437.496539 47.674992 435.827675 45.624244 C 434.158812 43.570489 433.322876 41.249114 433.322876 38.666134 C 433.322876 36.994263 433.638607 35.436657 434.270069 33.990309 C 434.898524 32.540953 435.758515 31.28705 436.847035 30.222585 C 437.935556 29.158121 439.240577 28.33722 440.7621 27.75387 C 442.283622 27.173526 443.92843 26.881851 445.699531 26.881851 C 447.269165 26.881851 448.826771 27.11038 450.375357 27.570445 C 451.920935 28.027503 453.274068 28.658965 454.437762 29.461824 L 455.811944 27.642612 L 457.778497 27.642612 L 457.778497 39.129206 L 454.828667 39.129206 C 453.664973 36.233502 452.459181 34.155691 451.208285 32.895774 C 449.972424 31.620823 448.462929 30.983347 446.682807 30.983347 C 445.272542 30.983347 444.144932 31.368238 443.305989 32.135013 C 442.476068 32.889761 442.061107 33.903107 442.061107 35.178058 C 442.061107 36.588324 442.680541 37.929429 443.916403 39.20438 C 445.155271 40.464297 447.221054 41.856521 450.113751 43.378043 C 452.14345 44.490619 453.887488 45.579139 455.345864 46.643604 C 456.819276 47.708068 458.01304 48.784561 458.927156 49.873081 C 459.844279 50.961601 460.511825 52.104246 460.932799 53.304024 C 461.365802 54.491774 461.582303 55.766726 461.582303 57.125873 C 461.582303 58.909001 461.254544 60.508705 460.599027 61.934005 C 459.943509 63.34427 459.00233 64.556075 457.778497 65.569421 C 456.566691 66.582768 455.111321 67.370592 453.418402 67.926879 C 451.722475 68.483167 449.83711 68.759808 447.7593 68.759808 C 445.582259 68.759808 443.55256 68.47114 441.673209 67.887789 C 439.802879 67.307445 438.257301 66.459482 437.033467 65.346906 Z M 435.364603 67.999047 " stroke="#e4b02b" stroke-width="2.85" stroke-opacity="1" stroke-miterlimit="4"/></svg>