<svg xmlns="http://www.w3.org/2000/svg" xmlns:xlink="http://www.w3.org/1999/xlink" width="1366" zoomAndPan="magnify" viewBox="0 0 1024.5 576" height="768" preserveAspectRatio="xMidYMid meet" version="1.0"><defs><clipPath id="9aa07c44cd"><path d="M 300 92 L 718 92 L 718 505.386719 L 300 505.386719 Z M 300 92 " clip-rule="nonzero"/></clipPath></defs><path fill="#25d366" d="M 510.570312 98.617188 C 399.871094 98.617188 310.132812 188.34375 310.132812 299.03125 C 310.117188 308.5625 310.78125 318.050781 312.125 327.492188 C 313.472656 336.929688 315.484375 346.226562 318.160156 355.378906 C 320.839844 364.527344 324.15625 373.441406 328.113281 382.117188 C 332.070312 390.792969 336.625 399.140625 341.78125 407.164062 L 329.714844 437.3125 L 310.132812 486.226562 L 360.601562 471.085938 L 393.023438 461.363281 C 397.257812 464.4375 401.613281 467.34375 406.078125 470.078125 C 410.542969 472.816406 415.109375 475.371094 419.777344 477.746094 C 424.445312 480.121094 429.199219 482.308594 434.039062 484.308594 C 438.878906 486.308594 443.789062 488.117188 448.773438 489.730469 C 453.753906 491.34375 458.792969 492.761719 463.886719 493.976562 C 468.980469 495.195312 474.113281 496.210938 479.289062 497.023438 C 484.460938 497.835938 489.660156 498.445312 494.882812 498.847656 C 500.101562 499.253906 505.332031 499.449219 510.570312 499.441406 C 621.265625 499.441406 711.007812 409.714844 711.007812 299.03125 C 711.007812 188.34375 621.265625 98.617188 510.570312 98.617188 Z M 510.570312 98.617188 " fill-opacity="1" fill-rule="nonzero"/><g clip-path="url(#9aa07c44cd)"><path fill="#ffffff" d="M 510.570312 505.25 C 505.300781 505.261719 500.039062 505.074219 494.785156 504.679688 C 489.527344 504.285156 484.296875 503.6875 479.089844 502.890625 C 473.878906 502.09375 468.710938 501.097656 463.578125 499.898438 C 458.449219 498.703125 453.371094 497.3125 448.347656 495.722656 C 443.324219 494.132812 438.367188 492.351562 433.480469 490.382812 C 428.59375 488.410156 423.792969 486.253906 419.070312 483.910156 C 414.351562 481.566406 409.730469 479.046875 405.203125 476.347656 C 400.679688 473.648438 396.265625 470.78125 391.960938 467.738281 L 300.265625 495.246094 L 335.289062 407.757812 C 333.296875 404.550781 331.390625 401.289062 329.578125 397.976562 C 327.761719 394.664062 326.039062 391.304688 324.410156 387.894531 C 322.78125 384.488281 321.242188 381.039062 319.804688 377.546875 C 318.363281 374.054688 317.019531 370.523438 315.769531 366.957031 C 314.523438 363.394531 313.375 359.796875 312.328125 356.167969 C 311.277344 352.539062 310.328125 348.882812 309.480469 345.203125 C 308.628906 341.519531 307.882812 337.820312 307.238281 334.097656 C 306.589844 330.375 306.046875 326.640625 305.609375 322.886719 C 305.167969 319.136719 304.832031 315.375 304.597656 311.605469 C 304.363281 307.835938 304.230469 304.058594 304.207031 300.28125 C 304.179688 296.503906 304.253906 292.730469 304.4375 288.957031 C 304.617188 285.183594 304.898438 281.417969 305.289062 277.660156 C 305.675781 273.902344 306.164062 270.160156 306.757812 266.429688 C 307.351562 262.699219 308.042969 258.984375 308.839844 255.292969 C 309.636719 251.601562 310.535156 247.933594 311.53125 244.289062 C 312.53125 240.644531 313.628906 237.03125 314.824219 233.449219 C 316.019531 229.867188 317.3125 226.320312 318.707031 222.808594 C 320.097656 219.292969 321.582031 215.824219 323.164062 212.394531 C 324.746094 208.960938 326.421875 205.578125 328.1875 202.238281 C 329.957031 198.902344 331.8125 195.613281 333.761719 192.375 C 335.710938 189.140625 337.746094 185.957031 339.867188 182.832031 C 341.988281 179.710938 344.195312 176.644531 346.488281 173.640625 C 348.777344 170.636719 351.148438 167.699219 353.601562 164.824219 C 356.054688 161.949219 358.582031 159.148438 361.191406 156.414062 C 363.796875 153.675781 366.476562 151.015625 369.226562 148.429688 C 371.980469 145.839844 374.800781 143.332031 377.691406 140.898438 C 380.582031 138.464844 383.535156 136.113281 386.554688 133.84375 C 389.574219 131.570312 392.652344 129.386719 395.792969 127.285156 C 398.933594 125.183594 402.128906 123.167969 405.375 121.242188 C 408.625 119.316406 411.925781 117.480469 415.277344 115.734375 C 418.628906 113.988281 422.023438 112.335938 425.464844 110.777344 C 428.90625 109.21875 432.386719 107.757812 435.910156 106.390625 C 439.429688 105.019531 442.988281 103.75 446.578125 102.578125 C 450.171875 101.40625 453.792969 100.332031 457.441406 99.359375 C 461.09375 98.386719 464.765625 97.511719 468.464844 96.742188 C 472.164062 95.96875 475.878906 95.300781 479.613281 94.730469 C 483.347656 94.164062 487.097656 93.699219 490.859375 93.335938 C 494.617188 92.972656 498.386719 92.714844 502.160156 92.558594 C 505.9375 92.402344 509.710938 92.351562 513.488281 92.402344 C 517.265625 92.457031 521.039062 92.609375 524.808594 92.871094 C 528.578125 93.128906 532.335938 93.492188 536.085938 93.957031 C 539.835938 94.421875 543.570312 94.988281 547.289062 95.660156 C 551.003906 96.328125 554.703125 97.101562 558.378906 97.972656 C 562.054688 98.847656 565.703125 99.820312 569.324219 100.894531 C 572.945312 101.96875 576.539062 103.140625 580.09375 104.410156 C 583.652344 105.679688 587.171875 107.046875 590.65625 108.511719 C 594.140625 109.972656 597.578125 111.53125 600.976562 113.183594 C 604.375 114.835938 607.722656 116.582031 611.023438 118.417969 C 614.324219 120.253906 617.574219 122.179688 620.769531 124.195312 C 623.964844 126.210938 627.105469 128.308594 630.183594 130.496094 C 633.265625 132.683594 636.285156 134.953125 639.238281 137.304688 C 642.195312 139.660156 645.085938 142.089844 647.90625 144.601562 C 650.730469 147.113281 653.480469 149.699219 656.160156 152.363281 C 658.839844 155.023438 661.445312 157.757812 663.976562 160.5625 C 666.507812 163.367188 668.957031 166.242188 671.328125 169.179688 C 673.703125 172.121094 675.992188 175.125 678.199219 178.1875 C 680.40625 181.253906 682.53125 184.378906 684.566406 187.558594 C 686.601562 190.742188 688.550781 193.976562 690.40625 197.265625 C 692.265625 200.554688 694.035156 203.890625 695.707031 207.277344 C 697.382812 210.664062 698.964844 214.09375 700.453125 217.566406 C 701.9375 221.039062 703.328125 224.550781 704.625 228.097656 C 705.917969 231.648438 707.113281 235.230469 708.210938 238.84375 C 709.308594 242.457031 710.308594 246.101562 711.203125 249.769531 C 712.101562 253.4375 712.898438 257.128906 713.59375 260.84375 C 714.289062 264.554688 714.882812 268.285156 715.371094 272.03125 C 715.863281 275.777344 716.25 279.53125 716.53125 283.300781 C 716.816406 287.066406 716.996094 290.835938 717.074219 294.613281 C 717.152344 298.390625 717.125 302.167969 716.996094 305.941406 C 716.863281 309.71875 716.628906 313.488281 716.292969 317.25 C 715.957031 321.011719 715.515625 324.761719 714.972656 328.5 C 714.429688 332.238281 713.785156 335.957031 713.035156 339.660156 C 712.289062 343.363281 711.441406 347.042969 710.492188 350.699219 C 709.542969 354.355469 708.492188 357.984375 707.34375 361.582031 C 706.195312 365.179688 704.949219 368.746094 703.605469 372.277344 C 702.257812 375.804688 700.820312 379.296875 699.285156 382.75 C 697.746094 386.199219 696.117188 389.605469 694.394531 392.96875 C 692.671875 396.328125 690.859375 399.640625 688.953125 402.902344 C 687.046875 406.167969 685.054688 409.375 682.972656 412.527344 C 680.894531 415.679688 678.726562 418.773438 676.476562 421.804688 C 674.226562 424.839844 671.894531 427.808594 669.480469 430.714844 C 667.066406 433.621094 664.574219 436.460938 662.003906 439.230469 C 659.433594 441.996094 656.789062 444.695312 654.074219 447.320312 C 651.355469 449.941406 648.566406 452.488281 645.710938 454.960938 C 642.851562 457.433594 639.929688 459.824219 636.941406 462.132812 C 633.953125 464.445312 630.902344 466.671875 627.789062 468.8125 C 624.679688 470.957031 621.511719 473.011719 618.289062 474.984375 C 615.0625 476.953125 611.789062 478.832031 608.460938 480.621094 C 605.132812 482.410156 601.761719 484.105469 598.339844 485.710938 C 594.921875 487.316406 591.457031 488.824219 587.957031 490.238281 C 584.453125 491.652344 580.914062 492.96875 577.335938 494.191406 C 573.761719 495.410156 570.15625 496.53125 566.519531 497.554688 C 562.882812 498.574219 559.21875 499.496094 555.53125 500.316406 C 551.84375 501.140625 548.136719 501.859375 544.410156 502.476562 C 540.683594 503.09375 536.941406 503.609375 533.183594 504.019531 C 529.429688 504.433594 525.664062 504.742188 521.894531 504.945312 C 518.121094 505.152344 514.347656 505.253906 510.566406 505.253906 Z M 394.105469 454.972656 L 396.429688 456.660156 C 400.539062 459.652344 404.765625 462.480469 409.097656 465.136719 C 413.433594 467.796875 417.867188 470.28125 422.398438 472.589844 C 426.929688 474.898438 431.546875 477.023438 436.246094 478.96875 C 440.945312 480.910156 445.714844 482.667969 450.554688 484.234375 C 455.390625 485.800781 460.285156 487.175781 465.230469 488.355469 C 470.175781 489.539062 475.164062 490.519531 480.1875 491.308594 C 485.210938 492.097656 490.257812 492.683594 495.332031 493.074219 C 500.402344 493.460938 505.480469 493.648438 510.566406 493.636719 C 617.886719 493.636719 705.195312 406.335938 705.195312 299.03125 C 705.195312 191.722656 617.886719 104.421875 510.566406 104.421875 C 403.246094 104.421875 315.9375 191.722656 315.9375 299.03125 C 315.925781 308.289062 316.574219 317.5 317.882812 326.664062 C 319.191406 335.828125 321.144531 344.855469 323.746094 353.738281 C 326.347656 362.625 329.566406 371.28125 333.410156 379.703125 C 337.25 388.128906 341.671875 396.234375 346.671875 404.027344 L 348.289062 406.542969 L 320 477.203125 Z M 394.105469 454.972656 " fill-opacity="1" fill-rule="nonzero"/></g><path fill="#ffffff" d="M 446.78125 166.851562 C 451.726562 167.253906 456.515625 168.34375 461.148438 170.125 C 462.449219 170.625 463.726562 171.179688 464.972656 171.785156 L 476.300781 257.6875 C 472.964844 260.5625 469.324219 262.972656 465.371094 264.917969 C 461.421875 266.863281 457.289062 268.28125 452.972656 269.167969 C 456.015625 280.089844 460.285156 290.503906 465.792969 300.414062 C 471.296875 310.324219 477.882812 319.453125 485.546875 327.804688 L 485.546875 327.820312 L 485.5625 327.820312 C 491.9375 334.78125 498.929688 341.054688 506.542969 346.636719 C 514.15625 352.21875 522.242188 357.003906 530.796875 360.988281 C 532.320312 357.042969 534.292969 353.34375 536.722656 349.882812 C 539.148438 346.425781 541.960938 343.3125 545.152344 340.542969 L 626.097656 357.816406 C 627.988281 361.882812 629.328125 366.125 630.113281 370.539062 C 630.898438 374.957031 631.105469 379.398438 630.730469 383.867188 C 630.59375 385.558594 630.371094 387.238281 630.066406 388.90625 C 629.761719 390.574219 629.375 392.222656 628.910156 393.851562 C 628.445312 395.484375 627.898438 397.085938 627.273438 398.664062 C 626.648438 400.238281 625.949219 401.78125 625.175781 403.289062 C 624.398438 404.796875 623.550781 406.265625 622.632812 407.6875 C 621.710938 409.113281 620.726562 410.488281 619.671875 411.816406 C 618.617188 413.144531 617.496094 414.417969 616.316406 415.636719 C 615.136719 416.851562 613.902344 418.011719 612.609375 419.105469 C 611.3125 420.203125 609.96875 421.234375 608.574219 422.199219 C 607.179688 423.160156 605.742188 424.054688 604.257812 424.878906 C 602.773438 425.699219 601.253906 426.449219 599.699219 427.121094 C 598.144531 427.796875 596.558594 428.390625 594.941406 428.910156 C 593.328125 429.429688 591.691406 429.867188 590.035156 430.222656 C 588.375 430.578125 586.703125 430.855469 585.019531 431.046875 C 583.335938 431.238281 581.644531 431.351562 579.949219 431.375 C 578.253906 431.402344 576.558594 431.347656 574.871094 431.207031 C 464.140625 422.070312 381.777344 324.910156 390.917969 214.191406 C 391.058594 212.5 391.28125 210.824219 391.585938 209.15625 C 391.890625 207.488281 392.273438 205.835938 392.742188 204.207031 C 393.207031 202.578125 393.753906 200.972656 394.378906 199.398438 C 395 197.820312 395.699219 196.277344 396.476562 194.769531 C 397.253906 193.261719 398.097656 191.796875 399.019531 190.371094 C 399.9375 188.945312 400.925781 187.570312 401.980469 186.242188 C 403.035156 184.914062 404.152344 183.640625 405.332031 182.425781 C 406.511719 181.207031 407.75 180.050781 409.042969 178.953125 C 410.335938 177.855469 411.683594 176.824219 413.078125 175.863281 C 414.472656 174.898438 415.910156 174.003906 417.394531 173.179688 C 418.875 172.359375 420.394531 171.609375 421.953125 170.9375 C 423.507812 170.261719 425.09375 169.667969 426.707031 169.148438 C 428.324219 168.632812 429.960938 168.195312 431.617188 167.835938 C 433.273438 167.480469 434.945312 167.203125 436.632812 167.011719 C 438.316406 166.820312 440.007812 166.710938 441.703125 166.683594 C 443.398438 166.65625 445.089844 166.710938 446.78125 166.851562 Z M 446.78125 166.851562 " fill-opacity="1" fill-rule="nonzero"/><path fill="#ffffff" d="M 579.171875 437.191406 C 577.589844 437.191406 575.996094 437.125 574.390625 436.996094 C 571.015625 436.71875 567.648438 436.359375 564.289062 435.917969 C 560.929688 435.476562 557.582031 434.953125 554.246094 434.347656 C 550.914062 433.742188 547.597656 433.054688 544.296875 432.285156 C 540.996094 431.515625 537.71875 430.667969 534.460938 429.738281 C 531.203125 428.808594 527.96875 427.796875 524.761719 426.710938 C 521.550781 425.621094 518.371094 424.453125 515.222656 423.207031 C 512.070312 421.964844 508.953125 420.640625 505.867188 419.242188 C 502.78125 417.84375 499.730469 416.371094 496.714844 414.824219 C 493.703125 413.277344 490.726562 411.652344 487.792969 409.960938 C 484.859375 408.265625 481.96875 406.5 479.121094 404.664062 C 476.273438 402.828125 473.472656 400.921875 470.722656 398.949219 C 467.96875 396.972656 465.265625 394.933594 462.609375 392.828125 C 459.957031 390.71875 457.355469 388.546875 454.8125 386.3125 C 452.265625 384.078125 449.773438 381.785156 447.339844 379.425781 C 444.90625 377.070312 442.53125 374.652344 440.21875 372.179688 C 437.902344 369.707031 435.648438 367.175781 433.457031 364.59375 C 431.269531 362.007812 429.140625 359.371094 427.082031 356.683594 C 425.019531 353.992188 423.027344 351.253906 421.097656 348.46875 C 419.171875 345.683594 417.316406 342.847656 415.527344 339.972656 C 413.742188 337.09375 412.027344 334.171875 410.382812 331.210938 C 408.738281 328.246094 407.167969 325.246094 405.671875 322.207031 C 404.175781 319.167969 402.753906 316.09375 401.410156 312.984375 C 400.066406 309.875 398.796875 306.734375 397.605469 303.5625 C 396.417969 300.390625 395.304688 297.191406 394.269531 293.964844 C 393.238281 290.738281 392.285156 287.488281 391.410156 284.214844 C 390.535156 280.941406 389.742188 277.648438 389.03125 274.335938 C 388.320312 271.023438 387.691406 267.695312 387.140625 264.351562 C 386.59375 261.011719 386.128906 257.65625 385.742188 254.289062 C 385.359375 250.921875 385.058594 247.550781 384.84375 244.167969 C 384.625 240.789062 384.492188 237.402344 384.441406 234.015625 C 384.386719 230.628906 384.421875 227.242188 384.535156 223.855469 C 384.652344 220.46875 384.847656 217.089844 385.132812 213.714844 C 385.285156 211.835938 385.53125 209.964844 385.871094 208.113281 C 386.210938 206.257812 386.636719 204.421875 387.15625 202.609375 C 387.675781 200.796875 388.28125 199.011719 388.976562 197.257812 C 389.671875 195.503906 390.449219 193.789062 391.3125 192.113281 C 392.171875 190.4375 393.117188 188.804688 394.140625 187.222656 C 395.164062 185.636719 396.261719 184.105469 397.433594 182.628906 C 398.605469 181.152344 399.847656 179.738281 401.160156 178.382812 C 402.472656 177.027344 403.847656 175.742188 405.289062 174.523438 C 406.726562 173.304688 408.222656 172.15625 409.773438 171.085938 C 411.324219 170.011719 412.925781 169.019531 414.574219 168.105469 C 416.222656 167.1875 417.914062 166.355469 419.644531 165.605469 C 421.375 164.859375 423.136719 164.195312 424.933594 163.621094 C 426.730469 163.042969 428.550781 162.558594 430.394531 162.160156 C 432.238281 161.761719 434.097656 161.457031 435.96875 161.242188 C 437.84375 161.027344 439.722656 160.90625 441.609375 160.875 C 443.496094 160.847656 445.378906 160.910156 447.257812 161.066406 C 452.757812 161.511719 458.082031 162.726562 463.234375 164.707031 C 464.710938 165.277344 466.152344 165.902344 467.515625 166.566406 L 470.320312 167.929688 L 482.46875 260.035156 L 480.09375 262.082031 C 474.230469 267.128906 467.621094 270.847656 460.265625 273.238281 C 463.332031 282.632812 467.355469 291.601562 472.339844 300.136719 C 477.320312 308.671875 483.152344 316.585938 489.828125 323.875 L 489.84375 323.894531 C 495.289062 329.851562 501.210938 335.289062 507.617188 340.199219 C 514.023438 345.109375 520.808594 349.421875 527.976562 353.132812 C 531.355469 346.625 535.8125 340.96875 541.34375 336.15625 L 543.53125 334.257812 L 630.140625 352.742188 L 631.359375 355.363281 C 633.464844 359.890625 634.953125 364.609375 635.828125 369.519531 C 636.703125 374.433594 636.929688 379.375 636.515625 384.347656 C 636.367188 386.128906 636.136719 387.894531 635.824219 389.652344 C 635.507812 391.410156 635.113281 393.148438 634.640625 394.871094 C 634.164062 396.589844 633.609375 398.285156 632.980469 399.957031 C 632.347656 401.625 631.636719 403.261719 630.851562 404.867188 C 630.070312 406.46875 629.210938 408.035156 628.28125 409.558594 C 627.351562 411.082031 626.355469 412.558594 625.285156 413.992188 C 624.21875 415.421875 623.089844 416.800781 621.894531 418.128906 C 620.699219 419.453125 619.445312 420.722656 618.132812 421.929688 C 616.820312 423.140625 615.453125 424.289062 614.03125 425.371094 C 612.613281 426.453125 611.148438 427.46875 609.632812 428.414062 C 608.121094 429.363281 606.566406 430.238281 604.96875 431.039062 C 603.375 431.839844 601.746094 432.566406 600.085938 433.21875 C 598.421875 433.871094 596.734375 434.441406 595.015625 434.9375 C 593.300781 435.433594 591.566406 435.84375 589.8125 436.179688 C 588.058594 436.511719 586.292969 436.761719 584.515625 436.933594 C 582.738281 437.101562 580.957031 437.1875 579.171875 437.191406 Z M 442.445312 172.480469 C 441.019531 172.480469 439.597656 172.550781 438.179688 172.683594 C 436.757812 172.820312 435.351562 173.019531 433.949219 173.285156 C 432.550781 173.550781 431.164062 173.882812 429.796875 174.277344 C 428.425781 174.671875 427.078125 175.128906 425.753906 175.648438 C 424.425781 176.167969 423.125 176.746094 421.851562 177.386719 C 420.582031 178.027344 419.339844 178.726562 418.132812 179.484375 C 416.925781 180.238281 415.753906 181.050781 414.621094 181.914062 C 413.488281 182.777344 412.398438 183.695312 411.351562 184.660156 C 410.304688 185.628906 409.304688 186.640625 408.351562 187.699219 C 407.398438 188.757812 406.496094 189.859375 405.644531 191 C 404.792969 192.144531 403.996094 193.324219 403.257812 194.542969 C 402.515625 195.757812 401.832031 197.007812 401.207031 198.289062 C 400.582031 199.570312 400.019531 200.875 399.515625 202.207031 C 399.011719 203.539062 398.570312 204.894531 398.195312 206.269531 C 397.816406 207.640625 397.503906 209.03125 397.253906 210.433594 C 397.007812 211.835938 396.824219 213.25 396.707031 214.667969 C 396.441406 217.855469 396.257812 221.046875 396.152344 224.242188 C 396.046875 227.433594 396.019531 230.632812 396.070312 233.828125 C 396.117188 237.023438 396.25 240.21875 396.457031 243.410156 C 396.664062 246.597656 396.949219 249.78125 397.3125 252.957031 C 397.675781 256.132812 398.117188 259.300781 398.636719 262.453125 C 399.15625 265.609375 399.75 268.75 400.425781 271.875 C 401.097656 275 401.847656 278.105469 402.675781 281.195312 C 403.5 284.285156 404.402344 287.351562 405.378906 290.394531 C 406.355469 293.4375 407.40625 296.457031 408.53125 299.449219 C 409.652344 302.441406 410.851562 305.40625 412.121094 308.339844 C 413.390625 311.273438 414.734375 314.175781 416.144531 317.042969 C 417.558594 319.910156 419.039062 322.742188 420.59375 325.539062 C 422.144531 328.332031 423.761719 331.089844 425.449219 333.804688 C 427.136719 336.519531 428.890625 339.195312 430.707031 341.824219 C 432.527344 344.453125 434.410156 347.035156 436.355469 349.574219 C 438.296875 352.113281 440.304688 354.597656 442.371094 357.039062 C 444.441406 359.476562 446.566406 361.863281 448.75 364.199219 C 450.933594 366.535156 453.175781 368.8125 455.472656 371.039062 C 457.769531 373.261719 460.117188 375.429688 462.519531 377.539062 C 464.921875 379.648438 467.375 381.695312 469.878906 383.683594 C 472.382812 385.671875 474.933594 387.601562 477.53125 389.464844 C 480.128906 391.328125 482.773438 393.125 485.457031 394.859375 C 488.144531 396.59375 490.871094 398.261719 493.640625 399.859375 C 496.410156 401.460938 499.214844 402.992188 502.058594 404.453125 C 504.902344 405.914062 507.777344 407.308594 510.691406 408.628906 C 513.601562 409.949219 516.542969 411.199219 519.515625 412.375 C 522.492188 413.550781 525.492188 414.652344 528.519531 415.683594 C 531.546875 416.710938 534.59375 417.667969 537.667969 418.546875 C 540.742188 419.425781 543.835938 420.230469 546.949219 420.957031 C 550.066406 421.683594 553.195312 422.335938 556.339844 422.910156 C 559.484375 423.480469 562.644531 423.980469 565.8125 424.398438 C 568.980469 424.816406 572.160156 425.15625 575.347656 425.421875 C 576.234375 425.492188 577.121094 425.539062 578.007812 425.5625 C 578.898438 425.582031 579.785156 425.578125 580.675781 425.546875 C 581.5625 425.519531 582.449219 425.460938 583.335938 425.378906 C 584.222656 425.296875 585.101562 425.191406 585.980469 425.058594 C 586.863281 424.925781 587.734375 424.765625 588.605469 424.582031 C 589.476562 424.402344 590.339844 424.191406 591.195312 423.957031 C 592.054688 423.722656 592.90625 423.464844 593.746094 423.183594 C 594.589844 422.902344 595.425781 422.59375 596.25 422.261719 C 597.074219 421.929688 597.890625 421.574219 598.695312 421.199219 C 599.5 420.820312 600.289062 420.417969 601.070312 419.992188 C 601.851562 419.570312 602.621094 419.121094 603.375 418.652344 C 604.132812 418.183594 604.871094 417.691406 605.597656 417.179688 C 606.324219 416.667969 607.039062 416.136719 607.734375 415.582031 C 608.429688 415.03125 609.109375 414.457031 609.769531 413.863281 C 610.433594 413.273438 611.078125 412.660156 611.707031 412.03125 C 612.332031 411.402344 612.941406 410.753906 613.53125 410.085938 C 614.121094 409.421875 614.691406 408.742188 615.242188 408.042969 C 615.789062 407.34375 616.320312 406.628906 616.828125 405.902344 C 617.335938 405.171875 617.824219 404.429688 618.289062 403.671875 C 618.753906 402.914062 619.199219 402.144531 619.621094 401.363281 C 620.039062 400.578125 620.4375 399.785156 620.8125 398.976562 C 621.1875 398.171875 621.539062 397.355469 621.867188 396.527344 C 622.195312 395.703125 622.496094 394.867188 622.777344 394.023438 C 623.054688 393.179688 623.308594 392.328125 623.539062 391.46875 C 623.769531 390.609375 623.972656 389.746094 624.152344 388.875 C 624.332031 388.003906 624.488281 387.128906 624.617188 386.25 C 624.746094 385.371094 624.847656 384.488281 624.925781 383.601562 C 625.003906 382.71875 625.054688 381.832031 625.082031 380.941406 C 625.105469 380.054688 625.109375 379.164062 625.082031 378.277344 C 625.058594 377.386719 625.003906 376.5 624.929688 375.613281 C 624.851562 374.730469 624.75 373.847656 624.621094 372.96875 C 624.492188 372.085938 624.339844 371.210938 624.160156 370.339844 C 623.640625 367.785156 622.902344 365.296875 621.949219 362.871094 L 546.878906 346.847656 C 542.160156 351.488281 538.605469 356.898438 536.21875 363.074219 L 533.984375 368.875 L 528.347656 366.253906 C 519.8125 362.289062 511.726562 357.554688 504.089844 352.050781 C 496.453125 346.546875 489.40625 340.375 482.945312 333.527344 L 479.535156 333.398438 L 479.660156 329.945312 C 472.105469 321.425781 465.601562 312.167969 460.152344 302.167969 C 454.699219 292.171875 450.441406 281.6875 447.378906 270.722656 L 445.714844 264.730469 L 451.804688 263.480469 C 458.527344 262.089844 464.632812 259.335938 470.117188 255.214844 L 459.640625 175.773438 C 459.445312 175.695312 459.253906 175.617188 459.058594 175.542969 C 454.945312 173.964844 450.695312 172.996094 446.304688 172.640625 C 445.011719 172.53125 443.726562 172.480469 442.445312 172.480469 Z M 442.445312 172.480469 " fill-opacity="1" fill-rule="nonzero"/></svg>